<svg xmlns="http://www.w3.org/2000/svg" viewBox="0 0 132 132" id="house-wife">
  <path d="M61.86 35a8.63 8.63 0 0 1 7.4 1.49 1.54 1.54 0 0 0 .9.3 1.5 1.5 0 0 0 .91-2.7 11.68 11.68 0 0 0-10.16-1.94 1.5 1.5 0 1 0 1 2.85zM68.34 39.7a7 7 0 0 0-6.78-1 1.49 1.49 0 0 0-.76 2 1.52 1.52 0 0 0 1.65.86c0 .17 0 .34 0 .53 0 2.05 1.15 3.61 2.68 3.61s2.55-1.4 2.67-3.29a1.51 1.51 0 0 0 .57-2.67zM51.14 39.55a4.91 4.91 0 0 0 0-.55 1.5 1.5 0 0 0 .29-2.83 7 7 0 0 0-6.77 1 1.5 1.5 0 0 0 .89 2.7 1.26 1.26 0 0 0 .28 0c.11 1.89 1.21 3.29 2.66 3.29S51.14 41.6 51.14 39.55zM53.26 51.19a2.68 2.68 0 0 0 1.54.45 5.15 5.15 0 0 0 2.09-.53 1.5 1.5 0 0 0-1.25-2.73 3.66 3.66 0 0 1-.62.23 1.89 1.89 0 0 1 0-.35 1.5 1.5 0 1 0-3-.16A3.34 3.34 0 0 0 53.26 51.19zM60.06 54.18c-3.82 2.56-5.73.26-6.08-.24a1.5 1.5 0 0 0-2.48 1.68 6.49 6.49 0 0 0 5.32 2.75 8.85 8.85 0 0 0 4.91-1.7 1.5 1.5 0 1 0-1.67-2.49z"></path>
  <path d="M117.11,76.18a1.51,1.51,0,0,0-1.44-1.24,30.46,30.46,0,0,1-7.56-1.18c2-1.05,4.44-2.63,5.37-4.56a1.5,1.5,0,0,0-1.16-2.13c-2-.26-6.74-1.43-8.87-4,3.09-.62,8.27-2.24,8.6-6.28a1.56,1.56,0,0,0-.51-1.25,1.52,1.52,0,0,0-1.31-.33A8,8,0,0,1,104,53.64c-2.5-2.11-3.63-6.11-3.37-11.89.57-12.18-3.76-28.7-14.59-36.17C80,1.44,72.8.88,65.19,4,63.3,2.91,58.08.79,51.25,4.52c-8,4.35-16.45,14.94-16.35,31.62,0,1.3.09,2.67.19,4.11.46,7.22.4,12.46-4.67,14.08a1.5,1.5,0,0,0-.53,2.56c.2.18,4.26,3.66,8.4,2.88,0,3.69-.73,11.34-6.26,13.28a1.5,1.5,0,0,0,0,2.84,4.72,4.72,0,0,0,.72.17c-3.68,2-6.67,3.77-8.88,5.27-7.8,5.3-8.18,12.43-8.51,18.72-.06,1-.11,2-.19,3-.17,2-.28,4-.34,6a10.23,10.23,0,0,0,5.66,9.41,115.6,115.6,0,0,0,24.41,8.69s3.87.82,4.07.88c5.74,1.42,15.53,1.92,15.62,1.92,1.72.09,3.44.13,5.14.13a96.29,96.29,0,0,0,40.46-8.8,10.21,10.21,0,0,0,6-9.18c.06-8.1-1.19-22.63-10.12-28.88-.66-.46-1.38-.92-2.16-1.39a82.39,82.39,0,0,0,12.26-3.9A1.5,1.5,0,0,0,117.11,76.18Zm-43.26-3.4a29.51,29.51,0,0,0,3.93,4.37,18.36,18.36,0,0,1-20.36,4.74,15.72,15.72,0,0,1-9-7.77,11.75,11.75,0,0,0,5.35-3.68,1.42,1.42,0,0,0,.27-.73l.21-2.2a17,17,0,0,0,5.72,1,18.22,18.22,0,0,0,11.46-4.38A12.11,12.11,0,0,0,73.85,72.78ZM44.07,34.08a8.62,8.62,0,0,1,6.58-.94,1.5,1.5,0,0,0,.94-2.85,11.73,11.73,0,0,0-7,.25c1.35-7.17,4.25-12.32,8.09-13.85,6.39-2.54,9.26.51,9.4.67a1.5,1.5,0,0,0,1.89.3,6.49,6.49,0,0,1,4.88-.37c2.45.86,4.49,3.36,6.05,7.42C80,38,77.5,46.61,73,58.15c-3,4.41-10.48,10.44-19.76,5.66a2.69,2.69,0,0,0-.29-.16l0,0a12,12,0,0,1-3.41-3.38C46.62,55.85,43.62,46.91,43.76,39,43.79,37.28,43.9,35.65,44.07,34.08ZM93.76,83a45.32,45.32,0,0,1-3.48,6.27l-.18.28a38.71,38.71,0,0,1-3.39,4.31c-5.23,5.72-11.4,8.62-18.36,8.62-.5,0-1,0-1.52-.05a12.88,12.88,0,0,1-8.31-3.74,12.19,12.19,0,0,1-5.93,1.58,13.13,13.13,0,0,1-5.9-1.47,18.64,18.64,0,0,1-6.26-5.19l-.29-.34,0-.06A27.59,27.59,0,0,1,35,76.28a28.88,28.88,0,0,0,3-.06,24.49,24.49,0,0,0,4.6,15.28l.07.09.09.11A15.75,15.75,0,0,0,48,96.07a9.39,9.39,0,0,0,11-1.52,10,10,0,0,0,8,4.84c.45,0,.89,0,1.32,0,6.07,0,11.5-2.56,16.15-7.65a35.82,35.82,0,0,0,3.14-4,.75.75,0,0,0,.07-.12,41,41,0,0,0,2.82-4.91,30,30,0,0,0,3.23.2Z"></path>
</svg>
