<svg xmlns="http://www.w3.org/2000/svg" viewBox="0 0 132 132" id="schoolgirl">
  <path d="M70.24 45.49a1.5 1.5 0 0 0 .9-2.7A10.81 10.81 0 0 0 61.71 41a1.5 1.5 0 0 0 .95 2.85 7.78 7.78 0 0 1 6.68 1.35A1.52 1.52 0 0 0 70.24 45.49zM65.6 52.74c1.37 0 2.42-1.29 2.56-3.05a1.43 1.43 0 0 0 .78-.53 1.5 1.5 0 0 0-.3-2.1 6.56 6.56 0 0 0-6.34-1A1.49 1.49 0 0 0 63 49c0 .12 0 .24 0 .36C63 51.27 64.12 52.74 65.6 52.74zM53.16 43.81a6.54 6.54 0 0 0-6.34.95 1.5 1.5 0 0 0 .9 2.71l.14 0c.15 1.73 1.19 3 2.55 3S53 49 53 47a2.69 2.69 0 0 0 0-.4 1.49 1.49 0 0 0 .19-2.8zM55.05 53.35a1.51 1.51 0 0 0-1.58 1.42 3.17 3.17 0 0 0 1.19 2.94 2.63 2.63 0 0 0 1.48.44 4.81 4.81 0 0 0 2-.5 1.5 1.5 0 0 0-1.26-2.73 2.2 2.2 0 0 1-.4.16.92.92 0 0 1 0-.16A1.5 1.5 0 0 0 55.05 53.35zM56.82 64.2a5.83 5.83 0 0 0 1.18.12 8.21 8.21 0 0 0 4.57-1.58A1.51 1.51 0 0 0 63 60.65a1.5 1.5 0 0 0-2.08-.4c-3.4 2.28-5.09.25-5.4-.19A1.5 1.5 0 0 0 53 61.74 6.21 6.21 0 0 0 56.82 64.2z"></path>
  <path d="M103.25,86.8a54.77,54.77,0,0,0-8.18-4.48A17.22,17.22,0,0,0,98,79.48,14.61,14.61,0,0,0,100.74,74c1-4,.24-8.52-2.23-13.54-.87-1.77-1.86-3.47-2.82-5.12a57.68,57.68,0,0,1-3.31-6.23,19.61,19.61,0,0,1-1.61-5.88,4,4,0,0,1-.84.2,3.52,3.52,0,0,1-.56,0,4.51,4.51,0,0,1-3.65-1.87,26.94,26.94,0,0,0-5.42-5.41A22.51,22.51,0,0,1,75,40.49a17.35,17.35,0,0,1-1.66.85,31,31,0,0,0,6.17,8.28,1.33,1.33,0,0,0-.1.28,34.85,34.85,0,0,1-5,10.77s0,0,0,0l-.06.08-.09.11-.32.44C71.12,65.14,64.44,74,54.75,69c-.41-.21-.82-.44-1.24-.71-6.95-4.3-8.78-15.45-7.56-25a7.8,7.8,0,0,1,6.44-1.17,1.5,1.5,0,0,0,.94-2.85,10.75,10.75,0,0,0-6.69.29,24.67,24.67,0,0,1,1.46-4.19c3.13.68,6.57,1.52,9.77,2.3,2.59.63,5.05,1.24,7.05,1.67a11.7,11.7,0,0,0,8.61-1.5,20.39,20.39,0,0,0,5.92-5.45L81,33c3.77,2.13,7.18,6.75,7.21,6.79a1.49,1.49,0,0,0,1.21.62h.14a1.5,1.5,0,0,0,1.22-.85l.23-.49S91,39,91,39L91.9,37C95,35,96.42,27.29,97,22.69c.6-4.8-3.66-7.71-7.78-10.52-.84-.58-1.7-1.16-2.51-1.76C81.38,6.48,72.43,2.21,63.29,2a30.91,30.91,0,0,0-22.45,9A6.52,6.52,0,0,0,38.73,16c.15,2.75,2.09,5,3.14,6l-.37,2.31a33.33,33.33,0,0,1-3.2,2.33C34,29.66,31.1,31.76,31.1,34a2.33,2.33,0,0,0,1.12,2.17c1.47.86,3.36-.23,5.2-1.28a11.69,11.69,0,0,1,1.22-.66,3.73,3.73,0,0,1,1.23-.09,29.35,29.35,0,0,0-1.32,5,38.68,38.68,0,0,0-.5,6.28,28.57,28.57,0,0,1-.74,7,53.62,53.62,0,0,1-2.26,6.22c-1.7,4.16-3.46,8.46-3,13.34a14.63,14.63,0,0,0,3.85,8.26,94.79,94.79,0,0,0-8.16,4.85c-7.2,4.89-7.56,11.46-7.86,17.26-.05.91-.43,6.33-.49,8.18a9.5,9.5,0,0,0,5.27,8.74c1.94,1,4,1.89,6.13,2.76h0a108.48,108.48,0,0,0,16.26,5.21l3.72.81c5.21,1.28,14.27,1.76,14.36,1.77,1.55.08,3.11.11,4.66.11a91.34,91.34,0,0,0,16.81-1.55h.05A88.18,88.18,0,0,0,107,121.91a9.49,9.49,0,0,0,5.56-8.51h0C112.64,105.94,111.48,92.56,103.25,86.8ZM29.89,107.71c.1,3.83.08,7.38.06,9.8,0,.16,0,.29,0,.44s0,.35,0,.52c-1.35-.59-2.67-1.2-3.93-1.83a6.49,6.49,0,0,1-3.6-6c.06-1.79.43-7.18.48-8.11.3-5.6.58-10.89,6.56-14.94,1.28-.88,2.88-1.87,4.78-3C32.35,91,29.78,102.52,29.89,107.71ZM54.51,75.18a1.51,1.51,0,0,0,.93-1.34l0-1.21a14.41,14.41,0,0,0,4.94.91c6.31,0,11.11-4.5,14-7.87l.42,8.48a1.55,1.55,0,0,0,.45,1,1.52,1.52,0,0,0,.35.26l2.56,1.46,1.68,1c-4.84,7.81-13.2,11-21.23,7.82-4.38-1.71-7.15-4.34-8.64-8.19C51.72,76.59,54,75.46,54.51,75.18Zm-9.59-54.7c.57-.63,3-1.57,10-1.4,8.83.2,19.88,2.78,27,7.2L80.77,29.6a9.74,9.74,0,0,0-1.38-.41,66.35,66.35,0,0,0-34.47-6C45,22.84,44.92,20.91,44.92,20.48ZM75.29,104,41.84,98.88c.23-4.93,1.57-11.26,4.1-19.7l.88-.35.38-.15c1.81,4.57,5.19,7.77,10.3,9.77a19.83,19.83,0,0,0,7.22,1.37c7,0,13.59-3.78,17.72-10.48a3.07,3.07,0,0,0,.31.17l.2.12,1.73,1,.12.07.39.21C80.92,88.08,76.91,95.78,75.29,104Zm30.49,15.23a85.6,85.6,0,0,1-18.06,6c0-.27-.07-.58-.12-.91h0C86.8,117.77,85.49,99.47,94,86h0l.24-.38.18-.27a48.79,48.79,0,0,1,7.16,4c7.11,5,8.11,17.25,8.07,24.12A6.48,6.48,0,0,1,105.78,119.19Z"></path>
</svg>
