<svg xmlns="http://www.w3.org/2000/svg" xml:space="preserve" id="magician" x="0" y="0" enable-background="new 0 0 512 512" version="1.1" viewBox="0 0 512 512">
  <linearGradient id="SVGID_1_" x1="92.803" x2="419.197" y1="256" y2="256" gradientUnits="userSpaceOnUse">
    <stop offset="0" stop-color="#0dafd4"></stop>
    <stop offset=".842" stop-color="#9d31fe"></stop>
  </linearGradient>
  <path fill="url(#SVGID_1_)" d="M399.697,386.04c-4.325-19.366-13.633-33.83-27.723-42.985c-28.486-18.45-19.679-43.701-11.161-68.121
	c1.698-4.868,3.302-9.467,4.599-13.983c0.872-3.046,1.902-9.491,2.282-32.036c12.289-4.319,21.126-16.034,21.126-29.781
	c0-13.781-8.882-25.52-21.219-29.813c-0.052-5.401-0.099-10.581-0.13-15.44c26.719-6.002,30.551-13.114,30.551-18.871
	c0-8.253-9.426-14.134-30.405-18.843V34.509c0-14.391-10.331-26.41-24.58-28.58c-25.516-3.822-58.593-5.925-93.138-5.925
	c-28.838,0-56.5,1.447-80.01,4.186c-14.541,1.724-25.506,14.058-25.506,28.691v83.287c-20.959,4.706-30.376,10.587-30.376,18.843
	c0,5.779,3.856,12.923,30.84,18.939c-0.002,4.817-0.029,9.923-0.063,15.241c-12.537,4.18-21.605,16.019-21.605,29.943
	c0,13.852,8.973,25.639,21.409,29.877c0.224,22.77,1.176,29.058,2,31.943c1.296,4.516,2.901,9.116,4.6,13.987
	c8.517,24.418,17.325,49.668-11.138,68.116c-14.113,9.152-23.42,23.605-27.715,42.948c-12.453,12.217-19.533,28.868-19.533,47.136
	v72.811c0,3.338,2.706,6.044,6.044,6.044h314.305c3.338,0,6.044-2.705,6.044-6.044v-72.811
	C419.197,414.892,412.13,398.255,399.697,386.04z M349.4,270.954c-8.631,24.746-20.452,58.637,15.996,82.243
	c7.584,4.928,13.472,11.912,17.629,20.833l-46.584-25.003l-12.982-23.795c-1.979-3.676-5.107-6.232-8.982-7.373
	c-3.105-0.95-5.629-1.019-7.669-0.62v-20.878c22.155-14.514,37.765-38.224,41.358-65.666h7.407
	c-0.353,18.163-1.145,24.707-1.78,26.923C352.59,261.807,351.041,266.25,349.4,270.954z M179.514,360.637l12.991,9.528v23.942
	c0,3.295,1.745,6.363,4.668,8.206c1.836,1.158,3.969,1.744,6.11,1.744c1.701,0,3.408-0.371,4.974-1.118l31.824-15.113
	c1.868,1.923,4.475,3.123,7.362,3.123h17.117c2.886,0,5.494-1.201,7.362-3.123l31.83,15.116c1.575,0.745,3.284,1.113,4.986,1.113
	c2.155,0,4.297-0.591,6.137-1.755c2.912-1.843,4.65-4.906,4.65-8.193v-23.944l12.977-9.533l3.282,1.762v137.517H176.217V362.405
	L179.514,360.637z M175.131,158.881c23.371,2.784,51.426,4.29,80.884,4.29c29.443,0,57.487-1.505,80.855-4.288v59.683
	c0,44.583-36.272,80.855-80.855,80.855c-44.599,0-80.884-36.272-80.884-80.855V158.881z M314.874,341.936
	c-3.294-2.086-7.555-2.332-11.13-0.639l-14.128,6.709l19.817-18.909c0.281,0.023,0.783,0.099,1.569,0.34
	c0.838,0.247,1.364,0.689,1.83,1.554l11.329,20.766l-4.638,3.407v-5.035C319.524,346.842,317.785,343.779,314.874,341.936z
	 M274.832,368.409l32.605-15.483v38.384l-32.605-15.484V368.409z M256.014,311.508c13.806,0,26.915-3.03,38.706-8.453v23.373
	l-28.329,27.031c-0.596-0.108-1.206-0.173-1.833-0.173h-17.117c-0.623,0-1.23,0.065-1.823,0.172l-28.339-27.032v-23.378
	C229.079,308.475,242.198,311.508,256.014,311.508z M262.744,365.373v13.488h-13.488v-13.488H262.744z M204.592,391.297v-38.359
	l32.576,15.47v7.418L204.592,391.297z M222.399,348.013l-14.13-6.71c-3.549-1.695-7.802-1.458-11.096,0.62
	c-2.923,1.843-4.668,4.911-4.668,8.206v5.046l-4.664-3.421l11.343-20.792c0.451-0.837,0.976-1.279,1.876-1.545
	c0.746-0.227,1.231-0.3,1.507-0.322L222.399,348.013z M376.733,199.134c0,10.739-8.736,19.475-19.474,19.475h-8.301
	c0-0.014,0-0.028,0-0.042v-38.907h8.301C367.997,179.659,376.733,188.395,376.733,199.134z M355.496,167.572h-6.539v-10.307
	c1.405-0.211,2.8-0.423,4.159-0.644c0.782-0.127,1.527-0.256,2.283-0.385C355.425,159.867,355.459,163.658,355.496,167.572z
	 M156.471,97.183c25.975,4.456,61.677,6.98,99.544,6.98c37.85,0,73.542-2.524,99.515-6.98v18.883
	c-25.424,4.563-61.281,7.157-99.515,7.157c-38.226,0-74.094-2.594-99.544-7.158V97.183z M171.301,16.194
	c23.041-2.685,50.22-4.103,78.598-4.103c33.965,0,66.406,2.058,91.333,5.79c8.285,1.262,14.298,8.256,14.298,16.629v50.404
	c-25.424,4.566-61.283,7.162-99.515,7.162c-38.249,0-74.118-2.596-99.544-7.162V32.881C156.471,24.37,162.852,17.196,171.301,16.194
	z M150.44,127.23c26.346,5.138,64.708,8.08,105.574,8.08c40.877,0,79.229-2.942,105.547-8.079
	c15.517,3.196,21.421,6.283,23.521,7.78c-2.684,1.915-11.571,6.43-38.751,10.428c-24.739,3.641-56.814,5.645-90.316,5.645
	c-33.512,0-65.591-2.004-90.327-5.645c-27.186-4-36.066-8.518-38.744-10.43C129.036,133.513,134.929,130.425,150.44,127.23z
	 M158.901,156.621c1.353,0.22,2.743,0.432,4.142,0.641v10.31h-6.161c0.023-3.889,0.042-7.657,0.049-11.283
	C157.587,156.399,158.226,156.511,158.901,156.621z M135.267,199.134c0-10.739,8.736-19.475,19.474-19.475h8.301v38.907
	c0,0.014,0,0.028,0,0.042h-8.302C144.003,218.609,135.267,209.872,135.267,199.134z M146.627,353.201
	c36.426-23.61,24.606-57.498,15.975-82.24c-1.642-4.707-3.192-9.152-4.393-13.335c-0.483-1.69-1.278-7.452-1.514-26.93h7.139
	c3.593,27.437,19.203,51.143,41.358,65.658v20.88c-2.031-0.4-4.536-0.334-7.607,0.608c-3.937,1.159-7.064,3.713-9.029,7.361
	l-13.009,23.845l-46.564,24.978C133.132,365.112,139.025,358.13,146.627,353.201z M104.891,433.142
	c0-20.602,10.413-38.025,28.561-47.797l30.677-16.456v131.02h-59.238V433.142z M407.109,499.909h-59.238V368.88l30.669,16.461
	c18.156,9.777,28.569,27.2,28.569,47.802V499.909z M204.678,207.221v-9.659c0-3.338,2.706-6.044,6.044-6.044
	c3.338,0,6.044,2.705,6.044,6.044v9.659c0,3.338-2.706,6.044-6.044,6.044C207.384,213.265,204.678,210.56,204.678,207.221z
	 M295.235,207.221v-9.659c0-3.338,2.706-6.044,6.044-6.044s6.044,2.705,6.044,6.044v9.659c0,3.338-2.706,6.044-6.044,6.044
	S295.235,210.56,295.235,207.221z M256.014,283.161c19.042,0,34.534-15.492,34.534-34.533c0-3.338-2.706-6.044-6.044-6.044h-56.98
	c-3.338,0-6.044,2.705-6.044,6.044C221.48,267.669,236.972,283.161,256.014,283.161z M277.634,254.671
	c-2.646,9.451-11.336,16.402-21.62,16.402c-10.284,0-18.974-6.951-21.62-16.402H277.634z M249.77,419.739
	c0-3.338,2.706-6.044,6.044-6.044h0.372c3.338,0,6.044,2.705,6.044,6.044s-2.706,6.044-6.044,6.044h-0.372
	C252.476,425.783,249.77,423.078,249.77,419.739z M249.77,448.087c0-3.338,2.706-6.044,6.044-6.044h0.372
	c3.338,0,6.044,2.705,6.044,6.044s-2.706,6.044-6.044,6.044h-0.372C252.476,454.131,249.77,451.425,249.77,448.087z M249.77,476.462
	c0-3.338,2.706-6.044,6.044-6.044h0.372c3.338,0,6.044,2.705,6.044,6.044s-2.706,6.044-6.044,6.044h-0.372
	C252.476,482.506,249.77,479.801,249.77,476.462z"></path>
</svg>
