<svg xmlns="http://www.w3.org/2000/svg" xml:space="preserve" id="cook" x="0" y="0" enable-background="new 0 0 512 512" version="1.1" viewBox="0 0 512 512">
  <linearGradient id="SVGID_1_" x1="88.954" x2="423.046" y1="256" y2="256" gradientUnits="userSpaceOnUse">
    <stop offset="0" stop-color="#0dafd4"></stop>
    <stop offset=".842" stop-color="#9d31fe"></stop>
  </linearGradient>
  <path fill="url(#SVGID_1_)" d="M387.345,371.671l-48.927-26.274l-8.95-16.835c-1.964-3.652-5.112-6.231-9.167-7.476
	c-4.001-1.182-8.049-0.778-11.729,1.175l-0.641,0.343V303.5c19.834-12.982,34.542-33.168,40.378-56.814h11.453
	c17.732,0,32.159-14.427,32.159-32.159c0-10.851-5.407-20.456-13.663-26.283v-20.389h13.337c3.311,0,5.995-2.684,5.995-5.995
	v-18.454c0-11.732-8.298-21.563-19.332-23.933V92.922c0-7.752-3.144-14.783-8.222-19.889c-1.889-11.287-7.206-20.624-17.475-30.826
	c-16.707-16.583-42.943-29.68-73.875-36.877c-28.578-6.65-57.407-7.079-77.117-1.149c-20.268,6.098-26.562,17.202-28.273,25.448
	c-0.936,4.527,1.546,9.15,4.174,14.046c0.387,0.722,0.88,1.64,1.34,2.546c-19.031,1.896-30.185,9.924-34.831,24.971
	c-6.249,5.18-10.237,12.998-10.237,21.73v26.552c-11.034,2.37-19.332,12.2-19.332,23.933v18.454c0,3.312,2.684,5.995,5.995,5.995
	h13.337v20.389c-8.256,5.827-13.663,15.432-13.663,26.283c0,17.732,14.427,32.159,32.159,32.159h11.481
	c5.834,23.635,20.53,43.813,40.35,56.795v19.107l-0.633-0.339c-3.659-1.941-7.708-2.343-11.77-1.145
	c-3.994,1.226-7.142,3.805-9.119,7.481l-8.926,16.791l-48.939,26.295c-22.372,12.018-35.728,34.337-35.728,59.706v74.608
	c0,3.312,2.684,5.995,5.995,5.995H417.05c3.311,0,5.995-2.684,5.995-5.995v-74.608C423.046,405.621,410.033,383.858,387.345,371.671
	z M314.214,332.84c0.902-0.479,1.682-0.553,2.63-0.273c0.99,0.304,1.588,0.788,2.05,1.647l8.248,15.516
	c-4.397,7.944-7.96,14.777-10.883,20.385c-4.931,9.457-10.03,19.236-12.25,19.913c-2.354,0.159-10.38-7.266-18.161-14.409
	c-5.245-4.815-11.498-10.556-19.256-17.261L314.214,332.84z M359.762,234.696h-9.304c0.402-3.542,0.615-7.139,0.615-10.786v-29.551
	h8.688c11.121,0,20.168,9.048,20.168,20.168C379.93,225.648,370.883,234.696,359.762,234.696z M366.268,183.031
	c-2.102-0.434-4.277-0.662-6.505-0.662h-8.688v-14.514h15.194V183.031z M145.732,118.929V92.922c0-8.948,7.28-16.229,16.228-16.229
	h188.079c8.948,0,16.228,7.28,16.228,16.229v26.008H145.732z M183.453,57.891c4.693-0.249,6.812-2.806,7.657-4.308
	c2.706-4.809-0.233-10.284-3.076-15.58c-1.013-1.888-2.678-4.989-2.923-6.278c2.072-8.938,11.943-13.665,19.913-16.063
	c36.071-10.853,106.157,2.364,139.089,35.052c5.09,5.057,8.628,9.667,10.961,14.447c-1.635-0.296-3.315-0.459-5.034-0.459H161.96
	c-0.155,0-0.308,0.009-0.462,0.012C165.65,61.085,172.315,58.481,183.453,57.891z M126.4,143.406
	c0-6.885,5.601-12.486,12.487-12.486h0.85h232.526h0.85c6.885,0,12.487,5.602,12.487,12.486v12.459h-40.691H167.006H126.4V143.406z
	 M145.732,167.855h15.273l-0.013,14.514h-8.754c-2.228,0-4.404,0.229-6.506,0.662V167.855z M152.238,234.696
	c-11.121,0-20.168-9.048-20.168-20.169c0-11.12,9.047-20.168,20.168-20.168h8.744l-0.027,29.551c0,3.647,0.214,7.245,0.615,10.786
	H152.238z M172.945,223.916l0.051-56.061h166.087v56.055c0,45.805-37.265,83.069-83.069,83.069S172.945,269.714,172.945,223.916z
	 M216.06,310.152c12.154,5.653,25.691,8.817,39.954,8.817c14.252,0,27.779-3.159,39.926-8.804v18.863l-39.926,21.393l-39.954-21.409
	V310.152z M193.121,334.239c0.475-0.884,1.073-1.368,2.001-1.653c1.009-0.299,1.789-0.225,2.671,0.243l47.644,25.529
	c-7.758,6.705-14.01,12.445-19.256,17.261c-7.721,7.088-15.703,14.415-18.078,14.415c-0.019,0-0.037,0-0.055-0.001
	c-2.25-0.682-7.349-10.461-12.28-19.918c-2.924-5.607-6.486-12.44-10.883-20.385L193.121,334.239z M191.511,499.991h-44.135v-26.392
	h44.135V499.991z M364.652,499.991h-44.135v-26.392h44.135V499.991z M411.055,499.991h-34.413v-32.387
	c0-3.312-2.684-5.995-5.995-5.995h-56.126c-3.311,0-5.995,2.684-5.995,5.995v32.387H203.502v-32.387
	c0-3.312-2.684-5.995-5.995-5.995h-56.126c-3.311,0-5.995,2.684-5.995,5.995v32.387h-34.44v-68.613
	c0-21.19,10.72-39.103,29.412-49.144l45.326-24.354c3.74,6.825,6.858,12.799,9.454,17.778c8.877,17.025,12.928,24.796,20.825,26.182
	c0.752,0.132,1.489,0.198,2.222,0.198c6.95,0,13.406-5.927,26.106-17.586c5.785-5.31,12.811-11.761,21.723-19.372
	c8.912,7.612,15.939,14.062,21.724,19.372c12.701,11.66,19.156,17.586,26.106,17.586c0.732,0,1.471-0.066,2.222-0.198
	c7.896-1.386,11.948-9.156,20.824-26.181c2.595-4.977,5.711-10.947,9.449-17.768l45.332,24.343
	c18.674,10.031,29.384,27.943,29.384,49.144V499.991z M217.08,202.31v9.553c0,3.312-2.684,5.995-5.995,5.995
	s-5.995-2.684-5.995-5.995v-9.553c0-3.312,2.684-5.995,5.995-5.995S217.08,198.999,217.08,202.31z M294.948,211.863v-9.553
	c0-3.312,2.684-5.995,5.995-5.995s5.995,2.684,5.995,5.995v9.553c0,3.312-2.684,5.995-5.995,5.995S294.948,215.174,294.948,211.863z
	 M290.271,252.937c0-3.312-2.684-5.995-5.995-5.995h-56.523c-3.311,0-5.995,2.684-5.995,5.995c0,18.889,15.368,34.256,34.257,34.256
	S290.271,271.826,290.271,252.937z M234.568,258.932h42.892c-2.624,9.375-11.245,16.271-21.446,16.271
	C245.813,275.203,237.192,268.307,234.568,258.932z M262.179,404.477c0,3.312-2.684,5.995-5.995,5.995h-0.368
	c-3.311,0-5.995-2.684-5.995-5.995s2.684-5.995,5.995-5.995h0.368C259.495,398.482,262.179,401.166,262.179,404.477z
	 M262.179,430.868c0,3.312-2.684,5.995-5.995,5.995h-0.368c-3.311,0-5.995-2.684-5.995-5.995s2.684-5.995,5.995-5.995h0.368
	C259.495,424.873,262.179,427.556,262.179,430.868z"></path>
</svg>
