<?xml version="1.0" encoding="UTF-8"?>
<svg xmlns:xlink="http://www.w3.org/1999/xlink" xmlns="http://www.w3.org/2000/svg" xml:space="preserve" style="max-height: 500px; background: transparent;" viewBox="726.665 221.66649999999998 540 540" y="0px" x="0px" id="Layer_1" version="1.1" width="540" height="540">

<g>
	<g>
		<g>
			<path d="M379.855,1332.546c5.315,9.207-1.503,23.094-15.228,31.019&#10;&#9;&#9;&#9;&#9;c-13.726,7.925-29.161,6.885-34.477-2.321c-5.315-9.207,1.502-23.095,15.228-31.019&#10;&#9;&#9;&#9;&#9;C359.104,1322.3,374.54,1323.34,379.855,1332.546z" style="fill:#043340;"/>
			<path d="M340.453,1346.375c-2.087-2.459-7.332-11.729-23.468-40.486l11.048-8.34&#10;&#9;&#9;&#9;&#9;c12.604,12.64,28.851,29.267,31.511,31.722C360,1329.69,340.453,1346.375,340.453,1346.375z" style="fill:#043340;"/>
			
				<ellipse ry="20.153" rx="20.153" cy="1297.48" cx="318.335" style="fill:#C7D8EA;" transform="matrix(0.9523 -0.3052 0.3052 0.9523 -380.7755 159.0441)"/>
			<path d="M318.335,1277.327c-1.607,0-3.169,0.188-4.667,0.544&#10;&#9;&#9;&#9;&#9;c8.879,2.105,15.485,10.086,15.485,19.609s-6.606,17.504-15.485,19.609c1.497,0.355,3.06,0.544,4.667,0.544&#10;&#9;&#9;&#9;&#9;c11.13,0,20.153-9.022,20.153-20.153S329.465,1277.327,318.335,1277.327z" style="opacity:0.46;fill:#A3B6BF;"/>
			<path d="M313.668,1317.09c20.86,4.081,32.663-22.223,16.826-35.004c-4.557-3.762-10.863-5.38-16.826-4.215&#10;&#9;&#9;&#9;&#9;c12.135-3.522,25.402,5.66,25.496,19.609C339.064,1311.281,325.912,1320.639,313.668,1317.09z" style="fill:#043340;"/>
			<path d="M318.335,1295.891c0,4.596-3.725,8.32-8.319,8.32c-4.595,0-8.32-3.725-8.32-8.32&#10;&#9;&#9;&#9;&#9;c0-4.594,3.725-8.318,8.32-8.318C314.61,1287.572,318.335,1291.297,318.335,1295.891z" style="opacity:0.46;fill:#C7D8EA;"/>
		</g>
		<g>
			<path d="M580.451,1335.114c-5.315,9.207,1.503,23.095,15.229,31.019&#10;&#9;&#9;&#9;&#9;c13.725,7.925,29.162,6.885,34.477-2.321c5.316-9.207-1.502-23.094-15.228-31.019&#10;&#9;&#9;&#9;&#9;C601.202,1324.868,585.766,1325.908,580.451,1335.114z" style="fill:#043340;"/>
			<path d="M619.854,1348.943c2.087-2.459,7.332-11.728,23.468-40.485l-11.048-8.34&#10;&#9;&#9;&#9;&#9;c-13.382,13.42-30.187,30.388-31.032,30.884C601.155,1331.053,619.854,1348.943,619.854,1348.943z" style="fill:#043340;"/>
			<path d="M621.818,1300.049c0,11.131,9.023,20.154,20.153,20.154c11.13,0,20.153-9.023,20.153-20.154&#10;&#9;&#9;&#9;&#9;c0-11.13-9.023-20.152-20.153-20.152C630.841,1279.896,621.818,1288.919,621.818,1300.049z" style="fill:#C7D8EA;"/>
			<path d="M641.971,1279.896c1.607,0,3.17,0.188,4.668,0.543&#10;&#9;&#9;&#9;&#9;c-8.879,2.106-15.486,10.087-15.486,19.609c0,9.524,6.607,17.505,15.486,19.61c-1.498,0.355-3.061,0.544-4.668,0.544&#10;&#9;&#9;&#9;&#9;c-11.13,0-20.153-9.023-20.153-20.154C621.818,1288.919,630.841,1279.896,641.971,1279.896z" style="opacity:0.46;fill:#A3B6BF;"/>
			<path d="M646.639,1319.659c-20.861,4.08-32.663-22.223-16.827-35.004&#10;&#9;&#9;&#9;&#9;c4.557-3.761,10.864-5.379,16.827-4.216c-12.136-3.521-25.403,5.661-25.497,19.609&#10;&#9;&#9;&#9;&#9;C621.243,1313.852,634.396,1323.207,646.639,1319.659z" style="fill:#043340;"/>
			<path d="M641.971,1298.461c0,4.594,3.726,8.318,8.319,8.318c4.596,0,8.32-3.725,8.32-8.318&#10;&#9;&#9;&#9;&#9;c0-4.596-3.725-8.32-8.32-8.32C645.696,1290.141,641.971,1293.865,641.971,1298.461z" style="opacity:0.46;fill:#C7D8EA;"/>
		</g>
		<g>
			<ellipse ry="95.314" rx="212.232" cy="1466.021" cx="478.576" style="fill:#043340;"/>
			<g>
				<path d="M666.033,1510.752c-3.764,3.176-7.917,6.243-12.43,9.192&#10;&#9;&#9;&#9;&#9;&#9;c10.995-31.626,15.758-66.741,14.606-96.768c3.468,3.089,6.571,6.274,9.287,9.545&#10;&#9;&#9;&#9;&#9;&#9;C677.398,1457.477,673.644,1484.815,666.033,1510.752z" style="fill:#A2BFDC;"/>
				<path d="M279.714,1432.651c2.729-3.278,5.848-6.47,9.332-9.566c-1.781,30.311,4.295,66.031,16.412,98.087&#10;&#9;&#9;&#9;&#9;&#9;c-4.699-2.971-9.029-6.067-12.96-9.275C284.009,1485.462,279.586,1457.658,279.714,1432.651z" style="fill:#A2BFDC;"/>
			</g>
		</g>
		<path d="M420.892,1601.034c39.31-5.454,79.192-6.294,118.825-2.442&#10;&#9;&#9;&#9;c91.152,8.857,123.591-127.671,110.592-196.387c-6.627-35.037-45.677-60.147-78.649-67.945&#10;&#9;&#9;&#9;c-59.756-14.133-123.593-15.025-183.657-2.417c-32.229,6.864-64.107,28.728-76.657,60.15&#10;&#9;&#9;&#9;C285.133,1457.64,331.853,1613.388,420.892,1601.034z" style="fill:#A2BFDC;"/>
		<path d="M311.346,1391.993c6.203-15.532,17.129-28.729,30.485-38.932&#10;&#9;&#9;&#9;c-4.485,5.975-8.226,12.48-11.013,19.458c-26.212,65.646,20.506,221.396,109.546,209.041c39.31-5.454,79.192-6.293,118.825-2.441&#10;&#9;&#9;&#9;c21.624,2.103,39.944-3.979,55.136-15.396c-18.08,23.31-42.76,37.964-74.609,34.869c-39.633-3.852-79.515-3.014-118.825,2.442&#10;&#9;&#9;&#9;C331.853,1613.388,285.133,1457.64,311.346,1391.993z" style="opacity:0.46;fill:#A3B6BF;"/>
		<path d="M559.563,1386.209c-53.857-4.187-107.958-4.187-161.817,0&#10;&#9;&#9;&#9;c-86.365,6.712-116.099,149.459,40.109,170.858c49.553,6.788,109.055,3.237,152.483-23.671&#10;&#9;&#9;&#9;C658.341,1491.262,634.099,1392.001,559.563,1386.209z" style="fill:#C7D8EA;"/>
		<path d="M481.121,1557.694c-14.148,0-28.597-0.997-42.946-2.963&#10;&#9;&#9;&#9;c-82.045-11.24-110.097-55.566-108.991-93.303c1.13-38.585,30.685-69.911,68.746-72.87c26.74-2.078,53.902-3.133,80.724-3.133&#10;&#9;&#9;&#9;c0,0,0,0,0.003,0c26.822,0,53.982,1.055,80.725,3.133c32.568,2.53,58.624,24.777,66.382,56.674&#10;&#9;&#9;&#9;c8.145,33.492-6.247,67.312-36.667,86.158c-35.085,21.74-78.08,26.304-107.972,26.304&#10;&#9;&#9;&#9;C481.122,1557.694,481.122,1557.694,481.121,1557.694z" style="fill:#043340;"/>
		<g style="opacity:0.34;">
			<path d="M493.641,1351.599c0.919,8.174,25.659,12.101,54.79,15.869c29.165,3.504,54.11,5.773,57.01-1.923&#10;&#9;&#9;&#9;&#9;c2.941-7.491-20.293-23.261-53.361-27.324C519.028,1334.036,492.63,1343.614,493.641,1351.599z" style="fill:#A2BFDC;"/>
		</g>
		<g>
			<path d="M488.578,1425.987c0,4.685-3.799,8.483-8.484,8.483c-4.686,0-8.485-3.799-8.485-8.483&#10;&#9;&#9;&#9;&#9;c0-4.686,3.799-8.484,8.485-8.484C484.779,1417.503,488.578,1421.302,488.578,1425.987z" style="fill:#00FF00;"/>
			<path d="M468.004,1430.41c0,4.407-3.572,7.979-7.978,7.979c-4.406,0-7.979-3.572-7.979-7.979&#10;&#9;&#9;&#9;&#9;c0-4.406,3.572-7.978,7.979-7.978C464.433,1422.433,468.004,1426.004,468.004,1430.41z" style="fill:#00FF00;"/>
			<path d="M451.641,1442.357c0,4.128-3.346,7.474-7.473,7.474c-4.127,0-7.473-3.346-7.473-7.474&#10;&#9;&#9;&#9;&#9;c0-4.126,3.346-7.472,7.473-7.472C448.295,1434.886,451.641,1438.231,451.641,1442.357z" style="fill:#00FF00;"/>
			<path d="M441.475,1459.841c0,3.848-3.12,6.967-6.967,6.967c-3.849,0-6.968-3.119-6.968-6.967&#10;&#9;&#9;&#9;&#9;c0-3.849,3.119-6.967,6.968-6.967C438.355,1452.874,441.475,1455.992,441.475,1459.841z" style="fill:#00FF00;"/>
			<path d="M439.47,1480.622c0,3.568-2.893,6.462-6.462,6.462c-3.569,0-6.461-2.894-6.461-6.462&#10;&#9;&#9;&#9;&#9;c0-3.567,2.893-6.461,6.461-6.461C436.577,1474.161,439.47,1477.055,439.47,1480.622z" style="fill:#00FF00;"/>
			<path d="M446.117,1499.508c0,3.289-2.666,5.955-5.956,5.955c-3.289,0-5.956-2.666-5.956-5.955&#10;&#9;&#9;&#9;&#9;s2.667-5.956,5.956-5.956C443.451,1493.552,446.117,1496.219,446.117,1499.508z" style="fill:#00FF00;"/>
			<path d="M459.625,1513.521c0,3.01-2.44,5.45-5.451,5.45c-3.01,0-5.449-2.44-5.449-5.45&#10;&#9;&#9;&#9;&#9;s2.439-5.45,5.449-5.45C457.185,1508.07,459.625,1510.511,459.625,1513.521z" style="fill:#00FF00;"/>
			<path d="M478.004,1520.674c0,2.729-2.214,4.944-4.944,4.944c-2.731,0-4.945-2.215-4.945-4.944&#10;&#9;&#9;&#9;&#9;c0-2.731,2.214-4.945,4.945-4.945C475.79,1515.729,478.004,1517.942,478.004,1520.674z" style="fill:#00FF00;"/>
			<path d="M498.28,1519.174c0,2.451-1.987,4.438-4.439,4.438c-2.452,0-4.439-1.987-4.439-4.438&#10;&#9;&#9;&#9;&#9;c0-2.452,1.987-4.439,4.439-4.439C496.293,1514.734,498.28,1516.722,498.28,1519.174z" style="fill:#00FF00;"/>
			<path d="M515.257,1509.515c0,2.171-1.761,3.932-3.934,3.932c-2.172,0-3.933-1.761-3.933-3.932&#10;&#9;&#9;&#9;&#9;c0-2.173,1.761-3.934,3.933-3.934C513.496,1505.581,515.257,1507.342,515.257,1509.515z" style="fill:#00FF00;"/>
			<path d="M526.698,1493.655c0,1.894-1.534,3.429-3.427,3.429c-1.893,0-3.428-1.535-3.428-3.429&#10;&#9;&#9;&#9;&#9;c0-1.893,1.535-3.427,3.428-3.427C525.164,1490.229,526.698,1491.763,526.698,1493.655z" style="fill:#00FF00;"/>
			<path d="M530.617,1473.589c0,1.613-1.308,2.921-2.922,2.921c-1.613,0-2.921-1.308-2.921-2.921&#10;&#9;&#9;&#9;&#9;c0-1.615,1.308-2.923,2.921-2.923C529.309,1470.666,530.617,1471.974,530.617,1473.589z" style="fill:#00FF00;"/>
		</g>
	</g>
	<g>
		<g>
			<path d="M1426.809,1332.64c5.316,9.207-1.502,23.095-15.228,31.02&#10;&#9;&#9;&#9;&#9;c-13.727,7.924-29.161,6.886-34.478-2.321c-5.315-9.207,1.503-23.095,15.229-31.02&#10;&#9;&#9;&#9;&#9;C1406.057,1322.395,1421.493,1323.434,1426.809,1332.64z" style="fill:#043340;"/>
			<path d="M1387.407,1346.469c-2.088-2.459-7.333-11.729-23.47-40.485l11.049-8.341&#10;&#9;&#9;&#9;&#9;c13.381,13.422,30.187,30.389,31.031,30.884C1406.104,1328.578,1387.407,1346.469,1387.407,1346.469z" style="fill:#043340;"/>
			<path d="M1385.442,1297.576c0,11.129-9.022,20.151-20.153,20.151s-20.153-9.022-20.153-20.151&#10;&#9;&#9;&#9;&#9;c0-11.131,9.022-20.154,20.153-20.154S1385.442,1286.445,1385.442,1297.576z" style="fill:#C7D8EA;"/>
			<path d="M1365.289,1277.422c-1.607,0-3.17,0.189-4.668,0.543&#10;&#9;&#9;&#9;&#9;c8.88,2.106,15.486,10.087,15.486,19.611c0,9.521-6.606,17.502-15.486,19.608c1.498,0.355,3.061,0.543,4.668,0.543&#10;&#9;&#9;&#9;&#9;c11.131,0,20.153-9.022,20.153-20.151C1385.442,1286.445,1376.42,1277.422,1365.289,1277.422z" style="opacity:0.46;fill:#A3B6BF;"/>
			<path d="M1360.621,1317.185c20.861,4.08,32.663-22.223,16.828-35.005&#10;&#9;&#9;&#9;&#9;c-4.558-3.76-10.864-5.379-16.828-4.215c12.136-3.521,25.402,5.661,25.496,19.611&#10;&#9;&#9;&#9;&#9;C1386.018,1311.377,1372.865,1320.733,1360.621,1317.185z" style="fill:#043340;"/>
			<path d="M1365.289,1295.986c0,4.596-3.725,8.32-8.32,8.32c-4.594,0-8.318-3.725-8.318-8.32&#10;&#9;&#9;&#9;&#9;c0-4.594,3.725-8.319,8.318-8.319C1361.564,1287.667,1365.289,1291.393,1365.289,1295.986z" style="opacity:0.46;fill:#C7D8EA;"/>
			<path d="M1627.404,1335.21c-5.315,9.206,1.502,23.093,15.229,31.019&#10;&#9;&#9;&#9;&#9;c13.726,7.923,29.16,6.885,34.476-2.322c5.315-9.206-1.502-23.095-15.227-31.018&#10;&#9;&#9;&#9;&#9;C1648.156,1324.963,1632.72,1326.003,1627.404,1335.21z" style="fill:#043340;"/>
			<path d="M1666.808,1349.038c2.086-2.459,7.332-11.729,23.469-40.486l-11.049-8.34&#10;&#9;&#9;&#9;&#9;c-13.382,13.421-30.188,30.39-31.031,30.884C1648.109,1331.146,1666.808,1349.038,1666.808,1349.038z" style="fill:#043340;"/>
			<path d="M1668.771,1300.145c0,11.13,9.022,20.153,20.153,20.153c11.13,0,20.153-9.023,20.153-20.153&#10;&#9;&#9;&#9;&#9;c0-11.131-9.023-20.154-20.153-20.154C1677.794,1279.99,1668.771,1289.014,1668.771,1300.145z" style="fill:#C7D8EA;"/>
			<path d="M1688.925,1279.99c1.606,0,3.169,0.189,4.668,0.545&#10;&#9;&#9;&#9;&#9;c-8.881,2.104-15.485,10.085-15.485,19.609c0,9.523,6.604,17.504,15.485,19.609c-1.499,0.354-3.062,0.544-4.668,0.544&#10;&#9;&#9;&#9;&#9;c-11.131,0-20.153-9.023-20.153-20.153C1668.771,1289.014,1677.794,1279.99,1688.925,1279.99z" style="opacity:0.46;fill:#A3B6BF;"/>
			<path d="M1693.593,1319.754c-20.86,4.081-32.663-22.223-16.828-35.005&#10;&#9;&#9;&#9;&#9;c4.559-3.761,10.864-5.379,16.828-4.214c-12.136-3.522-25.403,5.659-25.497,19.609&#10;&#9;&#9;&#9;&#9;C1668.196,1313.945,1681.349,1323.303,1693.593,1319.754z" style="fill:#043340;"/>
			<path d="M1688.925,1298.555c0,4.596,3.725,8.32,8.319,8.32s8.319-3.725,8.319-8.32&#10;&#9;&#9;&#9;&#9;c0-4.594-3.725-8.318-8.319-8.318S1688.925,1293.961,1688.925,1298.555z" style="opacity:0.46;fill:#C7D8EA;"/>
		</g>
		<g>
			<ellipse ry="95.314" rx="212.233" cy="1466.021" cx="1525.214" style="fill:#043340;"/>
			<path d="M1712.671,1510.752c-3.765,3.176-7.917,6.243-12.43,9.192&#10;&#9;&#9;&#9;&#9;c10.994-31.626,15.758-66.741,14.605-96.768c3.468,3.089,6.572,6.274,9.287,9.545&#10;&#9;&#9;&#9;&#9;C1724.037,1457.477,1720.282,1484.815,1712.671,1510.752z" style="fill:#A2BFDC;"/>
			<path d="M1326.352,1432.651c2.729-3.278,5.849-6.47,9.333-9.566c-1.781,30.311,4.294,66.031,16.411,98.087&#10;&#9;&#9;&#9;&#9;c-4.699-2.971-9.029-6.067-12.96-9.275C1330.647,1485.462,1326.224,1457.658,1326.352,1432.651z" style="fill:#A2BFDC;"/>
		</g>
		<path d="M1467.531,1601.034c39.309-5.454,79.19-6.294,118.824-2.442&#10;&#9;&#9;&#9;c91.152,8.857,123.59-127.671,110.592-196.387c-6.627-35.037-45.678-60.147-78.649-67.945&#10;&#9;&#9;&#9;c-59.756-14.133-123.593-15.025-183.656-2.417c-32.229,6.864-64.107,28.728-76.657,60.15&#10;&#9;&#9;&#9;C1331.771,1457.64,1378.491,1613.388,1467.531,1601.034z" style="fill:#A2BFDC;"/>
		<path d="M1357.984,1391.993c6.203-15.532,17.13-28.729,30.485-38.932&#10;&#9;&#9;&#9;c-4.484,5.975-8.227,12.48-11.013,19.458c-26.212,65.646,20.506,221.396,109.546,209.041c39.311-5.454,79.192-6.293,118.825-2.441&#10;&#9;&#9;&#9;c21.624,2.103,39.943-3.979,55.137-15.396c-18.08,23.31-42.761,37.964-74.609,34.869c-39.634-3.852-79.516-3.014-118.824,2.442&#10;&#9;&#9;&#9;C1378.491,1613.388,1331.771,1457.64,1357.984,1391.993z" style="opacity:0.46;fill:#A3B6BF;"/>
		<path d="M1606.202,1386.209c-53.856-4.187-107.96-4.187-161.817,0&#10;&#9;&#9;&#9;c-86.364,6.712-116.1,149.459,40.108,170.858c49.552,6.788,109.055,3.237,152.483-23.671&#10;&#9;&#9;&#9;C1704.979,1491.262,1680.736,1392.001,1606.202,1386.209z" style="fill:#C7D8EA;"/>
		<path d="M1527.759,1557.694c-14.148,0-28.597-0.997-42.945-2.963&#10;&#9;&#9;&#9;c-82.045-11.24-110.097-55.566-108.991-93.303c1.13-38.585,30.686-69.911,68.746-72.87c26.74-2.078,53.901-3.133,80.724-3.133&#10;&#9;&#9;&#9;c0,0,0,0,0.003,0c26.821,0,53.982,1.055,80.725,3.133c32.568,2.53,58.624,24.777,66.381,56.674&#10;&#9;&#9;&#9;c8.146,33.492-6.247,67.312-36.667,86.158c-35.083,21.74-78.079,26.304-107.971,26.304&#10;&#9;&#9;&#9;C1527.76,1557.694,1527.76,1557.694,1527.759,1557.694z" style="fill:#043340;"/>
		<g style="opacity:0.34;">
			<path d="M1540.279,1351.599c0.92,8.174,25.659,12.101,54.791,15.869&#10;&#9;&#9;&#9;&#9;c29.163,3.504,54.109,5.773,57.008-1.923c2.942-7.491-20.292-23.261-53.36-27.324&#10;&#9;&#9;&#9;&#9;C1565.666,1334.036,1539.269,1343.614,1540.279,1351.599z" style="fill:#A2BFDC;"/>
		</g>
		<path d="M1590.052,1507.701l-50.29-87.105c-3.457-5.986-12.097-5.986-15.553,0l-50.291,87.105&#10;&#9;&#9;&#9;c-3.457,5.987,0.864,13.471,7.775,13.471h100.581C1589.188,1521.172,1593.508,1513.688,1590.052,1507.701z M1539.777,1502.216&#10;&#9;&#9;&#9;h-8.955v-6.733h8.955V1502.216z M1539.777,1461.941l-2.216,26.808h-4.522l-2.217-26.808v-10.058h8.955V1461.941z" style="fill:#F22E47;"/>
	</g>
	<g>
		<g>
			<path d="M903.174,1332.578c5.315,9.206-1.502,23.093-15.227,31.018&#10;&#9;&#9;&#9;&#9;c-13.726,7.926-29.162,6.886-34.477-2.321c-5.316-9.206,1.503-23.095,15.228-31.019&#10;&#9;&#9;&#9;&#9;C882.423,1322.331,897.858,1323.371,903.174,1332.578z" style="fill:#043340;"/>
			<path d="M863.772,1346.406c-2.087-2.459-7.332-11.729-23.469-40.485l11.049-8.34&#10;&#9;&#9;&#9;&#9;c13.382,13.42,30.187,30.388,31.031,30.884C882.47,1328.515,863.772,1346.406,863.772,1346.406z" style="fill:#043340;"/>
			<path d="M861.807,1297.512c0,11.131-9.023,20.154-20.153,20.154c-11.13,0-20.153-9.023-20.153-20.154&#10;&#9;&#9;&#9;&#9;c0-11.13,9.023-20.153,20.153-20.153C852.784,1277.358,861.807,1286.382,861.807,1297.512z" style="fill:#C7D8EA;"/>
			<path d="M841.654,1277.358c-1.606,0-3.169,0.189-4.668,0.545&#10;&#9;&#9;&#9;&#9;c8.88,2.104,15.486,10.085,15.486,19.608c0,9.524-6.606,17.505-15.486,19.609c1.499,0.355,3.061,0.545,4.668,0.545&#10;&#9;&#9;&#9;&#9;c11.13,0,20.153-9.023,20.153-20.154C861.807,1286.382,852.784,1277.358,841.654,1277.358z" style="opacity:0.46;fill:#A3B6BF;"/>
			<path d="M836.986,1317.121c20.861,4.082,32.664-22.223,16.827-35.004&#10;&#9;&#9;&#9;&#9;c-4.557-3.761-10.863-5.379-16.827-4.214c12.135-3.522,25.402,5.659,25.497,19.608&#10;&#9;&#9;&#9;&#9;C862.383,1311.313,849.23,1320.67,836.986,1317.121z" style="fill:#043340;"/>
			<path d="M841.654,1295.923c0,4.596-3.725,8.32-8.319,8.32c-4.595,0-8.319-3.725-8.319-8.32&#10;&#9;&#9;&#9;&#9;c0-4.595,3.725-8.319,8.319-8.319C837.929,1287.604,841.654,1291.328,841.654,1295.923z" style="opacity:0.46;fill:#C7D8EA;"/>
		</g>
		<g>
			<path d="M1103.771,1335.146c-5.315,9.206,1.502,23.095,15.228,31.019&#10;&#9;&#9;&#9;&#9;c13.726,7.925,29.162,6.885,34.478-2.322c5.315-9.206-1.503-23.093-15.229-31.018&#10;&#9;&#9;&#9;&#9;C1124.521,1324.899,1109.086,1325.939,1103.771,1335.146z" style="fill:#043340;"/>
			<path d="M1143.173,1348.975c2.087-2.459,7.331-11.728,23.468-40.485l-11.048-8.34&#10;&#9;&#9;&#9;&#9;c-13.382,13.421-30.188,30.388-31.032,30.884C1124.474,1331.085,1143.173,1348.975,1143.173,1348.975z" style="fill:#043340;"/>
			<path d="M1145.138,1300.081c0,11.13,9.022,20.153,20.153,20.153c11.129,0,20.152-9.023,20.152-20.153&#10;&#9;&#9;&#9;&#9;c0-11.131-9.023-20.152-20.152-20.152C1154.16,1279.929,1145.138,1288.95,1145.138,1300.081z" style="fill:#C7D8EA;"/>
			<path d="M1165.291,1279.929c1.606,0,3.168,0.188,4.667,0.543&#10;&#9;&#9;&#9;&#9;c-8.88,2.106-15.486,10.085-15.486,19.609c0,9.523,6.606,17.504,15.486,19.61c-1.499,0.355-3.061,0.543-4.667,0.543&#10;&#9;&#9;&#9;&#9;c-11.131,0-20.153-9.023-20.153-20.153C1145.138,1288.95,1154.16,1279.929,1165.291,1279.929z" style="opacity:0.46;fill:#A3B6BF;"/>
			<path d="M1169.958,1319.691c-20.861,4.08-32.664-22.223-16.827-35.005&#10;&#9;&#9;&#9;&#9;c4.558-3.761,10.863-5.379,16.827-4.215c-12.137-3.521-25.402,5.66-25.497,19.609&#10;&#9;&#9;&#9;&#9;C1144.562,1313.883,1157.715,1323.239,1169.958,1319.691z" style="fill:#043340;"/>
			<path d="M1165.291,1298.492c0,4.595,3.725,8.319,8.318,8.319c4.596,0,8.32-3.725,8.32-8.319&#10;&#9;&#9;&#9;&#9;s-3.725-8.319-8.32-8.319C1169.016,1290.173,1165.291,1293.897,1165.291,1298.492z" style="opacity:0.46;fill:#C7D8EA;"/>
		</g>
		<g>
			<ellipse ry="95.314" rx="212.233" cy="1466.021" cx="1001.895" style="fill:#043340;"/>
			<g>
				<path d="M1189.353,1510.752c-3.766,3.176-7.918,6.243-12.431,9.192&#10;&#9;&#9;&#9;&#9;&#9;c10.994-31.626,15.758-66.741,14.605-96.768c3.469,3.089,6.572,6.274,9.287,9.545&#10;&#9;&#9;&#9;&#9;&#9;C1200.718,1457.477,1196.963,1484.815,1189.353,1510.752z" style="fill:#A2BFDC;"/>
				<path d="M803.034,1432.651c2.728-3.278,5.847-6.47,9.332-9.566c-1.781,30.311,4.294,66.031,16.412,98.087&#10;&#9;&#9;&#9;&#9;&#9;c-4.7-2.971-9.03-6.067-12.96-9.275C807.328,1485.462,802.905,1457.658,803.034,1432.651z" style="fill:#A2BFDC;"/>
			</g>
		</g>
		<path d="M944.211,1601.034c39.31-5.454,79.191-6.294,118.826-2.442&#10;&#9;&#9;&#9;c91.151,8.857,123.59-127.671,110.591-196.387c-6.627-35.037-45.678-60.147-78.649-67.945&#10;&#9;&#9;&#9;c-59.756-14.133-123.592-15.025-183.656-2.417c-32.229,6.864-64.107,28.728-76.657,60.15&#10;&#9;&#9;&#9;C808.453,1457.64,855.172,1613.388,944.211,1601.034z" style="fill:#A2BFDC;"/>
		<path d="M834.666,1391.993c6.203-15.532,17.129-28.729,30.485-38.932&#10;&#9;&#9;&#9;c-4.486,5.975-8.226,12.48-11.013,19.458c-26.212,65.646,20.506,221.396,109.546,209.041c39.31-5.454,79.192-6.293,118.825-2.441&#10;&#9;&#9;&#9;c21.624,2.103,39.943-3.979,55.137-15.396c-18.079,23.31-42.761,37.964-74.61,34.869c-39.633-3.852-79.514-3.014-118.824,2.442&#10;&#9;&#9;&#9;C855.172,1613.388,808.453,1457.64,834.666,1391.993z" style="opacity:0.46;fill:#A3B6BF;"/>
		<path d="M1082.883,1386.209c-53.857-4.187-107.959-4.187-161.817,0&#10;&#9;&#9;&#9;c-86.365,6.712-116.099,149.459,40.109,170.858c49.553,6.788,109.054,3.237,152.483-23.671&#10;&#9;&#9;&#9;C1181.66,1491.262,1157.417,1392.001,1082.883,1386.209z" style="fill:#C7D8EA;"/>
		<path d="M1004.44,1557.694c-14.148,0-28.596-0.997-42.945-2.963&#10;&#9;&#9;&#9;c-82.045-11.24-110.097-55.566-108.991-93.303c1.13-38.585,30.685-69.911,68.746-72.87c26.74-2.078,53.902-3.133,80.724-3.133&#10;&#9;&#9;&#9;c0,0,0,0,0.003,0c26.821,0,53.981,1.055,80.725,3.133c32.568,2.53,58.624,24.777,66.381,56.674&#10;&#9;&#9;&#9;c8.146,33.492-6.247,67.312-36.665,86.158c-35.086,21.74-78.081,26.304-107.973,26.304&#10;&#9;&#9;&#9;C1004.44,1557.694,1004.44,1557.694,1004.44,1557.694z" style="fill:#043340;"/>
		<g style="opacity:0.34;">
			<path d="M1016.96,1351.599c0.92,8.174,25.659,12.101,54.791,15.869&#10;&#9;&#9;&#9;&#9;c29.163,3.504,54.108,5.773,57.009-1.923c2.941-7.491-20.293-23.261-53.361-27.324&#10;&#9;&#9;&#9;&#9;C1042.347,1334.036,1015.949,1343.614,1016.96,1351.599z" style="fill:#A2BFDC;"/>
		</g>
		<g>
			<rect height="14.245" width="18.605" style="fill:#00FF00;" y="1510.553" x="992.598"/>
			<polygon points="990.907,1418.323 990.907,1439.599 996.349,1496.31 1007.455,1496.31 1012.894,1439.599 &#10;&#9;&#9;&#9;&#9;1012.894,1418.323" style="fill:#00FF00;"/>
		</g>
	</g>
</g>
<g>
	<g>
		<path d="M903.174,388.975c5.315,9.206-1.502,23.094-15.227,31.019c-13.726,7.925-29.162,6.886-34.477-2.321&#10;&#9;&#9;&#9;c-5.316-9.207,1.503-23.095,15.228-31.019C882.423,378.729,897.858,379.769,903.174,388.975z" style="fill:#043340;"/>
		<path d="M863.772,402.804c-2.087-2.459-7.332-11.728-23.469-40.485l11.049-8.34&#10;&#9;&#9;&#9;c13.382,13.421,30.187,30.388,31.031,30.883C882.47,384.913,863.772,402.804,863.772,402.804z" style="fill:#043340;"/>
		<path d="M861.807,353.91c0,11.13-9.023,20.153-20.153,20.153c-11.13,0-20.153-9.023-20.153-20.153&#10;&#9;&#9;&#9;c0-11.13,9.023-20.153,20.153-20.153C852.784,333.757,861.807,342.78,861.807,353.91z" style="fill:#C7D8EA;"/>
		<path d="M841.654,333.757c-1.606,0-3.169,0.189-4.668,0.544&#10;&#9;&#9;&#9;c8.88,2.105,15.486,10.086,15.486,19.609c0,9.523-6.606,17.504-15.486,19.609c1.499,0.355,3.061,0.543,4.668,0.543&#10;&#9;&#9;&#9;c11.13,0,20.153-9.023,20.153-20.153C861.807,342.78,852.784,333.757,841.654,333.757z" style="opacity:0.46;fill:#A3B6BF;"/>
		<path d="M836.986,373.52c20.861,4.081,32.664-22.223,16.827-35.005c-4.557-3.76-10.863-5.379-16.827-4.214&#10;&#9;&#9;&#9;c12.135-3.522,25.402,5.66,25.497,19.609C862.383,367.711,849.23,377.068,836.986,373.52z" style="fill:#043340;"/>
		<path d="M841.654,352.321c0,4.595-3.725,8.32-8.319,8.32c-4.595,0-8.319-3.726-8.319-8.32&#10;&#9;&#9;&#9;c0-4.595,3.725-8.319,8.319-8.319C837.929,344.001,841.654,347.726,841.654,352.321z" style="opacity:0.46;fill:#C7D8EA;"/>
	</g>
	<g>
		<path d="M1103.771,391.544c-5.315,9.207,1.502,23.094,15.228,31.019&#10;&#9;&#9;&#9;c13.726,7.924,29.162,6.885,34.478-2.322s-1.503-23.094-15.229-31.019C1124.521,381.298,1109.086,382.338,1103.771,391.544z" style="fill:#043340;"/>
		<path d="M1143.173,405.372c2.087-2.458,7.331-11.728,23.468-40.485l-11.048-8.34&#10;&#9;&#9;&#9;c-13.382,13.421-30.188,30.389-31.032,30.884C1124.474,387.481,1143.173,405.372,1143.173,405.372z" style="fill:#043340;"/>
		<path d="M1145.138,356.479c0,11.13,9.022,20.153,20.153,20.153c11.129,0,20.152-9.023,20.152-20.153&#10;&#9;&#9;&#9;c0-11.13-9.023-20.153-20.152-20.153C1154.16,336.326,1145.138,345.349,1145.138,356.479z" style="fill:#C7D8EA;"/>
		<path d="M1165.291,336.326c1.606,0,3.168,0.188,4.667,0.543&#10;&#9;&#9;&#9;c-8.88,2.106-15.486,10.087-15.486,19.61c0,9.524,6.606,17.503,15.486,19.61c-1.499,0.354-3.061,0.543-4.667,0.543&#10;&#9;&#9;&#9;c-11.131,0-20.153-9.023-20.153-20.153C1145.138,345.349,1154.16,336.326,1165.291,336.326z" style="opacity:0.46;fill:#A3B6BF;"/>
		<path d="M1169.958,376.089c-20.861,4.08-32.664-22.223-16.827-35.005c4.558-3.76,10.863-5.379,16.827-4.215&#10;&#9;&#9;&#9;c-12.137-3.521-25.402,5.66-25.497,19.61C1144.562,370.28,1157.715,379.637,1169.958,376.089z" style="fill:#043340;"/>
		<path d="M1165.291,354.89c0,4.595,3.725,8.319,8.318,8.319c4.596,0,8.32-3.725,8.32-8.319&#10;&#9;&#9;&#9;c0-4.595-3.725-8.319-8.32-8.319C1169.016,346.571,1165.291,350.295,1165.291,354.89z" style="opacity:0.46;fill:#C7D8EA;"/>
	</g>
	<g>
		<g>
			<g>
				<path d="M379.855,388.943c5.315,9.207-1.503,23.094-15.228,31.019&#10;&#9;&#9;&#9;&#9;&#9;c-13.726,7.924-29.161,6.885-34.477-2.321c-5.315-9.207,1.502-23.094,15.228-31.019&#10;&#9;&#9;&#9;&#9;&#9;C359.104,378.698,374.54,379.737,379.855,388.943z" style="fill:#043340;"/>
				<path d="M340.453,402.772c-2.087-2.459-7.332-11.729-23.468-40.485l11.048-8.34&#10;&#9;&#9;&#9;&#9;&#9;c12.604,12.64,28.851,29.267,31.511,31.721C360,386.089,340.453,402.772,340.453,402.772z" style="fill:#043340;"/>
				<path d="M338.488,353.879c0,11.129-9.023,20.152-20.153,20.152c-11.13,0-20.153-9.023-20.153-20.152&#10;&#9;&#9;&#9;&#9;&#9;c0-11.131,9.023-20.154,20.153-20.154C329.465,333.725,338.488,342.748,338.488,353.879z" style="fill:#C7D8EA;"/>
				<path d="M318.335,333.725c-1.607,0-3.169,0.188-4.667,0.544&#10;&#9;&#9;&#9;&#9;&#9;c8.879,2.105,15.485,10.086,15.485,19.61c0,9.523-6.606,17.503-15.485,19.609c1.497,0.355,3.06,0.543,4.667,0.543&#10;&#9;&#9;&#9;&#9;&#9;c11.13,0,20.153-9.023,20.153-20.152C338.488,342.748,329.465,333.725,318.335,333.725z" style="opacity:0.46;fill:#A3B6BF;"/>
				<path d="M313.668,373.488c20.86,4.081,32.663-22.223,16.826-35.004&#10;&#9;&#9;&#9;&#9;&#9;c-4.557-3.761-10.863-5.379-16.826-4.215c12.135-3.521,25.402,5.66,25.496,19.61&#10;&#9;&#9;&#9;&#9;&#9;C339.064,367.68,325.912,377.037,313.668,373.488z" style="fill:#043340;"/>
				<path d="M318.335,352.29c0,4.595-3.725,8.319-8.319,8.319c-4.595,0-8.32-3.725-8.32-8.319&#10;&#9;&#9;&#9;&#9;&#9;c0-4.595,3.725-8.32,8.32-8.32C314.61,343.97,318.335,347.695,318.335,352.29z" style="opacity:0.46;fill:#C7D8EA;"/>
			</g>
			<g>
				<path d="M580.451,391.512c-5.315,9.207,1.503,23.094,15.229,31.019&#10;&#9;&#9;&#9;&#9;&#9;c13.725,7.924,29.162,6.885,34.477-2.322c5.316-9.207-1.502-23.094-15.228-31.018&#10;&#9;&#9;&#9;&#9;&#9;C601.202,381.266,585.766,382.306,580.451,391.512z" style="fill:#043340;"/>
				<path d="M619.854,405.34c2.087-2.458,7.332-11.728,23.468-40.485l-11.048-8.34&#10;&#9;&#9;&#9;&#9;&#9;c-13.382,13.421-30.187,30.389-31.032,30.884C601.155,387.45,619.854,405.34,619.854,405.34z" style="fill:#043340;"/>
				<path d="M621.818,356.447c0,11.13,9.023,20.153,20.153,20.153c11.13,0,20.153-9.023,20.153-20.153&#10;&#9;&#9;&#9;&#9;&#9;c0-11.13-9.023-20.153-20.153-20.153C630.841,336.294,621.818,345.317,621.818,356.447z" style="fill:#C7D8EA;"/>
				<path d="M641.971,336.294c1.607,0,3.17,0.188,4.668,0.543&#10;&#9;&#9;&#9;&#9;&#9;c-8.879,2.105-15.486,10.086-15.486,19.609c0,9.524,6.607,17.503,15.486,19.61c-1.498,0.355-3.061,0.543-4.668,0.543&#10;&#9;&#9;&#9;&#9;&#9;c-11.13,0-20.153-9.023-20.153-20.153C621.818,345.317,630.841,336.294,641.971,336.294z" style="opacity:0.46;fill:#A3B6BF;"/>
				<path d="M646.639,376.057c-20.861,4.08-32.663-22.223-16.827-35.005&#10;&#9;&#9;&#9;&#9;&#9;c4.557-3.76,10.864-5.379,16.827-4.214c-12.136-3.522-25.403,5.66-25.497,19.609&#10;&#9;&#9;&#9;&#9;&#9;C621.243,370.249,634.396,379.605,646.639,376.057z" style="fill:#043340;"/>
				<path d="M641.971,354.858c0,4.595,3.726,8.319,8.319,8.319c4.596,0,8.32-3.725,8.32-8.319&#10;&#9;&#9;&#9;&#9;&#9;s-3.725-8.319-8.32-8.319C645.696,346.539,641.971,350.264,641.971,354.858z" style="opacity:0.46;fill:#C7D8EA;"/>
			</g>
			<g>
				<g>
					<ellipse ry="95.314" rx="212.232" cy="522.419" cx="478.576" style="fill:#043340;"/>
					<g>
						<path d="M666.033,567.15c-3.764,3.175-7.917,6.244-12.43,9.193&#10;&#9;&#9;&#9;&#9;&#9;&#9;&#9;c10.995-31.627,15.758-66.742,14.606-96.769c3.468,3.089,6.571,6.274,9.287,9.545&#10;&#9;&#9;&#9;&#9;&#9;&#9;&#9;C677.398,513.875,673.644,541.214,666.033,567.15z" style="fill:#A2BFDC;"/>
						<path d="M279.714,489.049c2.729-3.278,5.848-6.47,9.332-9.566c-1.781,30.31,4.295,66.032,16.412,98.086&#10;&#9;&#9;&#9;&#9;&#9;&#9;&#9;c-4.699-2.97-9.029-6.066-12.96-9.275C284.009,541.86,279.586,514.056,279.714,489.049z" style="fill:#A2BFDC;"/>
					</g>
				</g>
				<path d="M420.892,657.432c39.31-5.455,79.192-6.293,118.825-2.441&#10;&#9;&#9;&#9;&#9;&#9;c91.152,8.857,123.591-127.672,110.592-196.387c-6.627-35.039-45.677-60.147-78.649-67.946&#10;&#9;&#9;&#9;&#9;&#9;c-59.756-14.133-123.593-15.025-183.657-2.417c-32.229,6.864-64.107,28.728-76.657,60.15&#10;&#9;&#9;&#9;&#9;&#9;C285.133,514.038,331.853,669.786,420.892,657.432z" style="fill:#A2BFDC;"/>
				<path d="M311.346,448.391c6.203-15.532,17.129-28.728,30.485-38.932&#10;&#9;&#9;&#9;&#9;&#9;c-4.485,5.976-8.226,12.481-11.013,19.458c-26.212,65.647,20.506,221.396,109.546,209.041&#10;&#9;&#9;&#9;&#9;&#9;c39.31-5.454,79.192-6.292,118.825-2.441c21.624,2.102,39.944-3.98,55.136-15.397c-18.08,23.309-42.76,37.964-74.609,34.87&#10;&#9;&#9;&#9;&#9;&#9;c-39.633-3.852-79.515-3.014-118.825,2.441C331.853,669.786,285.133,514.038,311.346,448.391z" style="opacity:0.46;fill:#A3B6BF;"/>
				<path d="M559.563,442.606c-53.857-4.186-107.958-4.186-161.817,0&#10;&#9;&#9;&#9;&#9;&#9;c-86.365,6.713-116.099,149.46,40.109,170.859c49.553,6.789,109.055,3.236,152.483-23.671&#10;&#9;&#9;&#9;&#9;&#9;C658.341,547.66,634.099,448.399,559.563,442.606z" style="fill:#C7D8EA;"/>
				<path d="M481.121,614.092c-14.148,0-28.597-0.998-42.946-2.963&#10;&#9;&#9;&#9;&#9;&#9;c-82.045-11.24-110.097-55.567-108.991-93.304c1.13-38.584,30.685-69.911,68.746-72.869c26.74-2.079,53.902-3.133,80.724-3.133&#10;&#9;&#9;&#9;&#9;&#9;c0,0,0,0,0.003,0c26.822,0,53.982,1.054,80.725,3.133c32.568,2.531,58.624,24.777,66.382,56.674&#10;&#9;&#9;&#9;&#9;&#9;c8.145,33.492-6.247,67.311-36.667,86.159c-35.085,21.739-78.08,26.303-107.972,26.303&#10;&#9;&#9;&#9;&#9;&#9;C481.122,614.092,481.122,614.092,481.121,614.092z" style="fill:#043340;"/>
			</g>
			<g style="opacity:0.34;">
				<path d="M493.641,407.996c0.919,8.174,25.659,12.101,54.79,15.869c29.165,3.505,54.11,5.775,57.01-1.922&#10;&#9;&#9;&#9;&#9;&#9;c2.941-7.492-20.293-23.261-53.361-27.323C519.028,390.434,492.63,400.012,493.641,407.996z" style="fill:#A2BFDC;"/>
			</g>
		</g>
		<g>
			<path d="M479.397,591.792c-31.207,0-57.583-24.451-61.355-56.875c-0.285-2.451,1.472-4.669,3.923-4.955&#10;&#9;&#9;&#9;&#9;c2.457-0.279,112.409-0.277,114.864-0.003c2.451,0.286,4.207,2.504,3.923,4.955C536.982,567.34,510.606,591.792,479.397,591.792z" style="fill:#00FFFF;"/>
		</g>
		<path d="M409.636,486.507c0,5.373-4.355,9.729-9.728,9.729c-5.373,0-9.729-4.355-9.729-9.729&#10;&#9;&#9;&#9;c0-5.373,4.355-9.728,9.729-9.728C405.281,476.779,409.636,481.134,409.636,486.507z" style="fill:#00FFFF;"/>
		<path d="M568.613,486.507c0,5.373-4.355,9.729-9.728,9.729s-9.728-4.355-9.728-9.729&#10;&#9;&#9;&#9;c0-5.373,4.355-9.728,9.728-9.728S568.613,481.134,568.613,486.507z" style="fill:#00FFFF;"/>
	</g>
	<g>
		<g>
			<g>
				<path d="M1426.809,389.038c5.316,9.207-1.502,23.094-15.228,31.019&#10;&#9;&#9;&#9;&#9;&#9;c-13.727,7.924-29.161,6.885-34.478-2.322c-5.315-9.207,1.503-23.094,15.229-31.019&#10;&#9;&#9;&#9;&#9;&#9;C1406.057,378.792,1421.493,379.831,1426.809,389.038z" style="fill:#043340;"/>
				<path d="M1387.407,402.866c-2.088-2.458-7.333-11.728-23.47-40.485l11.049-8.34&#10;&#9;&#9;&#9;&#9;&#9;c13.381,13.421,30.187,30.388,31.031,30.884C1406.104,384.976,1387.407,402.866,1387.407,402.866z" style="fill:#043340;"/>
				<path d="M1385.442,353.973c0,11.13-9.022,20.153-20.153,20.153s-20.153-9.022-20.153-20.153&#10;&#9;&#9;&#9;&#9;&#9;c0-11.13,9.022-20.153,20.153-20.153S1385.442,342.843,1385.442,353.973z" style="fill:#C7D8EA;"/>
				<path d="M1365.289,333.82c-1.607,0-3.17,0.189-4.668,0.543&#10;&#9;&#9;&#9;&#9;&#9;c8.88,2.105,15.486,10.086,15.486,19.61c0,9.523-6.606,17.504-15.486,19.61c1.498,0.355,3.061,0.543,4.668,0.543&#10;&#9;&#9;&#9;&#9;&#9;c11.131,0,20.153-9.022,20.153-20.153C1385.442,342.843,1376.42,333.82,1365.289,333.82z" style="opacity:0.46;fill:#A3B6BF;"/>
				<path d="M1360.621,373.583c20.861,4.08,32.663-22.223,16.828-35.005&#10;&#9;&#9;&#9;&#9;&#9;c-4.558-3.76-10.864-5.379-16.828-4.215c12.136-3.521,25.402,5.661,25.496,19.61&#10;&#9;&#9;&#9;&#9;&#9;C1386.018,367.774,1372.865,377.131,1360.621,373.583z" style="fill:#043340;"/>
				<path d="M1365.289,352.384c0,4.595-3.725,8.319-8.32,8.319&#10;&#9;&#9;&#9;&#9;&#9;c-4.594,0-8.318-3.725-8.318-8.319c0-4.595,3.725-8.319,8.318-8.319C1361.564,344.065,1365.289,347.789,1365.289,352.384z" style="opacity:0.46;fill:#C7D8EA;"/>
				<path d="M1627.404,391.607c-5.315,9.207,1.502,23.094,15.229,31.019&#10;&#9;&#9;&#9;&#9;&#9;c13.726,7.924,29.16,6.885,34.476-2.321c5.315-9.207-1.502-23.094-15.227-31.019&#10;&#9;&#9;&#9;&#9;&#9;C1648.156,381.361,1632.72,382.4,1627.404,391.607z" style="fill:#043340;"/>
				<path d="M1666.808,405.435c2.086-2.458,7.332-11.728,23.469-40.485l-11.049-8.34&#10;&#9;&#9;&#9;&#9;&#9;c-13.382,13.421-30.188,30.389-31.031,30.883C1648.109,387.545,1666.808,405.435,1666.808,405.435z" style="fill:#043340;"/>
				<path d="M1668.771,356.542c0,11.131,9.022,20.154,20.153,20.154c11.13,0,20.153-9.023,20.153-20.154&#10;&#9;&#9;&#9;&#9;&#9;c0-11.129-9.023-20.153-20.153-20.153C1677.794,336.389,1668.771,345.412,1668.771,356.542z" style="fill:#C7D8EA;"/>
				<path d="M1688.925,336.389c1.606,0,3.169,0.188,4.668,0.544&#10;&#9;&#9;&#9;&#9;&#9;c-8.881,2.105-15.485,10.086-15.485,19.609c0,9.524,6.604,17.504,15.485,19.61c-1.499,0.355-3.062,0.544-4.668,0.544&#10;&#9;&#9;&#9;&#9;&#9;c-11.131,0-20.153-9.023-20.153-20.154C1668.771,345.412,1677.794,336.389,1688.925,336.389z" style="opacity:0.46;fill:#A3B6BF;"/>
				<path d="M1693.593,376.151c-20.86,4.081-32.663-22.223-16.828-35.004&#10;&#9;&#9;&#9;&#9;&#9;c4.559-3.761,10.864-5.379,16.828-4.214c-12.136-3.522-25.403,5.66-25.497,19.609&#10;&#9;&#9;&#9;&#9;&#9;C1668.196,370.343,1681.349,379.7,1693.593,376.151z" style="fill:#043340;"/>
				<path d="M1688.925,354.953c0,4.595,3.725,8.319,8.319,8.319s8.319-3.725,8.319-8.319&#10;&#9;&#9;&#9;&#9;&#9;c0-4.595-3.725-8.32-8.319-8.32S1688.925,350.358,1688.925,354.953z" style="opacity:0.46;fill:#C7D8EA;"/>
			</g>
			<g>
				<g>
					<ellipse ry="95.314" rx="212.233" cy="522.419" cx="1525.214" style="fill:#043340;"/>
					<path d="M1712.671,567.15c-3.765,3.175-7.917,6.244-12.43,9.193&#10;&#9;&#9;&#9;&#9;&#9;&#9;c10.994-31.627,15.758-66.742,14.605-96.769c3.468,3.089,6.572,6.274,9.287,9.545&#10;&#9;&#9;&#9;&#9;&#9;&#9;C1724.037,513.875,1720.282,541.214,1712.671,567.15z" style="fill:#A2BFDC;"/>
					<path d="M1326.352,489.049c2.729-3.278,5.849-6.47,9.333-9.566c-1.781,30.31,4.294,66.032,16.411,98.086&#10;&#9;&#9;&#9;&#9;&#9;&#9;c-4.699-2.97-9.029-6.066-12.96-9.275C1330.647,541.86,1326.224,514.056,1326.352,489.049z" style="fill:#A2BFDC;"/>
				</g>
				<path d="M1467.531,657.432c39.309-5.455,79.19-6.293,118.824-2.441&#10;&#9;&#9;&#9;&#9;&#9;c91.152,8.857,123.59-127.672,110.592-196.387c-6.627-35.039-45.678-60.147-78.649-67.946&#10;&#9;&#9;&#9;&#9;&#9;c-59.756-14.133-123.593-15.025-183.656-2.417c-32.229,6.864-64.107,28.728-76.657,60.15&#10;&#9;&#9;&#9;&#9;&#9;C1331.771,514.038,1378.491,669.786,1467.531,657.432z" style="fill:#A2BFDC;"/>
				<path d="M1357.984,448.391c6.203-15.532,17.13-28.728,30.485-38.932&#10;&#9;&#9;&#9;&#9;&#9;c-4.484,5.976-8.227,12.481-11.013,19.458c-26.212,65.647,20.506,221.396,109.546,209.041&#10;&#9;&#9;&#9;&#9;&#9;c39.311-5.454,79.192-6.292,118.825-2.441c21.624,2.102,39.943-3.98,55.137-15.397c-18.08,23.309-42.761,37.964-74.609,34.87&#10;&#9;&#9;&#9;&#9;&#9;c-39.634-3.852-79.516-3.014-118.824,2.441C1378.491,669.786,1331.771,514.038,1357.984,448.391z" style="opacity:0.46;fill:#A3B6BF;"/>
				<path d="M1606.202,442.606c-53.856-4.186-107.96-4.186-161.817,0&#10;&#9;&#9;&#9;&#9;&#9;c-86.364,6.713-116.1,149.46,40.108,170.859c49.552,6.789,109.055,3.236,152.483-23.671&#10;&#9;&#9;&#9;&#9;&#9;C1704.979,547.66,1680.736,448.399,1606.202,442.606z" style="fill:#C7D8EA;"/>
				<path d="M1527.759,614.092c-14.148,0-28.597-0.998-42.945-2.963&#10;&#9;&#9;&#9;&#9;&#9;c-82.045-11.24-110.097-55.567-108.991-93.304c1.13-38.584,30.686-69.911,68.746-72.869c26.74-2.079,53.901-3.133,80.724-3.133&#10;&#9;&#9;&#9;&#9;&#9;c0,0,0,0,0.003,0c26.821,0,53.982,1.054,80.725,3.133c32.568,2.531,58.624,24.777,66.381,56.674&#10;&#9;&#9;&#9;&#9;&#9;c8.146,33.492-6.247,67.311-36.667,86.159c-35.083,21.739-78.079,26.303-107.971,26.303&#10;&#9;&#9;&#9;&#9;&#9;C1527.76,614.092,1527.76,614.092,1527.759,614.092z" style="fill:#043340;"/>
			</g>
			<g style="opacity:0.34;">
				<path d="M1540.279,407.996c0.92,8.174,25.659,12.101,54.791,15.869&#10;&#9;&#9;&#9;&#9;&#9;c29.163,3.505,54.109,5.775,57.008-1.922c2.942-7.492-20.292-23.261-53.36-27.323&#10;&#9;&#9;&#9;&#9;&#9;C1565.666,390.434,1539.269,400.012,1540.279,407.996z" style="fill:#A2BFDC;"/>
			</g>
		</g>
		<g>
			<g>
				<rect height="6.8" width="31.308" style="fill:#00FFFF;" y="474.547" x="1511.453"/>
				<rect height="9.615" width="31.308" style="fill:#00FFFF;" y="484.982" x="1511.453"/>
				<polygon points="1542.607,531.094 1542.607,498.232 1511.3,498.232 1511.3,531.094 1498.68,531.094 &#10;&#9;&#9;&#9;&#9;&#9;1527.261,559.675 1555.227,531.094" style="fill:#00FFFF;"/>
				<rect height="4.104" width="76.919" style="fill:#00FFFF;" y="566.124" x="1489.526"/>
			</g>
		</g>
	</g>
	<g>
		<ellipse ry="95.314" rx="212.233" cy="522.419" cx="1001.895" style="fill:#043340;"/>
		<g>
			<path d="M1189.353,567.15c-3.766,3.175-7.918,6.244-12.431,9.193&#10;&#9;&#9;&#9;&#9;c10.994-31.627,15.758-66.742,14.605-96.769c3.469,3.089,6.572,6.274,9.287,9.545&#10;&#9;&#9;&#9;&#9;C1200.718,513.875,1196.963,541.214,1189.353,567.15z" style="fill:#A2BFDC;"/>
			<path d="M803.034,489.049c2.728-3.278,5.847-6.47,9.332-9.566c-1.781,30.31,4.294,66.032,16.412,98.086&#10;&#9;&#9;&#9;&#9;c-4.7-2.97-9.03-6.066-12.96-9.275C807.328,541.86,802.905,514.056,803.034,489.049z" style="fill:#A2BFDC;"/>
		</g>
	</g>
	<path d="M944.211,657.432c39.31-5.455,79.191-6.293,118.826-2.441&#10;&#9;&#9;c91.151,8.857,123.59-127.672,110.591-196.387c-6.627-35.039-45.678-60.147-78.649-67.946&#10;&#9;&#9;c-59.756-14.133-123.592-15.025-183.656-2.417c-32.229,6.864-64.107,28.728-76.657,60.15&#10;&#9;&#9;C808.453,514.038,855.172,669.786,944.211,657.432z" style="fill:#A2BFDC;"/>
	<path d="M834.666,448.391c6.203-15.532,17.129-28.728,30.485-38.932&#10;&#9;&#9;c-4.486,5.976-8.226,12.481-11.013,19.458c-26.212,65.647,20.506,221.396,109.546,209.041c39.31-5.454,79.192-6.292,118.825-2.441&#10;&#9;&#9;c21.624,2.102,39.943-3.98,55.137-15.397c-18.079,23.309-42.761,37.964-74.61,34.87c-39.633-3.852-79.514-3.014-118.824,2.441&#10;&#9;&#9;C855.172,669.786,808.453,514.038,834.666,448.391z" style="opacity:0.46;fill:#A3B6BF;"/>
	<path d="M1082.883,442.606c-53.857-4.186-107.959-4.186-161.817,0&#10;&#9;&#9;c-86.365,6.713-116.099,149.46,40.109,170.859c49.553,6.789,109.054,3.236,152.483-23.671&#10;&#9;&#9;C1181.66,547.66,1157.417,448.399,1082.883,442.606z" style="fill:#C7D8EA;"/>
	<path d="M1004.44,614.092c-14.148,0-28.596-0.998-42.945-2.963c-82.045-11.24-110.097-55.567-108.991-93.304&#10;&#9;&#9;c1.13-38.584,30.685-69.911,68.746-72.869c26.74-2.079,53.902-3.133,80.724-3.133c0,0,0,0,0.003,0&#10;&#9;&#9;c26.821,0,53.981,1.054,80.725,3.133c32.568,2.531,58.624,24.777,66.381,56.674c8.146,33.492-6.247,67.311-36.665,86.159&#10;&#9;&#9;c-35.086,21.739-78.081,26.303-107.973,26.303C1004.44,614.092,1004.44,614.092,1004.44,614.092z" style="fill:#043340;"/>
	<g style="opacity:0.34;">
		<path d="M1016.96,407.996c0.92,8.174,25.659,12.101,54.791,15.869c29.163,3.505,54.108,5.775,57.009-1.922&#10;&#9;&#9;&#9;c2.941-7.492-20.293-23.261-53.361-27.323C1042.347,390.434,1015.949,400.012,1016.96,407.996z" style="fill:#A2BFDC;"/>
	</g>
	<g>
		<rect height="32.472" width="17.138" style="fill:#00FF00;" y="511.722" x="884.424"/>
		<rect height="42.394" width="17.139" style="fill:#00FF00;" y="506.761" x="908.777"/>
		<rect height="68.552" width="17.138" style="fill:#00FF00;" y="493.682" x="933.131"/>
		<rect height="82.287" width="17.138" style="fill:#00FF00;" y="486.814" x="957.485"/>
		<rect height="82.287" width="17.139" style="fill:#00FF00;" y="486.814" x="981.839"/>
		<rect height="68.552" width="17.139" style="fill:#00FF00;" y="493.682" x="1006.192"/>
		<rect height="42.394" width="17.138" style="fill:#00FF00;" y="506.761" x="1030.547"/>
		<rect height="42.394" width="17.139" style="fill:#00FF00;" y="506.761" x="1102.239"/>
		<rect height="68.552" width="17.139" style="fill:#00FF00;" y="493.682" x="1054.9"/>
		<rect height="82.287" width="17.139" style="fill:#00FF00;" y="486.814" x="1079.254"/>
	</g>
</g>
<g>
	<g>
		<g>
			<g>
				<path d="M379.855,1804.348c5.315,9.206-1.503,23.093-15.228,31.018&#10;&#9;&#9;&#9;&#9;&#9;c-13.726,7.926-29.161,6.886-34.477-2.321c-5.315-9.206,1.502-23.095,15.228-31.019&#10;&#9;&#9;&#9;&#9;&#9;C359.104,1794.101,374.54,1795.141,379.855,1804.348z" style="fill:#043340;"/>
				<path d="M340.453,1818.175c-2.087-2.458-7.332-11.728-23.468-40.484l11.048-8.34&#10;&#9;&#9;&#9;&#9;&#9;c12.604,12.64,28.851,29.267,31.511,31.722C360,1801.492,340.453,1818.175,340.453,1818.175z" style="fill:#043340;"/>
				<path d="M338.488,1769.282c0,11.13-9.023,20.153-20.153,20.153c-11.13,0-20.153-9.023-20.153-20.153&#10;&#9;&#9;&#9;&#9;&#9;c0-11.131,9.023-20.154,20.153-20.154C329.465,1749.128,338.488,1758.151,338.488,1769.282z" style="fill:#C7D8EA;"/>
				<path d="M318.335,1749.128c-1.607,0-3.169,0.189-4.667,0.545&#10;&#9;&#9;&#9;&#9;&#9;c8.879,2.105,15.485,10.085,15.485,19.609c0,9.523-6.606,17.504-15.485,19.608c1.497,0.355,3.06,0.545,4.667,0.545&#10;&#9;&#9;&#9;&#9;&#9;c11.13,0,20.153-9.023,20.153-20.153C338.488,1758.151,329.465,1749.128,318.335,1749.128z" style="opacity:0.46;fill:#A3B6BF;"/>
				<path d="M313.668,1788.891c20.86,4.082,32.663-22.223,16.826-35.004&#10;&#9;&#9;&#9;&#9;&#9;c-4.557-3.761-10.863-5.378-16.826-4.214c12.135-3.522,25.402,5.659,25.496,19.609&#10;&#9;&#9;&#9;&#9;&#9;C339.064,1783.084,325.912,1792.439,313.668,1788.891z" style="fill:#043340;"/>
				<path d="M318.335,1767.692c0,4.596-3.725,8.32-8.319,8.32c-4.595,0-8.32-3.725-8.32-8.32&#10;&#9;&#9;&#9;&#9;&#9;c0-4.594,3.725-8.319,8.32-8.319C314.61,1759.373,318.335,1763.099,318.335,1767.692z" style="opacity:0.46;fill:#C7D8EA;"/>
			</g>
			<g>
				<path d="M580.451,1806.916c-5.315,9.207,1.503,23.095,15.229,31.019&#10;&#9;&#9;&#9;&#9;&#9;c13.725,7.925,29.162,6.885,34.477-2.322c5.316-9.206-1.502-23.093-15.228-31.018&#10;&#9;&#9;&#9;&#9;&#9;C601.202,1796.669,585.766,1797.709,580.451,1806.916z" style="fill:#043340;"/>
				<path d="M619.854,1820.744c2.087-2.459,7.332-11.729,23.468-40.485l-11.048-8.34&#10;&#9;&#9;&#9;&#9;&#9;c-13.382,13.421-30.187,30.389-31.032,30.884C601.155,1802.853,619.854,1820.744,619.854,1820.744z" style="fill:#043340;"/>
				<path d="M621.818,1771.851c0,11.13,9.023,20.153,20.153,20.153c11.13,0,20.153-9.023,20.153-20.153&#10;&#9;&#9;&#9;&#9;&#9;c0-11.131-9.023-20.152-20.153-20.152C630.841,1751.698,621.818,1760.72,621.818,1771.851z" style="fill:#C7D8EA;"/>
				<path d="M641.971,1751.698c1.607,0,3.17,0.188,4.668,0.543&#10;&#9;&#9;&#9;&#9;&#9;c-8.879,2.104-15.486,10.085-15.486,19.609c0,9.523,6.607,17.504,15.486,19.61c-1.498,0.354-3.061,0.543-4.668,0.543&#10;&#9;&#9;&#9;&#9;&#9;c-11.13,0-20.153-9.023-20.153-20.153C621.818,1760.72,630.841,1751.698,641.971,1751.698z" style="opacity:0.46;fill:#A3B6BF;"/>
				<path d="M646.639,1791.461c-20.861,4.08-32.663-22.224-16.827-35.005&#10;&#9;&#9;&#9;&#9;&#9;c4.557-3.761,10.864-5.379,16.827-4.215c-12.136-3.521-25.403,5.66-25.497,19.609&#10;&#9;&#9;&#9;&#9;&#9;C621.243,1785.652,634.396,1795.009,646.639,1791.461z" style="fill:#043340;"/>
				<path d="M641.971,1770.262c0,4.595,3.726,8.319,8.319,8.319c4.596,0,8.32-3.725,8.32-8.319&#10;&#9;&#9;&#9;&#9;&#9;s-3.725-8.319-8.32-8.319C645.696,1761.942,641.971,1765.667,641.971,1770.262z" style="opacity:0.46;fill:#C7D8EA;"/>
			</g>
			<g>
				<g>
					<path d="M266.344,1937.823c0,52.641,95.02,95.313,212.232,95.313&#10;&#9;&#9;&#9;&#9;&#9;&#9;c117.212,0,212.232-42.672,212.232-95.313c0-52.642-95.02-95.314-212.232-95.314&#10;&#9;&#9;&#9;&#9;&#9;&#9;C361.363,1842.509,266.344,1885.182,266.344,1937.823z" style="fill:#043340;"/>
					<g>
						<path d="M666.033,1982.554c-3.764,3.175-7.917,6.243-12.43,9.192&#10;&#9;&#9;&#9;&#9;&#9;&#9;&#9;c10.995-31.627,15.758-66.742,14.606-96.769c3.468,3.089,6.571,6.275,9.287,9.545&#10;&#9;&#9;&#9;&#9;&#9;&#9;&#9;C677.398,1929.278,673.644,1956.617,666.033,1982.554z" style="fill:#A2BFDC;"/>
						<path d="M279.714,1904.453c2.729-3.278,5.848-6.471,9.332-9.566&#10;&#9;&#9;&#9;&#9;&#9;&#9;&#9;c-1.781,30.311,4.295,66.031,16.412,98.085c-4.699-2.969-9.029-6.065-12.96-9.274&#10;&#9;&#9;&#9;&#9;&#9;&#9;&#9;C284.009,1957.263,279.586,1929.459,279.714,1904.453z" style="fill:#A2BFDC;"/>
					</g>
				</g>
				<path d="M420.892,2072.835c39.31-5.454,79.192-6.293,118.825-2.441&#10;&#9;&#9;&#9;&#9;&#9;c91.152,8.856,123.591-127.671,110.592-196.387c-6.627-35.038-45.677-60.147-78.649-67.946&#10;&#9;&#9;&#9;&#9;&#9;c-59.756-14.132-123.593-15.023-183.657-2.416c-32.229,6.864-64.107,28.727-76.657,60.149&#10;&#9;&#9;&#9;&#9;&#9;C285.133,1929.44,331.853,2085.189,420.892,2072.835z" style="fill:#A2BFDC;"/>
				<path d="M311.346,1863.794c6.203-15.531,17.129-28.729,30.485-38.931&#10;&#9;&#9;&#9;&#9;&#9;c-4.485,5.975-8.226,12.48-11.013,19.458c-26.212,65.646,20.506,221.396,109.546,209.041&#10;&#9;&#9;&#9;&#9;&#9;c39.31-5.454,79.192-6.293,118.825-2.441c21.624,2.101,39.944-3.98,55.136-15.397c-18.08,23.311-42.76,37.965-74.609,34.87&#10;&#9;&#9;&#9;&#9;&#9;c-39.633-3.852-79.515-3.014-118.825,2.441C331.853,2085.189,285.133,1929.44,311.346,1863.794z" style="opacity:0.46;fill:#A3B6BF;"/>
				<path d="M559.563,1858.01c-53.857-4.188-107.958-4.188-161.817,0&#10;&#9;&#9;&#9;&#9;&#9;c-86.365,6.712-116.099,149.459,40.109,170.858c49.553,6.789,109.055,3.237,152.483-23.672&#10;&#9;&#9;&#9;&#9;&#9;C658.341,1963.063,634.099,1863.803,559.563,1858.01z" style="fill:#C7D8EA;"/>
				<path d="M481.121,2029.494c-14.148,0-28.597-0.996-42.946-2.962&#10;&#9;&#9;&#9;&#9;&#9;c-82.045-11.24-110.097-55.566-108.991-93.304c1.13-38.584,30.685-69.91,68.746-72.868c26.74-2.078,53.902-3.133,80.724-3.133&#10;&#9;&#9;&#9;&#9;&#9;c0,0,0,0,0.003,0c26.822,0,53.982,1.055,80.725,3.133c32.568,2.53,58.624,24.776,66.382,56.674&#10;&#9;&#9;&#9;&#9;&#9;c8.145,33.491-6.247,67.312-36.667,86.157c-35.085,21.739-78.08,26.303-107.972,26.303&#10;&#9;&#9;&#9;&#9;&#9;C481.122,2029.494,481.122,2029.494,481.121,2029.494z" style="fill:#043340;"/>
			</g>
			<g style="opacity:0.34;">
				<path d="M493.641,1823.398c0.919,8.174,25.659,12.102,54.79,15.869c29.165,3.505,54.11,5.775,57.01-1.922&#10;&#9;&#9;&#9;&#9;&#9;c2.941-7.491-20.293-23.261-53.361-27.323C519.028,1805.836,492.63,1815.416,493.641,1823.398z" style="fill:#A2BFDC;"/>
			</g>
		</g>
		<g>
			<g>
				<path d="M478.896,1939.347c31.207,0,57.583,24.451,61.355,56.874c0.285,2.451-1.472,4.668-3.923,4.955&#10;&#9;&#9;&#9;&#9;&#9;c-1.229,0.139-29.331-18.912-57.433-18.912c-28.102,0-56.203,19.052-57.431,18.915c-2.451-0.286-4.207-2.504-3.923-4.955&#10;&#9;&#9;&#9;&#9;&#9;C421.31,1963.798,447.686,1939.347,478.896,1939.347z" style="fill:#00FFEE;"/>
			</g>
			<path d="M409.136,1901.357c0,5.373-4.355,9.729-9.728,9.729c-5.373,0-9.728-4.355-9.728-9.729&#10;&#9;&#9;&#9;&#9;s4.355-9.728,9.728-9.728C404.781,1891.63,409.136,1895.984,409.136,1901.357z" style="fill:#00FFEE;"/>
			<path d="M568.112,1901.357c0,5.373-4.355,9.729-9.728,9.729c-5.373,0-9.727-4.355-9.727-9.729&#10;&#9;&#9;&#9;&#9;s4.355-9.728,9.727-9.728C563.757,1891.63,568.112,1895.984,568.112,1901.357z" style="fill:#00FFEE;"/>
		</g>
	</g>
	<g>
		<g>
			<path d="M903.174,1804.379c5.315,9.205-1.502,23.094-15.227,31.019&#10;&#9;&#9;&#9;&#9;c-13.726,7.924-29.162,6.885-34.477-2.321c-5.316-9.207,1.503-23.095,15.228-31.019&#10;&#9;&#9;&#9;&#9;C882.423,1794.133,897.858,1795.172,903.174,1804.379z" style="fill:#043340;"/>
			<path d="M863.772,1818.206c-2.087-2.458-7.332-11.728-23.469-40.483l11.049-8.341&#10;&#9;&#9;&#9;&#9;c13.382,13.421,30.187,30.389,31.031,30.883C882.47,1800.316,863.772,1818.206,863.772,1818.206z" style="fill:#043340;"/>
			<path d="M861.807,1769.313c0,11.131-9.023,20.153-20.153,20.153c-11.13,0-20.153-9.022-20.153-20.153&#10;&#9;&#9;&#9;&#9;c0-11.13,9.023-20.153,20.153-20.153C852.784,1749.16,861.807,1758.184,861.807,1769.313z" style="fill:#C7D8EA;"/>
			<path d="M841.654,1749.16c-1.606,0-3.169,0.188-4.668,0.544&#10;&#9;&#9;&#9;&#9;c8.88,2.105,15.486,10.086,15.486,19.609s-6.606,17.505-15.486,19.609c1.499,0.356,3.061,0.544,4.668,0.544&#10;&#9;&#9;&#9;&#9;c11.13,0,20.153-9.022,20.153-20.153C861.807,1758.184,852.784,1749.16,841.654,1749.16z" style="opacity:0.46;fill:#A3B6BF;"/>
			<path d="M836.986,1788.923c20.861,4.081,32.664-22.223,16.827-35.005&#10;&#9;&#9;&#9;&#9;c-4.557-3.761-10.863-5.379-16.827-4.214c12.135-3.522,25.402,5.659,25.497,19.609&#10;&#9;&#9;&#9;&#9;C862.383,1783.115,849.23,1792.472,836.986,1788.923z" style="fill:#043340;"/>
			<path d="M841.654,1767.724c0,4.596-3.725,8.32-8.319,8.32c-4.595,0-8.319-3.725-8.319-8.32&#10;&#9;&#9;&#9;&#9;c0-4.594,3.725-8.318,8.319-8.318C837.929,1759.405,841.654,1763.13,841.654,1767.724z" style="opacity:0.46;fill:#C7D8EA;"/>
		</g>
		<g>
			<path d="M1103.771,1806.947c-5.315,9.207,1.502,23.095,15.228,31.019&#10;&#9;&#9;&#9;&#9;c13.726,7.925,29.162,6.886,34.478-2.321s-1.503-23.094-15.229-31.019S1109.086,1797.741,1103.771,1806.947z" style="fill:#043340;"/>
			<path d="M1143.173,1820.776c2.087-2.459,7.331-11.729,23.468-40.485l-11.048-8.34&#10;&#9;&#9;&#9;&#9;c-13.382,13.42-30.188,30.388-31.032,30.883C1124.474,1802.885,1143.173,1820.776,1143.173,1820.776z" style="fill:#043340;"/>
			<path d="M1145.138,1771.882c0,11.131,9.022,20.153,20.153,20.153c11.129,0,20.152-9.022,20.152-20.153&#10;&#9;&#9;&#9;&#9;c0-11.13-9.023-20.153-20.152-20.153C1154.16,1751.729,1145.138,1760.752,1145.138,1771.882z" style="fill:#C7D8EA;"/>
			<path d="M1165.291,1751.729c1.606,0,3.168,0.189,4.667,0.545&#10;&#9;&#9;&#9;&#9;c-8.88,2.104-15.486,10.085-15.486,19.608c0,9.524,6.606,17.505,15.486,19.61c-1.499,0.354-3.061,0.543-4.667,0.543&#10;&#9;&#9;&#9;&#9;c-11.131,0-20.153-9.022-20.153-20.153C1145.138,1760.752,1154.16,1751.729,1165.291,1751.729z" style="opacity:0.46;fill:#A3B6BF;"/>
			<path d="M1169.958,1791.492c-20.861,4.08-32.664-22.224-16.827-35.004&#10;&#9;&#9;&#9;&#9;c4.558-3.762,10.863-5.379,16.827-4.215c-12.137-3.521-25.402,5.658-25.497,19.608&#10;&#9;&#9;&#9;&#9;C1144.562,1785.685,1157.715,1795.04,1169.958,1791.492z" style="fill:#043340;"/>
			<path d="M1165.291,1770.294c0,4.594,3.725,8.318,8.318,8.318c4.596,0,8.32-3.725,8.32-8.318&#10;&#9;&#9;&#9;&#9;c0-4.596-3.725-8.32-8.32-8.32C1169.016,1761.974,1165.291,1765.698,1165.291,1770.294z" style="opacity:0.46;fill:#C7D8EA;"/>
		</g>
		<g>
			<path d="M789.662,1937.823c0,52.641,95.02,95.313,212.232,95.313c117.214,0,212.233-42.672,212.233-95.313&#10;&#9;&#9;&#9;&#9;c0-52.642-95.02-95.314-212.233-95.314C884.682,1842.509,789.662,1885.182,789.662,1937.823z" style="fill:#043340;"/>
			<g>
				<path d="M1189.353,1982.554c-3.766,3.175-7.918,6.243-12.431,9.192&#10;&#9;&#9;&#9;&#9;&#9;c10.994-31.627,15.758-66.742,14.605-96.769c3.469,3.089,6.572,6.275,9.287,9.545&#10;&#9;&#9;&#9;&#9;&#9;C1200.718,1929.278,1196.963,1956.617,1189.353,1982.554z" style="fill:#A2BFDC;"/>
				<path d="M803.034,1904.453c2.728-3.278,5.847-6.471,9.332-9.566&#10;&#9;&#9;&#9;&#9;&#9;c-1.781,30.311,4.294,66.031,16.412,98.085c-4.7-2.969-9.03-6.065-12.96-9.274&#10;&#9;&#9;&#9;&#9;&#9;C807.328,1957.263,802.905,1929.459,803.034,1904.453z" style="fill:#A2BFDC;"/>
			</g>
		</g>
		<path d="M944.211,2072.835c39.31-5.454,79.191-6.293,118.826-2.441&#10;&#9;&#9;&#9;c91.151,8.856,123.59-127.671,110.591-196.387c-6.627-35.038-45.678-60.147-78.649-67.946&#10;&#9;&#9;&#9;c-59.756-14.132-123.592-15.023-183.656-2.416c-32.229,6.864-64.107,28.727-76.657,60.149&#10;&#9;&#9;&#9;C808.453,1929.44,855.172,2085.189,944.211,2072.835z" style="fill:#A2BFDC;"/>
		<path d="M834.666,1863.794c6.203-15.531,17.129-28.729,30.485-38.931&#10;&#9;&#9;&#9;c-4.486,5.975-8.226,12.48-11.013,19.458c-26.212,65.646,20.506,221.396,109.546,209.041c39.31-5.454,79.192-6.293,118.825-2.441&#10;&#9;&#9;&#9;c21.624,2.101,39.943-3.98,55.137-15.397c-18.079,23.311-42.761,37.965-74.61,34.87c-39.633-3.852-79.514-3.014-118.824,2.441&#10;&#9;&#9;&#9;C855.172,2085.189,808.453,1929.44,834.666,1863.794z" style="opacity:0.46;fill:#A3B6BF;"/>
		<path d="M1082.883,1858.01c-53.857-4.188-107.959-4.188-161.817,0&#10;&#9;&#9;&#9;c-86.365,6.712-116.099,149.459,40.109,170.858c49.553,6.789,109.054,3.237,152.483-23.672&#10;&#9;&#9;&#9;C1181.66,1963.063,1157.417,1863.803,1082.883,1858.01z" style="fill:#C7D8EA;"/>
		<path d="M1004.44,2029.494c-14.148,0-28.596-0.996-42.945-2.962&#10;&#9;&#9;&#9;c-82.045-11.24-110.097-55.566-108.991-93.304c1.13-38.584,30.685-69.91,68.746-72.868c26.74-2.078,53.902-3.133,80.724-3.133&#10;&#9;&#9;&#9;c0,0,0,0,0.003,0c26.821,0,53.981,1.055,80.725,3.133c32.568,2.53,58.624,24.776,66.381,56.674&#10;&#9;&#9;&#9;c8.146,33.491-6.247,67.312-36.665,86.157c-35.086,21.739-78.081,26.303-107.973,26.303&#10;&#9;&#9;&#9;C1004.44,2029.494,1004.44,2029.494,1004.44,2029.494z" style="fill:#043340;"/>
		<g style="opacity:0.34;">
			<path d="M1016.96,1823.398c0.92,8.174,25.659,12.102,54.791,15.869&#10;&#9;&#9;&#9;&#9;c29.163,3.505,54.108,5.775,57.009-1.922c2.941-7.491-20.293-23.261-53.361-27.323&#10;&#9;&#9;&#9;&#9;C1042.347,1805.836,1015.949,1815.416,1016.96,1823.398z" style="fill:#A2BFDC;"/>
		</g>
		<g>
			<path d="M913.09,1927.751c0.796,0,1.603-0.213,2.33-0.661l23.086-14.149&#10;&#9;&#9;&#9;&#9;c2.104-1.289,2.764-4.04,1.474-6.146c-1.29-2.104-4.042-2.764-6.144-1.475l-23.087,14.151c-2.102,1.29-2.763,4.04-1.474,6.144&#10;&#9;&#9;&#9;&#9;C910.12,1926.991,911.587,1927.751,913.09,1927.751z" style="fill:#2448B2;"/>
			<path d="M1061.147,1917.747l23.087,14.151c0.728,0.446,1.534,0.659,2.329,0.659&#10;&#9;&#9;&#9;&#9;c1.504,0,2.972-0.759,3.814-2.134c1.29-2.104,0.629-4.855-1.475-6.146l-23.085-14.149c-2.103-1.291-4.854-0.629-6.145,1.475&#10;&#9;&#9;&#9;&#9;C1058.385,1913.707,1059.044,1916.459,1061.147,1917.747z" style="fill:#2448B2;"/>
			<path d="M1106.099,1975.296c-3.853,0-5.863-2.546-8.827-6.7c-3.031-4.248-6.802-9.536-14.335-9.536&#10;&#9;&#9;&#9;&#9;c-7.531,0-11.304,5.288-14.333,9.536c-2.964,4.154-4.975,6.7-8.827,6.7c-3.854,0-5.864-2.546-8.826-6.7&#10;&#9;&#9;&#9;&#9;c-3.03-4.248-6.801-9.536-14.332-9.536s-11.303,5.288-14.332,9.537c-2.963,4.153-4.974,6.699-8.825,6.699&#10;&#9;&#9;&#9;&#9;c-3.85,0-5.859-2.546-8.822-6.699c-3.028-4.249-6.797-9.537-14.327-9.537c-7.531,0-11.301,5.288-14.331,9.536&#10;&#9;&#9;&#9;&#9;c-2.962,4.154-4.973,6.7-8.825,6.7c-3.85,0-5.86-2.546-8.822-6.699c-3.028-4.249-6.799-9.537-14.329-9.537&#10;&#9;&#9;&#9;&#9;c-7.531,0-11.302,5.288-14.331,9.537c-2.962,4.153-4.972,6.699-8.822,6.699c-3.849,0-5.86-2.546-8.82-6.699&#10;&#9;&#9;&#9;&#9;c-3.029-4.249-6.8-9.537-14.329-9.537c-1.869,0-3.382,1.515-3.382,3.383s1.514,3.383,3.382,3.383c3.85,0,5.86,2.546,8.821,6.698&#10;&#9;&#9;&#9;&#9;c3.029,4.25,6.799,9.537,14.329,9.537c7.53,0,11.301-5.287,14.329-9.537c2.962-4.152,4.974-6.698,8.824-6.698&#10;&#9;&#9;&#9;&#9;s5.86,2.546,8.822,6.698c3.028,4.25,6.799,9.537,14.329,9.537c7.531,0,11.302-5.287,14.332-9.537&#10;&#9;&#9;&#9;&#9;c2.962-4.152,4.973-6.698,8.823-6.698c3.849,0,5.859,2.546,8.82,6.698c3.029,4.25,6.798,9.537,14.33,9.537&#10;&#9;&#9;&#9;&#9;c7.531,0,11.303-5.287,14.332-9.537c2.963-4.152,4.974-6.698,8.825-6.698s5.862,2.546,8.824,6.698&#10;&#9;&#9;&#9;&#9;c3.03,4.25,6.801,9.537,14.334,9.537c7.532,0,11.305-5.287,14.334-9.537c2.963-4.152,4.975-6.698,8.826-6.698&#10;&#9;&#9;&#9;&#9;c3.854,0,5.864,2.546,8.828,6.7c3.03,4.248,6.802,9.535,14.334,9.535c1.868,0,3.383-1.514,3.383-3.383&#10;&#9;&#9;&#9;&#9;C1109.481,1976.81,1107.967,1975.296,1106.099,1975.296z" style="fill:#2448B2;"/>
		</g>
	</g>
	<g>
		<g>
			<path d="M1426.809,1804.441c5.316,9.206-1.502,23.095-15.228,31.018&#10;&#9;&#9;&#9;&#9;c-13.727,7.926-29.161,6.887-34.478-2.319c-5.315-9.207,1.503-23.095,15.229-31.021&#10;&#9;&#9;&#9;&#9;C1406.057,1794.196,1421.493,1795.234,1426.809,1804.441z" style="fill:#043340;"/>
			<path d="M1387.407,1818.27c-2.088-2.459-7.333-11.728-23.47-40.485l11.049-8.34&#10;&#9;&#9;&#9;&#9;c13.381,13.42,30.187,30.388,31.031,30.884C1406.104,1800.379,1387.407,1818.27,1387.407,1818.27z" style="fill:#043340;"/>
			<path d="M1385.442,1769.377c0,11.131-9.022,20.152-20.153,20.152s-20.153-9.021-20.153-20.152&#10;&#9;&#9;&#9;&#9;s9.022-20.153,20.153-20.153S1385.442,1758.246,1385.442,1769.377z" style="fill:#C7D8EA;"/>
			<path d="M1365.289,1749.224c-1.607,0-3.17,0.188-4.668,0.543&#10;&#9;&#9;&#9;&#9;c8.88,2.106,15.486,10.087,15.486,19.61c0,9.522-6.606,17.503-15.486,19.609c1.498,0.355,3.061,0.543,4.668,0.543&#10;&#9;&#9;&#9;&#9;c11.131,0,20.153-9.023,20.153-20.152C1385.442,1758.246,1376.42,1749.224,1365.289,1749.224z" style="opacity:0.46;fill:#A3B6BF;"/>
			<path d="M1360.621,1788.986c20.861,4.08,32.663-22.223,16.828-35.005&#10;&#9;&#9;&#9;&#9;c-4.558-3.761-10.864-5.379-16.828-4.215c12.136-3.521,25.402,5.66,25.496,19.61&#10;&#9;&#9;&#9;&#9;C1386.018,1783.178,1372.865,1792.535,1360.621,1788.986z" style="fill:#043340;"/>
			<path d="M1365.289,1767.787c0,4.595-3.725,8.32-8.32,8.32c-4.594,0-8.318-3.726-8.318-8.32&#10;&#9;&#9;&#9;&#9;c0-4.594,3.725-8.319,8.318-8.319C1361.564,1759.468,1365.289,1763.193,1365.289,1767.787z" style="opacity:0.46;fill:#C7D8EA;"/>
			<path d="M1627.404,1807.01c-5.315,9.207,1.502,23.095,15.229,31.02c13.726,7.924,29.16,6.885,34.476-2.321&#10;&#9;&#9;&#9;&#9;c5.315-9.207-1.502-23.095-15.227-31.019C1648.156,1796.765,1632.72,1797.803,1627.404,1807.01z" style="fill:#043340;"/>
			<path d="M1666.808,1820.838c2.086-2.457,7.332-11.728,23.469-40.483l-11.049-8.341&#10;&#9;&#9;&#9;&#9;c-13.382,13.421-30.188,30.389-31.031,30.883C1648.109,1802.948,1666.808,1820.838,1666.808,1820.838z" style="fill:#043340;"/>
			<circle r="20.153" cy="1771.945" cx="1688.925" style="fill:#C7D8EA;"/>
			<path d="M1688.925,1751.792c1.606,0,3.169,0.188,4.668,0.543&#10;&#9;&#9;&#9;&#9;c-8.881,2.106-15.485,10.087-15.485,19.61s6.604,17.505,15.485,19.609c-1.499,0.355-3.062,0.544-4.668,0.544&#10;&#9;&#9;&#9;&#9;c-11.131,0-20.153-9.022-20.153-20.153C1668.771,1760.815,1677.794,1751.792,1688.925,1751.792z" style="opacity:0.46;fill:#A3B6BF;"/>
			<path d="M1693.593,1791.555c-20.86,4.081-32.663-22.223-16.828-35.005&#10;&#9;&#9;&#9;&#9;c4.559-3.761,10.864-5.379,16.828-4.215c-12.136-3.521-25.403,5.66-25.497,19.61&#10;&#9;&#9;&#9;&#9;C1668.196,1785.746,1681.349,1795.104,1693.593,1791.555z" style="fill:#043340;"/>
			<path d="M1688.925,1770.355c0,4.596,3.725,8.32,8.319,8.32s8.319-3.725,8.319-8.32&#10;&#9;&#9;&#9;&#9;c0-4.594-3.725-8.318-8.319-8.318S1688.925,1765.762,1688.925,1770.355z" style="opacity:0.46;fill:#C7D8EA;"/>
		</g>
		<g>
			<path d="M1312.982,1937.823c0,52.641,95.018,95.313,212.231,95.313&#10;&#9;&#9;&#9;&#9;c117.214,0,212.233-42.672,212.233-95.313c0-52.642-95.019-95.314-212.233-95.314&#10;&#9;&#9;&#9;&#9;C1408,1842.509,1312.982,1885.182,1312.982,1937.823z" style="fill:#043340;"/>
			<path d="M1712.671,1982.554c-3.765,3.175-7.917,6.243-12.43,9.192&#10;&#9;&#9;&#9;&#9;c10.994-31.627,15.758-66.742,14.605-96.769c3.468,3.089,6.572,6.275,9.287,9.545&#10;&#9;&#9;&#9;&#9;C1724.037,1929.278,1720.282,1956.617,1712.671,1982.554z" style="fill:#A2BFDC;"/>
			<path d="M1326.352,1904.453c2.729-3.278,5.849-6.471,9.333-9.566&#10;&#9;&#9;&#9;&#9;c-1.781,30.311,4.294,66.031,16.411,98.085c-4.699-2.969-9.029-6.065-12.96-9.274&#10;&#9;&#9;&#9;&#9;C1330.647,1957.263,1326.224,1929.459,1326.352,1904.453z" style="fill:#A2BFDC;"/>
		</g>
		<path d="M1467.531,2072.835c39.309-5.454,79.19-6.293,118.824-2.441&#10;&#9;&#9;&#9;c91.152,8.856,123.59-127.671,110.592-196.387c-6.627-35.038-45.678-60.147-78.649-67.946&#10;&#9;&#9;&#9;c-59.756-14.132-123.593-15.023-183.656-2.416c-32.229,6.864-64.107,28.727-76.657,60.149&#10;&#9;&#9;&#9;C1331.771,1929.44,1378.491,2085.189,1467.531,2072.835z" style="fill:#A2BFDC;"/>
		<path d="M1357.984,1863.794c6.203-15.531,17.13-28.729,30.485-38.931&#10;&#9;&#9;&#9;c-4.484,5.975-8.227,12.48-11.013,19.458c-26.212,65.646,20.506,221.396,109.546,209.041c39.311-5.454,79.192-6.293,118.825-2.441&#10;&#9;&#9;&#9;c21.624,2.101,39.943-3.98,55.137-15.397c-18.08,23.311-42.761,37.965-74.609,34.87c-39.634-3.852-79.516-3.014-118.824,2.441&#10;&#9;&#9;&#9;C1378.491,2085.189,1331.771,1929.44,1357.984,1863.794z" style="opacity:0.46;fill:#A3B6BF;"/>
		<path d="M1606.202,1858.01c-53.856-4.188-107.96-4.188-161.817,0&#10;&#9;&#9;&#9;c-86.364,6.712-116.1,149.459,40.108,170.858c49.552,6.789,109.055,3.237,152.483-23.672&#10;&#9;&#9;&#9;C1704.979,1963.063,1680.736,1863.803,1606.202,1858.01z" style="fill:#C7D8EA;"/>
		<path d="M1527.759,2029.494c-14.148,0-28.597-0.996-42.945-2.962&#10;&#9;&#9;&#9;c-82.045-11.24-110.097-55.566-108.991-93.304c1.13-38.584,30.686-69.91,68.746-72.868c26.74-2.078,53.901-3.133,80.724-3.133&#10;&#9;&#9;&#9;c0,0,0,0,0.003,0c26.821,0,53.982,1.055,80.725,3.133c32.568,2.53,58.624,24.776,66.381,56.674&#10;&#9;&#9;&#9;c8.146,33.491-6.247,67.312-36.667,86.157c-35.083,21.739-78.079,26.303-107.971,26.303&#10;&#9;&#9;&#9;C1527.76,2029.494,1527.76,2029.494,1527.759,2029.494z" style="fill:#043340;"/>
		<g style="opacity:0.34;">
			<path d="M1540.279,1823.398c0.92,8.174,25.659,12.102,54.791,15.869&#10;&#9;&#9;&#9;&#9;c29.163,3.505,54.109,5.775,57.008-1.922c2.942-7.491-20.292-23.261-53.36-27.323&#10;&#9;&#9;&#9;&#9;C1565.666,1805.836,1539.269,1815.416,1540.279,1823.398z" style="fill:#A2BFDC;"/>
		</g>
		<g>
			<path d="M1606.394,1990.722h-162.347c-4.736,0-8.575-3.84-8.575-8.575v-77.571&#10;&#9;&#9;&#9;&#9;c0-4.735,3.839-8.573,8.575-8.573h162.347c4.735,0,8.575,3.838,8.575,8.573v77.571&#10;&#9;&#9;&#9;&#9;C1614.969,1986.882,1611.129,1990.722,1606.394,1990.722z" style="fill:#00FFFF;"/>
			<g>
				<path d="M1442.236,1975.382v-64.041c0-4.735,3.84-8.575,8.575-8.575h148.818&#10;&#9;&#9;&#9;&#9;&#9;c4.735,0,8.573,3.84,8.573,8.575v64.041c0,4.735-3.838,8.573-8.573,8.573h-148.818&#10;&#9;&#9;&#9;&#9;&#9;C1446.076,1983.955,1442.236,1980.117,1442.236,1975.382z" style="fill:#043340;"/>
			</g>
			<g>
				<path d="M1520.783,1945.718l-82.669-40.227l3.552-7.299c85.811,41.133,82.837,41.788,86.007,40.208&#10;&#9;&#9;&#9;&#9;&#9;l78.72-39.268l3.623,7.265l-78.72,39.268C1528.088,1947.264,1524.162,1947.358,1520.783,1945.718z" style="fill:#00FFFF;"/>
			</g>
		</g>
	</g>
</g>
<g>
	<g>
		<g>
			<path d="M379.855,860.745c5.315,9.207-1.503,23.094-15.228,31.019&#10;&#9;&#9;&#9;&#9;c-13.726,7.925-29.161,6.885-34.477-2.322c-5.315-9.207,1.502-23.094,15.228-31.018&#10;&#9;&#9;&#9;&#9;C359.104,850.499,374.54,851.538,379.855,860.745z" style="fill:#043340;"/>
			<path d="M340.453,874.573c-2.087-2.458-7.332-11.728-23.468-40.485l11.048-8.34&#10;&#9;&#9;&#9;&#9;c12.604,12.639,28.851,29.267,31.511,31.721C360,857.89,340.453,874.573,340.453,874.573z" style="fill:#043340;"/>
			<path d="M338.488,825.679c0,11.13-9.023,20.154-20.153,20.154c-11.13,0-20.153-9.023-20.153-20.154&#10;&#9;&#9;&#9;&#9;c0-11.13,9.023-20.153,20.153-20.153C329.465,805.526,338.488,814.549,338.488,825.679z" style="fill:#C7D8EA;"/>
			<path d="M318.335,805.526c-1.607,0-3.169,0.188-4.667,0.544&#10;&#9;&#9;&#9;&#9;c8.879,2.105,15.485,10.086,15.485,19.609c0,9.524-6.606,17.504-15.485,19.61c1.497,0.355,3.06,0.544,4.667,0.544&#10;&#9;&#9;&#9;&#9;c11.13,0,20.153-9.023,20.153-20.154C338.488,814.549,329.465,805.526,318.335,805.526z" style="opacity:0.46;fill:#A3B6BF;"/>
			<path d="M313.668,845.289c20.86,4.081,32.663-22.223,16.826-35.005c-4.557-3.76-10.863-5.379-16.826-4.214&#10;&#9;&#9;&#9;&#9;c12.135-3.522,25.402,5.66,25.496,19.609C339.064,839.481,325.912,848.837,313.668,845.289z" style="fill:#043340;"/>
			<path d="M318.335,824.09c0,4.595-3.725,8.319-8.319,8.319c-4.595,0-8.32-3.725-8.32-8.319&#10;&#9;&#9;&#9;&#9;c0-4.595,3.725-8.319,8.32-8.319C314.61,815.771,318.335,819.496,318.335,824.09z" style="opacity:0.46;fill:#C7D8EA;"/>
		</g>
		<g>
			<path d="M580.451,863.313c-5.315,9.207,1.503,23.094,15.229,31.019&#10;&#9;&#9;&#9;&#9;c13.725,7.924,29.162,6.885,34.477-2.322c5.316-9.206-1.502-23.094-15.228-31.019&#10;&#9;&#9;&#9;&#9;C601.202,853.067,585.766,854.106,580.451,863.313z" style="fill:#043340;"/>
			<path d="M619.854,877.142c2.087-2.458,7.332-11.728,23.468-40.485l-11.048-8.34&#10;&#9;&#9;&#9;&#9;c-13.382,13.421-30.187,30.388-31.032,30.884C601.155,859.251,619.854,877.142,619.854,877.142z" style="fill:#043340;"/>
			<path d="M621.818,828.248c0,11.13,9.023,20.153,20.153,20.153c11.13,0,20.153-9.022,20.153-20.153&#10;&#9;&#9;&#9;&#9;c0-11.13-9.023-20.153-20.153-20.153C630.841,808.096,621.818,817.118,621.818,828.248z" style="fill:#C7D8EA;"/>
			<path d="M641.971,808.096c1.607,0,3.17,0.188,4.668,0.543&#10;&#9;&#9;&#9;&#9;c-8.879,2.106-15.486,10.086-15.486,19.61c0,9.524,6.607,17.504,15.486,19.61c-1.498,0.354-3.061,0.543-4.668,0.543&#10;&#9;&#9;&#9;&#9;c-11.13,0-20.153-9.022-20.153-20.153C621.818,817.118,630.841,808.096,641.971,808.096z" style="opacity:0.46;fill:#A3B6BF;"/>
			<path d="M646.639,847.858c-20.861,4.08-32.663-22.224-16.827-35.005c4.557-3.76,10.864-5.379,16.827-4.215&#10;&#9;&#9;&#9;&#9;c-12.136-3.521-25.403,5.66-25.497,19.61C621.243,842.05,634.396,851.407,646.639,847.858z" style="fill:#043340;"/>
			<path d="M641.971,826.66c0,4.595,3.726,8.319,8.319,8.319c4.596,0,8.32-3.725,8.32-8.319&#10;&#9;&#9;&#9;&#9;c0-4.595-3.725-8.319-8.32-8.319C645.696,818.34,641.971,822.065,641.971,826.66z" style="opacity:0.46;fill:#C7D8EA;"/>
		</g>
		<path d="M266.344,994.22c0,52.641,95.02,95.315,212.232,95.315c117.212,0,212.232-42.674,212.232-95.315&#10;&#9;&#9;&#9;c0-52.64-95.02-95.314-212.232-95.314C361.363,898.907,266.344,941.58,266.344,994.22z" style="fill:#043340;"/>
		<path d="M666.033,1038.951c-3.764,3.175-7.917,6.244-12.43,9.192&#10;&#9;&#9;&#9;c10.995-31.626,15.758-66.741,14.606-96.768c3.468,3.089,6.571,6.275,9.287,9.546&#10;&#9;&#9;&#9;C677.398,985.676,673.644,1013.015,666.033,1038.951z" style="fill:#A2BFDC;"/>
		<path d="M279.714,960.85c2.729-3.278,5.848-6.47,9.332-9.566c-1.781,30.31,4.295,66.032,16.412,98.086&#10;&#9;&#9;&#9;c-4.699-2.97-9.029-6.066-12.96-9.275C284.009,1013.66,279.586,985.857,279.714,960.85z" style="fill:#A2BFDC;"/>
		<path d="M420.892,1129.233c39.31-5.455,79.192-6.292,118.825-2.442&#10;&#9;&#9;&#9;c91.152,8.857,123.591-127.671,110.592-196.386c-6.627-35.039-45.677-60.148-78.649-67.946&#10;&#9;&#9;&#9;c-59.756-14.133-123.593-15.025-183.657-2.417c-32.229,6.864-64.107,28.727-76.657,60.15&#10;&#9;&#9;&#9;C285.133,985.838,331.853,1141.587,420.892,1129.233z" style="fill:#A2BFDC;"/>
		<path d="M311.346,920.192c6.203-15.532,17.129-28.728,30.485-38.932&#10;&#9;&#9;&#9;c-4.485,5.975-8.226,12.481-11.013,19.458c-26.212,65.647,20.506,221.395,109.546,209.041c39.31-5.454,79.192-6.292,118.825-2.441&#10;&#9;&#9;&#9;c21.624,2.101,39.944-3.98,55.136-15.396c-18.08,23.309-42.76,37.964-74.609,34.869c-39.633-3.851-79.515-3.013-118.825,2.442&#10;&#9;&#9;&#9;C331.853,1141.587,285.133,985.838,311.346,920.192z" style="opacity:0.46;fill:#A3B6BF;"/>
		<path d="M559.563,914.407c-53.857-4.186-107.958-4.186-161.817,0&#10;&#9;&#9;&#9;c-86.365,6.712-116.099,149.459,40.109,170.859c49.553,6.788,109.055,3.236,152.483-23.671&#10;&#9;&#9;&#9;C658.341,1019.461,634.099,920.2,559.563,914.407z" style="fill:#C7D8EA;"/>
		<path d="M481.121,1085.894c-14.148,0-28.597-0.998-42.946-2.963&#10;&#9;&#9;&#9;c-82.045-11.24-110.097-55.567-108.991-93.304c1.13-38.584,30.685-69.911,68.746-72.869c26.74-2.079,53.902-3.133,80.724-3.133&#10;&#9;&#9;&#9;c0,0,0,0,0.003,0c26.822,0,53.982,1.054,80.725,3.133c32.568,2.531,58.624,24.777,66.382,56.674&#10;&#9;&#9;&#9;c8.145,33.492-6.247,67.311-36.667,86.158c-35.085,21.74-78.08,26.304-107.972,26.304&#10;&#9;&#9;&#9;C481.122,1085.894,481.122,1085.894,481.121,1085.894z" style="fill:#043340;"/>
		<g style="opacity:0.34;">
			<path d="M493.641,879.798c0.919,8.173,25.659,12.101,54.79,15.868c29.165,3.505,54.11,5.774,57.01-1.922&#10;&#9;&#9;&#9;&#9;c2.941-7.492-20.293-23.261-53.361-27.323C519.028,862.234,492.63,871.813,493.641,879.798z" style="fill:#A2BFDC;"/>
		</g>
		<path d="M542,982.29c-0.295-36.953-39.543-50.291-63.624-25.393&#10;&#9;&#9;&#9;c-24.446-24.487-63.506-10.592-63.212,26.404c0.357,44.771,63.13,71.266,63.996,72.038&#10;&#9;&#9;&#9;C479.878,1054.678,542.352,1026.645,542,982.29z M479.074,1044.574c-77.665-39.728-57.072-90.12-30.035-90.337h0.26&#10;&#9;&#9;&#9;c16.285,0,24.755,12.166,25.151,12.75l4.054,6.112l3.965-6.19c0.083-0.131,8.522-13.007,25.196-13.14h0.188&#10;&#9;&#9;&#9;c13.887,0,24.434,12.257,24.564,28.598C532.518,995.034,525.659,1019.799,479.074,1044.574z" style="fill:#FF007A;"/>
	</g>
	<g>
		<g>
			<path d="M903.174,860.776c5.315,9.207-1.502,23.094-15.227,31.018&#10;&#9;&#9;&#9;&#9;c-13.726,7.925-29.162,6.885-34.477-2.322c-5.316-9.206,1.503-23.094,15.228-31.018&#10;&#9;&#9;&#9;&#9;C882.423,850.531,897.858,851.57,903.174,860.776z" style="fill:#043340;"/>
			<path d="M863.772,874.604c-2.087-2.458-7.332-11.728-23.469-40.485l11.049-8.34&#10;&#9;&#9;&#9;&#9;c13.382,13.42,30.187,30.388,31.031,30.883C882.47,856.714,863.772,874.604,863.772,874.604z" style="fill:#043340;"/>
			<path d="M861.807,825.711c0,11.13-9.023,20.153-20.153,20.153c-11.13,0-20.153-9.023-20.153-20.153&#10;&#9;&#9;&#9;&#9;c0-11.13,9.023-20.153,20.153-20.153C852.784,805.558,861.807,814.581,861.807,825.711z" style="fill:#C7D8EA;"/>
			<path d="M841.654,805.558c-1.606,0-3.169,0.188-4.668,0.544&#10;&#9;&#9;&#9;&#9;c8.88,2.106,15.486,10.086,15.486,19.609c0,9.524-6.606,17.504-15.486,19.61c1.499,0.355,3.061,0.544,4.668,0.544&#10;&#9;&#9;&#9;&#9;c11.13,0,20.153-9.023,20.153-20.153C861.807,814.581,852.784,805.558,841.654,805.558z" style="opacity:0.46;fill:#A3B6BF;"/>
			<path d="M836.986,845.321c20.861,4.081,32.664-22.223,16.827-35.005&#10;&#9;&#9;&#9;&#9;c-4.557-3.76-10.863-5.379-16.827-4.214c12.135-3.522,25.402,5.66,25.497,19.609C862.383,839.512,849.23,848.869,836.986,845.321&#10;&#9;&#9;&#9;&#9;z" style="fill:#043340;"/>
			
				<ellipse ry="8.319" rx="8.319" cy="824.122" cx="833.334" style="opacity:0.46;fill:#C7D8EA;" transform="matrix(0.8949 -0.4463 0.4463 0.8949 -280.2275 458.6043)"/>
		</g>
		<g>
			<path d="M1103.771,863.345c-5.315,9.207,1.502,23.094,15.228,31.019&#10;&#9;&#9;&#9;&#9;c13.726,7.924,29.162,6.885,34.478-2.322c5.315-9.207-1.503-23.094-15.229-31.019&#10;&#9;&#9;&#9;&#9;C1124.521,853.099,1109.086,854.138,1103.771,863.345z" style="fill:#043340;"/>
			<path d="M1143.173,877.173c2.087-2.458,7.331-11.728,23.468-40.485l-11.048-8.34&#10;&#9;&#9;&#9;&#9;c-13.382,13.421-30.188,30.388-31.032,30.884C1124.474,859.283,1143.173,877.173,1143.173,877.173z" style="fill:#043340;"/>
			<path d="M1145.138,828.28c0,11.13,9.022,20.153,20.153,20.153c11.129,0,20.152-9.023,20.152-20.153&#10;&#9;&#9;&#9;&#9;c0-11.13-9.023-20.153-20.152-20.153C1154.16,808.127,1145.138,817.15,1145.138,828.28z" style="fill:#C7D8EA;"/>
			<path d="M1165.291,808.127c1.606,0,3.168,0.188,4.667,0.543&#10;&#9;&#9;&#9;&#9;c-8.88,2.105-15.486,10.086-15.486,19.61c0,9.523,6.606,17.503,15.486,19.61c-1.499,0.354-3.061,0.543-4.667,0.543&#10;&#9;&#9;&#9;&#9;c-11.131,0-20.153-9.023-20.153-20.153C1145.138,817.15,1154.16,808.127,1165.291,808.127z" style="opacity:0.46;fill:#A3B6BF;"/>
			<path d="M1169.958,847.89c-20.861,4.08-32.664-22.223-16.827-35.005c4.558-3.76,10.863-5.379,16.827-4.215&#10;&#9;&#9;&#9;&#9;c-12.137-3.521-25.402,5.661-25.497,19.61C1144.562,842.081,1157.715,851.438,1169.958,847.89z" style="fill:#043340;"/>
			<path d="M1165.291,826.691c0,4.595,3.725,8.319,8.318,8.319c4.596,0,8.32-3.725,8.32-8.319&#10;&#9;&#9;&#9;&#9;c0-4.595-3.725-8.319-8.32-8.319C1169.016,818.372,1165.291,822.097,1165.291,826.691z" style="opacity:0.46;fill:#C7D8EA;"/>
		</g>
		<g>
			<path d="M789.662,994.22c0,52.641,95.02,95.315,212.232,95.315c117.214,0,212.233-42.674,212.233-95.315&#10;&#9;&#9;&#9;&#9;c0-52.64-95.02-95.314-212.233-95.314C884.682,898.907,789.662,941.58,789.662,994.22z" style="fill:#043340;"/>
			<g>
				<path d="M1189.353,1038.951c-3.766,3.175-7.918,6.244-12.431,9.192&#10;&#9;&#9;&#9;&#9;&#9;c10.994-31.626,15.758-66.741,14.605-96.768c3.469,3.089,6.572,6.275,9.287,9.546&#10;&#9;&#9;&#9;&#9;&#9;C1200.718,985.676,1196.963,1013.015,1189.353,1038.951z" style="fill:#A2BFDC;"/>
				<path d="M803.034,960.85c2.728-3.278,5.847-6.47,9.332-9.566c-1.781,30.31,4.294,66.032,16.412,98.086&#10;&#9;&#9;&#9;&#9;&#9;c-4.7-2.97-9.03-6.066-12.96-9.275C807.328,1013.66,802.905,985.857,803.034,960.85z" style="fill:#A2BFDC;"/>
			</g>
		</g>
		<path d="M944.211,1129.233c39.31-5.455,79.191-6.292,118.826-2.442&#10;&#9;&#9;&#9;c91.151,8.857,123.59-127.671,110.591-196.386c-6.627-35.039-45.678-60.148-78.649-67.946&#10;&#9;&#9;&#9;c-59.756-14.133-123.592-15.025-183.656-2.417c-32.229,6.864-64.107,28.727-76.657,60.15&#10;&#9;&#9;&#9;C808.453,985.838,855.172,1141.587,944.211,1129.233z" style="fill:#A2BFDC;"/>
		<path d="M834.666,920.192c6.203-15.532,17.129-28.728,30.485-38.932&#10;&#9;&#9;&#9;c-4.486,5.975-8.226,12.481-11.013,19.458c-26.212,65.647,20.506,221.395,109.546,209.041c39.31-5.454,79.192-6.292,118.825-2.441&#10;&#9;&#9;&#9;c21.624,2.101,39.943-3.98,55.137-15.396c-18.079,23.309-42.761,37.964-74.61,34.869c-39.633-3.851-79.514-3.013-118.824,2.442&#10;&#9;&#9;&#9;C855.172,1141.587,808.453,985.838,834.666,920.192z" style="opacity:0.46;fill:#A3B6BF;"/>
		<path d="M1082.883,914.407c-53.857-4.186-107.959-4.186-161.817,0&#10;&#9;&#9;&#9;c-86.365,6.712-116.099,149.459,40.109,170.859c49.553,6.788,109.054,3.236,152.483-23.671&#10;&#9;&#9;&#9;C1181.66,1019.461,1157.417,920.2,1082.883,914.407z" style="fill:#C7D8EA;"/>
		<path d="M1004.44,1085.894c-14.148,0-28.596-0.998-42.945-2.963&#10;&#9;&#9;&#9;c-82.045-11.24-110.097-55.567-108.991-93.304c1.13-38.584,30.685-69.911,68.746-72.869c26.74-2.079,53.902-3.133,80.724-3.133&#10;&#9;&#9;&#9;c0,0,0,0,0.003,0c26.821,0,53.981,1.054,80.725,3.133c32.568,2.531,58.624,24.777,66.381,56.674&#10;&#9;&#9;&#9;c8.146,33.492-6.247,67.311-36.665,86.158c-35.086,21.74-78.081,26.304-107.973,26.304&#10;&#9;&#9;&#9;C1004.44,1085.894,1004.44,1085.894,1004.44,1085.894z" style="fill:#043340;"/>
		<g style="opacity:0.34;">
			<path d="M1016.96,879.798c0.92,8.173,25.659,12.101,54.791,15.868c29.163,3.505,54.108,5.774,57.009-1.922&#10;&#9;&#9;&#9;&#9;c2.941-7.492-20.293-23.261-53.361-27.323C1042.347,862.234,1015.949,871.813,1016.96,879.798z" style="fill:#A2BFDC;"/>
		</g>
		<g>
			<path d="M1061.53,994.294c-2.456-0.273-4.669,1.473-4.954,3.923&#10;&#9;&#9;&#9;&#9;c-3.245,27.919-25.805,48.973-52.478,48.973c-26.671,0-49.231-21.053-52.477-48.97c-0.285-2.451-2.497-4.203-4.955-3.923&#10;&#9;&#9;&#9;&#9;c-2.451,0.286-4.208,2.504-3.923,4.955c3.771,32.423,30.147,56.876,61.355,56.876c31.209,0,57.585-24.453,61.355-56.879&#10;&#9;&#9;&#9;&#9;C1065.737,996.798,1063.981,994.581,1061.53,994.294z" style="fill:#FF007A;"/>
			<path d="M935.911,944.051L912.824,958.2c-2.103,1.289-2.763,4.041-1.474,6.146&#10;&#9;&#9;&#9;&#9;c0.844,1.375,2.311,2.134,3.814,2.134c0.796,0,1.603-0.213,2.33-0.66l23.086-14.15c2.103-1.289,2.763-4.04,1.474-6.145&#10;&#9;&#9;&#9;&#9;C940.765,943.421,938.013,942.761,935.911,944.051z" style="fill:#FF007A;"/>
			<path d="M1090.978,963.008l-23.086-14.15c-2.103-1.291-4.854-0.63-6.145,1.474&#10;&#9;&#9;&#9;&#9;c-1.289,2.104-0.629,4.856,1.474,6.145l23.087,14.15c0.728,0.447,1.533,0.66,2.33,0.66c1.504,0,2.971-0.759,3.813-2.134&#10;&#9;&#9;&#9;&#9;C1093.741,967.049,1093.081,964.297,1090.978,963.008z" style="fill:#FF007A;"/>
		</g>
	</g>
	<g>
		<g>
			<path d="M1426.809,860.839c5.316,9.206-1.502,23.094-15.228,31.018&#10;&#9;&#9;&#9;&#9;c-13.727,7.925-29.161,6.885-34.478-2.321c-5.315-9.206,1.503-23.095,15.229-31.019&#10;&#9;&#9;&#9;&#9;C1406.057,850.593,1421.493,851.632,1426.809,860.839z" style="fill:#043340;"/>
			<path d="M1387.407,874.668c-2.088-2.459-7.333-11.728-23.47-40.485l11.049-8.34&#10;&#9;&#9;&#9;&#9;c13.381,13.421,30.187,30.388,31.031,30.883C1406.104,856.777,1387.407,874.668,1387.407,874.668z" style="fill:#043340;"/>
			<path d="M1385.442,825.774c0,11.13-9.022,20.153-20.153,20.153s-20.153-9.023-20.153-20.153&#10;&#9;&#9;&#9;&#9;c0-11.13,9.022-20.153,20.153-20.153S1385.442,814.644,1385.442,825.774z" style="fill:#C7D8EA;"/>
			<path d="M1365.289,805.621c-1.607,0-3.17,0.188-4.668,0.543&#10;&#9;&#9;&#9;&#9;c8.88,2.106,15.486,10.086,15.486,19.61c0,9.523-6.606,17.504-15.486,19.609c1.498,0.355,3.061,0.543,4.668,0.543&#10;&#9;&#9;&#9;&#9;c11.131,0,20.153-9.023,20.153-20.153C1385.442,814.644,1376.42,805.621,1365.289,805.621z" style="opacity:0.46;fill:#A3B6BF;"/>
			<path d="M1360.621,845.384c20.861,4.081,32.663-22.223,16.828-35.005&#10;&#9;&#9;&#9;&#9;c-4.558-3.76-10.864-5.379-16.828-4.214c12.136-3.522,25.402,5.66,25.496,19.61&#10;&#9;&#9;&#9;&#9;C1386.018,839.575,1372.865,848.933,1360.621,845.384z" style="fill:#043340;"/>
			<path d="M1365.289,824.185c0,4.595-3.725,8.32-8.32,8.32c-4.594,0-8.318-3.725-8.318-8.32&#10;&#9;&#9;&#9;&#9;c0-4.595,3.725-8.32,8.318-8.32C1361.564,815.865,1365.289,819.59,1365.289,824.185z" style="opacity:0.46;fill:#C7D8EA;"/>
			<path d="M1627.404,863.408c-5.315,9.206,1.502,23.094,15.229,31.019&#10;&#9;&#9;&#9;&#9;c13.726,7.924,29.16,6.885,34.476-2.321c5.315-9.207-1.502-23.094-15.227-31.019&#10;&#9;&#9;&#9;&#9;C1648.156,853.162,1632.72,854.201,1627.404,863.408z" style="fill:#043340;"/>
			<path d="M1666.808,877.236c2.086-2.459,7.332-11.727,23.469-40.485l-11.049-8.34&#10;&#9;&#9;&#9;&#9;c-13.382,13.421-30.188,30.389-31.031,30.883C1648.109,859.346,1666.808,877.236,1666.808,877.236z" style="fill:#043340;"/>
			<path d="M1668.771,828.343c0,11.131,9.022,20.154,20.153,20.154c11.13,0,20.153-9.023,20.153-20.154&#10;&#9;&#9;&#9;&#9;c0-11.13-9.023-20.152-20.153-20.152C1677.794,808.19,1668.771,817.212,1668.771,828.343z" style="fill:#C7D8EA;"/>
			<path d="M1688.925,808.19c1.606,0,3.169,0.188,4.668,0.543&#10;&#9;&#9;&#9;&#9;c-8.881,2.106-15.485,10.086-15.485,19.609c0,9.524,6.604,17.504,15.485,19.61c-1.499,0.355-3.062,0.544-4.668,0.544&#10;&#9;&#9;&#9;&#9;c-11.131,0-20.153-9.023-20.153-20.154C1668.771,817.212,1677.794,808.19,1688.925,808.19z" style="opacity:0.46;fill:#A3B6BF;"/>
			<path d="M1693.593,847.953c-20.86,4.08-32.663-22.223-16.828-35.004&#10;&#9;&#9;&#9;&#9;c4.559-3.761,10.864-5.379,16.828-4.215c-12.136-3.521-25.403,5.66-25.497,19.609&#10;&#9;&#9;&#9;&#9;C1668.196,842.144,1681.349,851.501,1693.593,847.953z" style="fill:#043340;"/>
			<path d="M1688.925,826.754c0,4.595,3.725,8.32,8.319,8.32s8.319-3.725,8.319-8.32&#10;&#9;&#9;&#9;&#9;c0-4.595-3.725-8.319-8.319-8.319S1688.925,822.159,1688.925,826.754z" style="opacity:0.46;fill:#C7D8EA;"/>
		</g>
		<g>
			<path d="M1312.982,994.22c0,52.641,95.018,95.315,212.231,95.315c117.214,0,212.233-42.674,212.233-95.315&#10;&#9;&#9;&#9;&#9;c0-52.64-95.019-95.314-212.233-95.314C1408,898.907,1312.982,941.58,1312.982,994.22z" style="fill:#043340;"/>
			<path d="M1712.671,1038.951c-3.765,3.175-7.917,6.244-12.43,9.192&#10;&#9;&#9;&#9;&#9;c10.994-31.626,15.758-66.741,14.605-96.768c3.468,3.089,6.572,6.275,9.287,9.546&#10;&#9;&#9;&#9;&#9;C1724.037,985.676,1720.282,1013.015,1712.671,1038.951z" style="fill:#A2BFDC;"/>
			<path d="M1326.352,960.85c2.729-3.278,5.849-6.47,9.333-9.566c-1.781,30.31,4.294,66.032,16.411,98.086&#10;&#9;&#9;&#9;&#9;c-4.699-2.97-9.029-6.066-12.96-9.275C1330.647,1013.66,1326.224,985.857,1326.352,960.85z" style="fill:#A2BFDC;"/>
		</g>
		<path d="M1467.531,1129.233c39.309-5.455,79.19-6.292,118.824-2.442&#10;&#9;&#9;&#9;c91.152,8.857,123.59-127.671,110.592-196.386c-6.627-35.039-45.678-60.148-78.649-67.946&#10;&#9;&#9;&#9;c-59.756-14.133-123.593-15.025-183.656-2.417c-32.229,6.864-64.107,28.727-76.657,60.15&#10;&#9;&#9;&#9;C1331.771,985.838,1378.491,1141.587,1467.531,1129.233z" style="fill:#A2BFDC;"/>
		<path d="M1357.984,920.192c6.203-15.532,17.13-28.728,30.485-38.932&#10;&#9;&#9;&#9;c-4.484,5.975-8.227,12.481-11.013,19.458c-26.212,65.647,20.506,221.395,109.546,209.041&#10;&#9;&#9;&#9;c39.311-5.454,79.192-6.292,118.825-2.441c21.624,2.101,39.943-3.98,55.137-15.396c-18.08,23.309-42.761,37.964-74.609,34.869&#10;&#9;&#9;&#9;c-39.634-3.851-79.516-3.013-118.824,2.442C1378.491,1141.587,1331.771,985.838,1357.984,920.192z" style="opacity:0.46;fill:#A3B6BF;"/>
		<path d="M1606.202,914.407c-53.856-4.186-107.96-4.186-161.817,0&#10;&#9;&#9;&#9;c-86.364,6.712-116.1,149.459,40.108,170.859c49.552,6.788,109.055,3.236,152.483-23.671&#10;&#9;&#9;&#9;C1704.979,1019.461,1680.736,920.2,1606.202,914.407z" style="fill:#C7D8EA;"/>
		<path d="M1527.759,1085.894c-14.148,0-28.597-0.998-42.945-2.963&#10;&#9;&#9;&#9;c-82.045-11.24-110.097-55.567-108.991-93.304c1.13-38.584,30.686-69.911,68.746-72.869c26.74-2.079,53.901-3.133,80.724-3.133&#10;&#9;&#9;&#9;c0,0,0,0,0.003,0c26.821,0,53.982,1.054,80.725,3.133c32.568,2.531,58.624,24.777,66.381,56.674&#10;&#9;&#9;&#9;c8.146,33.492-6.247,67.311-36.667,86.158c-35.083,21.74-78.079,26.304-107.971,26.304&#10;&#9;&#9;&#9;C1527.76,1085.894,1527.76,1085.894,1527.759,1085.894z" style="fill:#043340;"/>
		<g style="opacity:0.34;">
			<path d="M1540.279,879.798c0.92,8.173,25.659,12.101,54.791,15.868&#10;&#9;&#9;&#9;&#9;c29.163,3.505,54.109,5.774,57.008-1.922c2.942-7.492-20.292-23.261-53.36-27.323&#10;&#9;&#9;&#9;&#9;C1565.666,862.234,1539.269,871.813,1540.279,879.798z" style="fill:#A2BFDC;"/>
		</g>
		<g>
			<path d="M1589.158,1001.482c-2.455-0.274-4.669,1.472-4.954,3.923&#10;&#9;&#9;&#9;&#9;c-3.245,27.918-25.805,48.973-52.478,48.973c-26.672,0-49.232-21.053-52.478-48.97c-0.285-2.452-2.497-4.202-4.954-3.923&#10;&#9;&#9;&#9;&#9;c-2.451,0.286-4.207,2.504-3.924,4.955c3.772,32.423,30.148,56.874,61.355,56.874c31.21,0,57.587-24.452,61.355-56.877&#10;&#9;&#9;&#9;&#9;C1593.367,1003.986,1591.609,1001.768,1589.158,1001.482z" style="fill:#FF007A;"/>
			<path d="M1454.248,947.872c-5.039,0-8.611,2.257-10.715,4.14c-2.103-1.883-5.674-4.14-10.714-4.14&#10;&#9;&#9;&#9;&#9;c-7.526,0-13.42,6.489-13.42,14.773c0,5.641,2.978,16.59,22.925,26.555l1.209,0.604l1.209-0.604&#10;&#9;&#9;&#9;&#9;c19.948-9.965,22.926-20.915,22.926-26.555C1467.668,954.361,1461.774,947.872,1454.248,947.872z M1443.533,983.742&#10;&#9;&#9;&#9;&#9;c-11.918-6.222-18.722-13.867-18.722-21.097c0-4.539,2.806-9.361,8.008-9.361c5.458,0,8.308,4.002,8.467,4.232l2.247,3.389&#10;&#9;&#9;&#9;&#9;l2.256-3.401c0.027-0.042,2.862-4.22,8.459-4.22c5.202,0,8.008,4.823,8.008,9.361&#10;&#9;&#9;&#9;&#9;C1462.256,969.875,1455.451,977.52,1443.533,983.742z" style="fill:#FF007A;"/>
			<path d="M1617.607,947.872c-5.039,0-8.611,2.255-10.715,4.14c-2.104-1.884-5.674-4.14-10.714-4.14&#10;&#9;&#9;&#9;&#9;c-7.526,0-13.421,6.489-13.421,14.773c0,5.641,2.979,16.59,22.926,26.555l1.209,0.604l1.209-0.604&#10;&#9;&#9;&#9;&#9;c19.949-9.965,22.927-20.915,22.927-26.555C1631.028,954.361,1625.133,947.872,1617.607,947.872z M1606.893,983.742&#10;&#9;&#9;&#9;&#9;c-11.918-6.222-18.723-13.867-18.723-21.097c0-4.539,2.807-9.361,8.009-9.361c5.457,0,8.306,3.998,8.467,4.232l2.247,3.39&#10;&#9;&#9;&#9;&#9;l2.256-3.402c0.027-0.042,2.861-4.22,8.459-4.22c5.201,0,8.01,4.823,8.01,9.361&#10;&#9;&#9;&#9;&#9;C1625.617,969.875,1618.813,977.52,1606.893,983.742z" style="fill:#FF007A;"/>
		</g>
	</g>
</g>
</svg>