<?xml version="1.0" encoding="UTF-8"?>
<svg xmlns:xlink="http://www.w3.org/1999/xlink" xmlns="http://www.w3.org/2000/svg" xml:space="preserve" style="max-height: 500px; background: transparent;" viewBox="128.667 31.6667 242 271" y="0px" x="0px" id="PRINT" version="1.1" width="242" height="271">
<g>
	
	<text transform="matrix(1 0 0 1 146.6938 385.4098)"><tspan style="fill:#140D3F; font-family:'Dosis-ExtraBold'; font-size:115.7351px;" y="0" x="0">x</tspan><tspan style="fill:#140D3F; font-family:'Dosis-ExtraBold'; font-size:115.7351px;" y="0" x="53.585">te</tspan><tspan style="fill:#140D3F; font-family:'Dosis-ExtraBold'; font-size:115.7351px;" y="0" x="149.875">x</tspan></text>
	<text style="fill:#A044FF; font-family:'Comfortaa-Bold'; font-size:25.1075px;" transform="matrix(1 0 0 1 171.0381 434.9258)">Music Festival</text>
	<g id="CUSTOM-group">
		<linearGradient y2="98.9746" x2="312.0249" y1="282.2346" x1="309.5031" gradientUnits="userSpaceOnUse" id="SVGID_1_">
			<stop style="stop-color:#A044FF" offset="0"/>
			<stop style="stop-color:#FF3887" offset="1"/>
		</linearGradient>
		<path d="M311.084,99.327c-5.148,0-9.335,4.197-9.335,9.357v114.854&#10;&#9;&#9;&#9;c0.471,12.417,18.238,12.372,18.706,0V108.684C320.455,103.525,316.251,99.327,311.084,99.327L311.084,99.327z" style="fill:url(#SVGID_1_);"/>
		
			<linearGradient y2="98.135" x2="250.9352" y1="281.3939" x1="248.4133" gradientUnits="userSpaceOnUse" id="SVGID_00000055671988283391846870000002124928786345382298_">
			<stop style="stop-color:#A044FF" offset="0"/>
			<stop style="stop-color:#FF3887" offset="1"/>
		</linearGradient>
		<path d="M250,99.327&#10;&#9;&#9;&#9;c-5.167,0-9.371,4.197-9.371,9.357v114.854c0.472,12.399,18.274,12.389,18.742,0V108.684&#10;&#9;&#9;&#9;C259.371,103.525,255.167,99.327,250,99.327L250,99.327z" style="fill:url(#SVGID_00000055671988283391846870000002124928786345382298_);"/>
		
			<linearGradient y2="98.5549" x2="281.489" y1="281.8145" x1="278.9671" gradientUnits="userSpaceOnUse" id="SVGID_00000075146139864539380700000017830147988129699463_">
			<stop style="stop-color:#A044FF" offset="0"/>
			<stop style="stop-color:#FF3887" offset="1"/>
		</linearGradient>
		<path d="M280.542,133.54&#10;&#9;&#9;&#9;c-5.147,0-9.335,4.197-9.335,9.357v46.429c0.471,12.417,18.238,12.371,18.706,0v-46.429&#10;&#9;&#9;&#9;C289.913,137.737,285.709,133.54,280.542,133.54z" style="fill:url(#SVGID_00000075146139864539380700000017830147988129699463_);"/>
		
			<linearGradient y2="99.3952" x2="342.5608" y1="282.6548" x1="340.039" gradientUnits="userSpaceOnUse" id="SVGID_00000032630366093719297720000009813380811971432338_">
			<stop style="stop-color:#A044FF" offset="0"/>
			<stop style="stop-color:#FF3887" offset="1"/>
		</linearGradient>
		<path d="M341.625,150.646&#10;&#9;&#9;&#9;c-5.147,0-9.335,4.197-9.335,9.357v12.217c0.471,12.417,18.238,12.372,18.706,0v-12.217&#10;&#9;&#9;&#9;C350.996,154.843,346.793,150.646,341.625,150.646z" style="fill:url(#SVGID_00000032630366093719297720000009813380811971432338_);"/>
		
			<linearGradient y2="96.8735" x2="159.3091" y1="280.1329" x1="156.7873" gradientUnits="userSpaceOnUse" id="SVGID_00000096054205341831427080000004094096555094362047_">
			<stop style="stop-color:#A044FF" offset="0"/>
			<stop style="stop-color:#FF3887" offset="1"/>
		</linearGradient>
		<path d="M158.375,150.646&#10;&#9;&#9;&#9;c-5.167,0-9.371,4.197-9.371,9.356v12.217c0.473,12.381,18.24,12.408,18.706,0v-12.217&#10;&#9;&#9;&#9;C167.71,154.843,163.522,150.646,158.375,150.646L158.375,150.646z" style="fill:url(#SVGID_00000096054205341831427080000004094096555094362047_);"/>
		
			<linearGradient y2="97.2932" x2="189.8452" y1="280.5533" x1="187.3234" gradientUnits="userSpaceOnUse" id="SVGID_00000008114605849121426290000007506119441195170749_">
			<stop style="stop-color:#A044FF" offset="0"/>
			<stop style="stop-color:#FF3887" offset="1"/>
		</linearGradient>
		<path d="M188.917,116.433&#10;&#9;&#9;&#9;c-5.167,0-9.371,4.197-9.371,9.357v80.642c0.473,12.382,18.24,12.408,18.707,0V125.79&#10;&#9;&#9;&#9;C198.252,120.631,194.064,116.433,188.917,116.433z" style="fill:url(#SVGID_00000008114605849121426290000007506119441195170749_);"/>
		
			<linearGradient y2="97.714" x2="220.3814" y1="280.9735" x1="217.8595" gradientUnits="userSpaceOnUse" id="SVGID_00000018217481864332506920000007844027030568869262_">
			<stop style="stop-color:#A044FF" offset="0"/>
			<stop style="stop-color:#FF3887" offset="1"/>
		</linearGradient>
		<path d="M219.458,65.115&#10;&#9;&#9;&#9;c-5.167,0-9.371,4.197-9.371,9.357V257.75c0.472,12.381,18.239,12.408,18.706,0V74.471&#10;&#9;&#9;&#9;C228.794,69.312,224.606,65.115,219.458,65.115z" style="fill:url(#SVGID_00000018217481864332506920000007844027030568869262_);"/>
	</g>
</g>
</svg>