<?xml version="1.0" encoding="UTF-8"?>
<svg xmlns="http://www.w3.org/2000/svg" version="1.1" width="1024" height="1024" style="background: transparent;">

<path d="M0 0 C10.75024506 7.77347117 17.06865553 18.10385865 19.56126022 31.12508774 C20.39001599 37.16612345 20.28674206 43.24566364 20.29541016 49.33251953 C20.30472522 50.84136991 20.3148962 52.35021521 20.32585144 53.85905457 C20.3529878 57.92650378 20.3682519 61.99391869 20.38127947 66.06143427 C20.39698217 70.32288676 20.42374938 74.58426991 20.4493103 78.84567261 C20.49597231 86.90244591 20.53277703 94.95923243 20.56598318 103.0160712 C20.60429379 112.19392241 20.65368035 121.37170375 20.70396733 130.54949594 C20.80709996 149.41706145 20.89602785 168.28466917 20.9765625 187.15234375 C25.9265625 186.16234375 30.8765625 185.17234375 35.9765625 184.15234375 C35.93015625 181.68121094 35.88375 179.21007812 35.8359375 176.6640625 C35.80462177 174.23463997 35.78040281 171.80524108 35.75683594 169.37573242 C35.7368875 167.70472933 35.70971849 166.03379451 35.67480469 164.36303711 C35.36734301 149.25672134 37.56996492 136.27161137 48.234375 124.703125 C53.62417913 119.59210384 59.08557031 115.9109042 65.9765625 113.15234375 C66.76675781 112.83394531 67.55695313 112.51554687 68.37109375 112.1875 C80.72206232 107.85767742 92.28941866 110.11341718 103.9765625 115.15234375 C115.37981791 121.28761638 123.24428897 130.89268702 128.0078125 142.83203125 C129.66756535 148.5207003 129.88058906 154.25433982 129.9765625 160.15234375 C130.71519531 159.89839844 131.45382812 159.64445313 132.21484375 159.3828125 C141.42642232 156.2576645 150.43281452 153.5541497 160.0390625 151.96484375 C168.50960856 150.51257282 176.55731963 147.88765587 184.73266602 145.28222656 C195.64848869 141.84504522 206.7044483 139.19037377 217.8671875 136.68969727 C220.01321668 136.22258888 220.01321668 136.22258888 221.9765625 135.15234375 C225.0390625 135.02734375 225.0390625 135.02734375 227.9765625 135.15234375 C228.9765625 136.15234375 228.9765625 136.15234375 229.0390625 139.21484375 C229.0184375 140.18421875 228.9978125 141.15359375 228.9765625 142.15234375 C216.28312872 145.86948263 203.64835192 149.51130795 190.61230469 151.82128906 C185.9045188 152.6733678 181.52943939 153.90869143 177.01220703 155.48339844 C174.5041909 156.3075726 172.02366515 156.76986764 169.4140625 157.15234375 C165.42553246 157.82537371 161.92662685 158.78986877 158.1875 160.30078125 C151.22063619 162.98413162 143.97992939 164.91966931 136.74316406 166.71875 C135.66311096 166.9876001 134.58305786 167.2564502 133.47027588 167.53344727 C132.64735046 167.73768311 131.82442505 167.94191895 130.9765625 168.15234375 C130.97069626 169.33283295 130.96483002 170.51332214 130.95878601 171.72958374 C130.90145036 182.88143884 130.82863217 194.03310097 130.74084759 205.18475914 C130.69621434 210.9172664 130.65694264 216.64970373 130.63012695 222.38232422 C130.60402379 227.91972834 130.5635717 233.45686238 130.51337624 238.99409866 C130.49675491 241.101443 130.48521127 243.20883401 130.47894859 245.31623459 C130.46925594 248.27930434 130.4411351 251.24169047 130.40893555 254.20458984 C130.41037064 255.06630798 130.41180573 255.92802612 130.4132843 256.81585693 C130.21863511 269.56936577 125.09245679 281.06492137 116.4765625 290.40234375 C104.97742203 301.34310411 92.19734711 303.6494129 76.88671875 303.43359375 C71.25178629 303.22107508 66.84472181 302.01485909 61.9765625 299.15234375 C61.29980469 298.80171875 60.62304688 298.45109375 59.92578125 298.08984375 C48.53554544 291.72015848 41.27293192 281.27889295 36.9765625 269.15234375 C36.07458461 264.70361513 35.85496857 260.48813424 35.86303711 255.95361328 C35.86289108 255.26023361 35.86274506 254.56685394 35.8625946 253.85246277 C35.86328654 251.57999449 35.871045 249.30761006 35.87890625 247.03515625 C35.88077299 245.45189458 35.88219568 243.86863233 35.88319397 242.28536987 C35.88699901 238.13271469 35.89681199 233.98009489 35.90789795 229.82745361 C35.91815547 225.58419269 35.92270087 221.34092602 35.92773438 217.09765625 C35.93843617 208.78253591 35.95548826 200.46744424 35.9765625 192.15234375 C35.31269531 192.35730469 34.64882813 192.56226563 33.96484375 192.7734375 C32.64033203 193.17755859 32.64033203 193.17755859 31.2890625 193.58984375 C30.41894531 193.85667969 29.54882812 194.12351562 28.65234375 194.3984375 C26.10630329 195.11578904 23.5762202 195.66988475 20.9765625 196.15234375 C20.96443222 197.340522 20.96443222 197.340522 20.95205688 198.55270386 C20.8737859 206.05496117 20.78640012 213.55703301 20.68903542 221.05906487 C20.63930601 224.91499176 20.59297606 228.77089431 20.5546875 232.62695312 C20.51753691 236.35535012 20.4711009 240.08353101 20.41849899 243.81174088 C20.40011179 245.22689102 20.38494746 246.64208721 20.37321854 248.0573082 C20.22495049 265.34501542 17.327713 278.04950899 5.22265625 290.99609375 C-3.84442732 299.70049397 -14.90325717 304.04007841 -27.3984375 304.46484375 C-39.6546875 304.17505759 -51.98705468 299.36516703 -60.8984375 290.90234375 C-71.26141962 279.75087386 -76.42314893 266.28556605 -76.21875 251.1796875 C-76.2159201 250.37116837 -76.21309021 249.56264923 -76.21017456 248.72962952 C-76.19910527 246.18287457 -76.17402708 243.63648985 -76.1484375 241.08984375 C-76.13839052 239.34831242 -76.1292677 237.6067755 -76.12109375 235.86523438 C-76.09920963 231.62746458 -76.06477396 227.38996662 -76.0234375 223.15234375 C-78.45140979 223.65857211 -80.86241963 224.19894759 -83.27734375 224.76171875 C-83.95978149 224.90013184 -84.64221924 225.03854492 -85.34533691 225.18115234 C-89.29859183 226.13559302 -90.88294076 226.97056525 -93.39648438 230.22265625 C-94.84207795 233.16076654 -96.03716055 236.03158683 -97.0234375 239.15234375 C-97.6834375 239.15234375 -98.3434375 239.15234375 -99.0234375 239.15234375 C-99.0234375 239.81234375 -99.0234375 240.47234375 -99.0234375 241.15234375 C-104.65274695 245.36241952 -110.5806263 249.26304717 -117.80859375 248.5703125 C-118.90494141 248.36341797 -118.90494141 248.36341797 -120.0234375 248.15234375 C-120.84714844 248.00410156 -121.67085937 247.85585938 -122.51953125 247.703125 C-129.86623924 245.94751898 -135.05511439 242.3700458 -139.40625 236.1875 C-143.27449952 228.92438814 -143.50485254 220.03576945 -141.140625 212.2421875 C-137.93111362 205.19614099 -133.42552814 201.19359813 -126.8984375 197.27734375 C-120.69478706 194.96317302 -113.43576869 195.10059783 -107.171875 197.03125 C-99.22493751 200.6685945 -94.90996567 205.57192034 -91.6484375 213.58984375 C-91.0927339 215.10560439 -90.54593144 216.62481735 -90.0234375 218.15234375 C-89.01023437 217.93578125 -89.01023437 217.93578125 -87.9765625 217.71484375 C-87.08453125 217.52921875 -86.1925 217.34359375 -85.2734375 217.15234375 C-84.39171875 216.96671875 -83.51 216.78109375 -82.6015625 216.58984375 C-80.0234375 216.15234375 -80.0234375 216.15234375 -76.0234375 216.15234375 C-76.02620288 215.22542599 -76.02896826 214.29850822 -76.03181744 213.34350204 C-76.09850804 190.75719964 -76.14775837 168.17091005 -76.17887402 145.58452988 C-76.19432245 134.66178633 -76.21537323 123.73910796 -76.24975586 112.81640625 C-76.27972022 103.29273822 -76.2990272 93.76911739 -76.30570298 84.24540353 C-76.30960333 79.205797 -76.31872737 74.16632551 -76.34062767 69.12676239 C-76.36110409 64.37602455 -76.36724889 59.62547642 -76.36276054 54.87469864 C-76.36358078 53.13816672 -76.3694796 51.40162797 -76.38105392 49.66513443 C-76.49168367 32.199582 -73.72036337 17.39646129 -61.2734375 4.21875 C-43.55927981 -12.04998163 -19.70693735 -13.00469732 0 0 Z " fill="#BFB2F3" transform="translate(350.0234375,353.84765625)"/>
<path d="M0 0 C8.3851494 6.86200428 13.28793196 13.471095 17.0859375 23.70703125 C17.43648193 24.63894287 17.78702637 25.57085449 18.14819336 26.53100586 C19.79893296 32.43884476 19.32957952 38.65643084 19.28125 44.734375 C19.27751431 46.09200328 19.27466997 47.44963428 19.27267456 48.80726624 C19.26508181 52.35991007 19.24547147 55.91238728 19.2232666 59.46496582 C19.20271363 63.09836575 19.19365274 66.73179292 19.18359375 70.36523438 C19.16222089 77.47923434 19.12813837 84.59312185 19.0859375 91.70703125 C19.75110886 91.54032928 20.41628021 91.37362732 21.10160828 91.20187378 C24.18352234 90.42974795 27.26558855 89.65823106 30.34765625 88.88671875 C31.91622375 88.49359497 31.91622375 88.49359497 33.51647949 88.0925293 C38.8140478 86.76686058 44.11330494 85.44822312 49.41674805 84.14624023 C50.78539253 83.81002907 50.78539253 83.81002907 52.1816864 83.46702576 C69.37276808 79.44890189 90.61919499 76.90969523 107.0859375 84.70703125 C107.89289063 85.05765625 108.69984375 85.40828125 109.53125 85.76953125 C120.19062707 90.9727526 126.83144776 99.82769321 131.0859375 110.70703125 C134.30978559 122.56760818 132.92414107 136.00612142 127.0859375 146.70703125 C109.95730185 174.07884604 71.38953614 181.02316409 42.5234375 188.64453125 C41.37576904 188.95124756 40.22810059 189.25796387 39.0456543 189.57397461 C37.96453369 189.85378174 36.88341309 190.13358887 35.76953125 190.421875 C34.81618896 190.6705835 33.86284668 190.91929199 32.88061523 191.17553711 C29.88925724 191.74443607 27.12379178 191.79929139 24.0859375 191.70703125 C23.7559375 190.05703125 23.4259375 188.40703125 23.0859375 186.70703125 C26.31293638 183.94215114 29.25365778 182.87554424 33.3359375 181.76953125 C34.5940625 181.42535156 35.8521875 181.08117187 37.1484375 180.7265625 C40.86515639 179.75074088 44.59977072 178.85545271 48.3359375 177.95703125 C89.56327864 168.42044185 89.56327864 168.42044185 120.43359375 141.53125 C125.0911501 132.66686856 125.48528987 122.1080967 123.0234375 112.45703125 C119.58576758 102.57774619 112.81721725 97.08411888 103.7890625 92.5546875 C82.2285852 82.38942891 54.88377067 91.54668133 33.11914062 97.01367188 C32.41362061 97.19005692 31.70810059 97.36644196 30.98120117 97.548172 C29.03801211 98.0353423 27.09611364 98.52765198 25.15429688 99.02026367 C22.0859375 99.70703125 22.0859375 99.70703125 19.0859375 99.70703125 C19.08962467 100.53510631 19.09331184 101.36318136 19.09711075 102.2163496 C19.18562458 122.40791173 19.25172614 142.5994402 19.29318619 162.79115582 C19.31377124 172.55590999 19.34181389 182.32053429 19.38769531 192.08520508 C19.4276877 200.60064069 19.45339977 209.1159822 19.46229148 217.63150913 C19.46748531 222.13632637 19.47960719 226.64087449 19.50885773 231.14560509 C19.53622332 235.39490126 19.5443403 239.64382018 19.53836823 243.89319611 C19.53945909 245.44387431 19.54728624 246.99456654 19.5627594 248.54516792 C19.71630231 264.74106626 16.12950536 278.42374425 4.8984375 290.45703125 C-6.36487162 301.18851465 -18.75447375 303.40136667 -33.73046875 303.078125 C-40.24613256 302.74888538 -45.34081419 301.10052022 -50.9140625 297.70703125 C-51.87699219 297.12566406 -52.83992187 296.54429687 -53.83203125 295.9453125 C-64.67109513 288.73389753 -71.43036353 278.07672427 -74.46562862 265.4041872 C-74.95132609 262.48290517 -75.03697297 259.75220689 -75.03431702 256.79081726 C-75.03637901 255.01353493 -75.03637901 255.01353493 -75.03848267 253.2003479 C-75.03308975 251.26365738 -75.03308975 251.26365738 -75.02758789 249.2878418 C-75.02730567 247.9078115 -75.02746444 246.52778106 -75.0280304 245.14775085 C-75.028317 241.40848357 -75.02244228 237.66924844 -75.01545644 233.92998862 C-75.00920024 230.01955564 -75.00861731 226.1091219 -75.00743103 222.19868469 C-75.0043244 214.79690694 -74.99612001 207.39514398 -74.98608154 199.99337274 C-74.97489966 191.56536598 -74.96940472 183.13735851 -74.96438611 174.70934618 C-74.95393685 157.37523265 -74.93635034 140.04113351 -74.9140625 122.70703125 C-75.8019043 122.949375 -76.68974609 123.19171875 -77.60449219 123.44140625 C-80.9058339 124.33996563 -84.20833368 125.23399522 -87.51171875 126.125 C-88.93994227 126.51121652 -90.36768354 126.89922105 -91.79492188 127.2890625 C-93.84901097 127.84978877 -95.90476061 128.40401696 -97.9609375 128.95703125 C-99.19682617 129.2921875 -100.43271484 129.62734375 -101.70605469 129.97265625 C-104.9140625 130.70703125 -104.9140625 130.70703125 -108.9140625 130.70703125 C-109.15189453 131.57714844 -109.15189453 131.57714844 -109.39453125 132.46484375 C-111.19856068 138.50485388 -113.02693648 143.38496253 -118.69921875 146.7734375 C-123.79356073 149.03196287 -128.58251525 149.36965661 -133.9140625 147.70703125 C-138.39562374 145.37255945 -141.26523427 142.76137712 -143.9140625 138.45703125 C-145.43893232 132.73876944 -146.26580266 127.72173696 -143.77734375 122.171875 C-140.91402298 117.54997926 -138.29319651 114.25870452 -132.9140625 112.70703125 C-126.62302552 111.98716135 -121.47490303 112.43594858 -115.9140625 115.70703125 C-113.91860065 117.60626525 -112.51544824 119.42626974 -110.9140625 121.70703125 C-110.9140625 122.36703125 -110.9140625 123.02703125 -110.9140625 123.70703125 C-109.85445312 123.36091797 -109.85445312 123.36091797 -108.7734375 123.0078125 C-101.66577665 120.74871929 -94.52061505 118.77667164 -87.2890625 116.95703125 C-86.41217773 116.73442627 -85.53529297 116.51182129 -84.63183594 116.2824707 C-83.80458008 116.07710693 -82.97732422 115.87174316 -82.125 115.66015625 C-81.38556152 115.47614258 -80.64612305 115.29212891 -79.88427734 115.10253906 C-77.9140625 114.70703125 -77.9140625 114.70703125 -74.9140625 114.70703125 C-74.92294495 113.66879211 -74.93182739 112.63055298 -74.940979 111.56085205 C-75.0223762 101.73426752 -75.08217655 91.90775218 -75.12131119 82.08090591 C-75.14210771 77.02986757 -75.170279 71.97910331 -75.21582031 66.92822266 C-75.25956284 62.04579762 -75.28325915 57.16363475 -75.29357147 52.28102875 C-75.30091218 50.42645903 -75.3152457 48.57190223 -75.33698273 46.71744537 C-75.51958294 30.48047991 -73.27000097 16.91190176 -61.84765625 4.453125 C-44.36944499 -12.02454465 -19.79718304 -14.53510651 0 0 Z " fill="#B5A5ED" transform="translate(728.9140625,354.29296875)"/>
<path d="M0 0 C0.80824219 0.60585938 1.61648438 1.21171875 2.44921875 1.8359375 C13.12383149 10.89219394 19.63660762 24.64321874 23 38 C23.17200928 38.62535645 23.34401855 39.25071289 23.52124023 39.89501953 C27.12409855 55.73583768 22.51670479 74.09409614 15 88 C12.26718999 91.94233148 9.25844718 95.48489431 6 99 C5.3503125 99.72960937 4.700625 100.45921875 4.03125 101.2109375 C-7.51770571 113.56453357 -23.69013925 120.55686436 -40.48046875 121.37109375 C-52.32053213 121.62366534 -62.08862764 120.99109003 -73 116 C-73.95648437 115.5771875 -74.91296875 115.154375 -75.8984375 114.71875 C-92.53353129 106.52036567 -104.6483317 92.3627721 -111 75 C-111.25821533 74.2989917 -111.51643066 73.5979834 -111.7824707 72.87573242 C-114.07044039 66.09734225 -114.50588665 59.81002391 -114.4375 52.6875 C-114.42992676 51.58317627 -114.42235352 50.47885254 -114.41455078 49.34106445 C-114.24999049 41.19893353 -113.39248119 34.48031566 -110 27 C-109.56429688 25.98164062 -109.12859375 24.96328125 -108.6796875 23.9140625 C-105.38862842 16.77444254 -101.20216859 10.8678004 -96 5 C-95.46890625 4.37480469 -94.9378125 3.74960937 -94.390625 3.10546875 C-69.1862195 -24.53203531 -27.23857124 -21.95175994 0 0 Z " fill="#BAABF0" transform="translate(615,536)"/>
<path d="M0 0 C10.75024506 7.77347117 17.06865553 18.10385865 19.56126022 31.12508774 C20.39001599 37.16612345 20.28674206 43.24566364 20.29541016 49.33251953 C20.30472522 50.84136991 20.3148962 52.35021521 20.32585144 53.85905457 C20.3529878 57.92650378 20.3682519 61.99391869 20.38127947 66.06143427 C20.39698217 70.32288676 20.42374938 74.58426991 20.4493103 78.84567261 C20.49597231 86.90244591 20.53277703 94.95923243 20.56598318 103.0160712 C20.60429379 112.19392241 20.65368035 121.37170375 20.70396733 130.54949594 C20.80709996 149.41706065 20.89642068 168.28466807 20.9765625 187.15234375 C23.9465625 186.82234375 26.9165625 186.49234375 29.9765625 186.15234375 C28.9865625 186.48234375 27.9965625 186.81234375 26.9765625 187.15234375 C26.9765625 187.81234375 26.9765625 188.47234375 26.9765625 189.15234375 C26.15671875 189.20132813 25.336875 189.2503125 24.4921875 189.30078125 C23.41453125 189.37554688 22.336875 189.4503125 21.2265625 189.52734375 C19.62554687 189.63175781 19.62554687 189.63175781 17.9921875 189.73828125 C15.08162679 190.13791782 13.50884883 190.76656501 10.9765625 192.15234375 C6.25982716 193.90253637 1.51180102 194.94735915 -3.3984375 195.96484375 C-10.82886952 197.5507556 -17.97900757 199.58829354 -25.1796875 202.00390625 C-29.70643963 203.45334686 -34.35497329 204.29329894 -39.0234375 205.15234375 C-57.32926315 139.27729842 -63.09904794 72.6433984 -43.86279297 6.07861328 C-42.53504148 1.44963443 -41.27915213 -3.19870638 -40.0234375 -7.84765625 C-25.34390622 -10.93352717 -12.43472234 -8.20572966 0 0 Z " fill="#CCC3FA" transform="translate(350.0234375,353.84765625)"/>
<path d="M0 0 C0.06966126 12.34410188 0.12289311 24.68815661 0.15543652 37.03241539 C0.17105958 42.76500797 0.19223645 48.49746556 0.22631836 54.22998047 C0.25903161 59.76725203 0.27687826 65.30439414 0.28463173 70.84175491 C0.29015379 72.94915427 0.30093683 75.05654693 0.31719017 77.16389084 C0.33912346 80.12682892 0.34196029 83.08923926 0.34057617 86.05224609 C0.351362 86.91396423 0.36214783 87.77568237 0.3732605 88.66351318 C0.3092637 101.41176979 -4.90163621 112.93157619 -13.5 122.25 C-24.99914047 133.19076036 -37.77921539 135.49706915 -53.08984375 135.28125 C-58.72477621 135.06873133 -63.13184069 133.86251534 -68 131 C-68.67675781 130.649375 -69.35351562 130.29875 -70.05078125 129.9375 C-81.44101706 123.56781473 -88.70363058 113.1265492 -93 101 C-93.90197789 96.55127138 -94.12159393 92.33579049 -94.11352539 87.80126953 C-94.11367142 87.10788986 -94.11381744 86.41451019 -94.1139679 85.70011902 C-94.11327596 83.42765074 -94.1055175 81.15526631 -94.09765625 78.8828125 C-94.09578951 77.29955083 -94.09436682 75.71628858 -94.09336853 74.13302612 C-94.08956349 69.98037094 -94.07975051 65.82775114 -94.06866455 61.67510986 C-94.05840703 57.43184894 -94.05386163 53.18858227 -94.04882812 48.9453125 C-94.03812633 40.63019216 -94.02107424 32.31510049 -94 24 C-88.98384324 22.28746 -83.98889985 20.65471159 -78.84765625 19.3515625 C-77.75195312 19.07135254 -76.65625 18.79114258 -75.52734375 18.50244141 C-74.38394531 18.21288574 -73.24054688 17.92333008 -72.0625 17.625 C-64.52080403 15.69425331 -56.98794723 13.75520799 -49.5 11.625 C-41.06289549 9.2448506 -32.584207 7.02142572 -24.10009766 4.81585693 C-22.50107491 4.39939419 -20.90259548 3.98083931 -19.3046875 3.56011963 C-17.04188578 2.96503447 -14.77713238 2.37802088 -12.51171875 1.79296875 C-11.48778267 1.52148766 -11.48778267 1.52148766 -10.44316101 1.24452209 C-6.85861474 0.32883915 -3.6861737 -0.07541217 0 0 Z " fill="#A993E6" transform="translate(480,522)"/>
<path d="M0 0 C8.3851494 6.86200428 13.28793196 13.471095 17.0859375 23.70703125 C17.43648193 24.63443115 17.78702637 25.56183105 18.14819336 26.51733398 C19.8187724 32.49695907 19.33034629 38.79971793 19.28125 44.953125 C19.27751445 46.33317356 19.27467004 47.7132248 19.27267456 49.09327698 C19.26508074 52.70510327 19.24546944 56.31676574 19.2232666 59.92852783 C19.20271596 63.62225123 19.19365323 67.31600139 19.18359375 71.00976562 C19.16221898 78.24226175 19.1281352 85.47462344 19.0859375 92.70703125 C-21.53469657 102.4200399 -21.53469657 102.4200399 -41.9140625 106.70703125 C-45.86640928 99.44234839 -47.28505803 91.7293876 -48.9140625 83.70703125 C-49.14706055 82.61237549 -49.14706055 82.61237549 -49.38476562 81.49560547 C-54.27103661 57.68296667 -53.47139971 31.45072174 -50.1640625 7.45703125 C-50.00736084 6.2980835 -49.85065918 5.13913574 -49.68920898 3.94506836 C-48.451218 -3.80853976 -48.451218 -3.80853976 -45.95166016 -6.06274414 C-32.14670105 -14.39765774 -12.0818936 -8.87053526 0 0 Z " fill="#C6BCF8" transform="translate(728.9140625,354.29296875)"/>
<path d="M0 0 C0.06968364 11.56179652 0.12290436 23.12354261 0.15543652 34.68550682 C0.17105476 40.05489932 0.19222263 45.42414754 0.22631836 50.79345703 C0.25904907 55.98060132 0.27688188 61.16760732 0.28463173 66.35484695 C0.29015069 68.32827555 0.30092759 70.30169707 0.31719017 72.27506638 C0.41430173 84.55358704 0.20609181 94.89149635 -5.9375 105.875 C-6.42089844 106.75929688 -6.90429688 107.64359375 -7.40234375 108.5546875 C-9.09478215 111.14506998 -10.53210695 113.11840198 -13 115 C-15.42578125 115.1015625 -15.42578125 115.1015625 -18 114 C-19.93703509 112.16115563 -21.53228372 110.44101742 -23.1875 108.375 C-23.66380859 107.79234375 -24.14011719 107.2096875 -24.63085938 106.609375 C-42.93055782 83.82564449 -64.87863297 47.19302385 -64 17 C-62.97003906 16.76925781 -61.94007813 16.53851562 -60.87890625 16.30078125 C-52.6218171 14.42060915 -44.49260471 12.32094191 -36.39013672 9.85888672 C-30.66286149 8.14057228 -24.89001246 6.7714145 -19.05859375 5.45800781 C-13.62600094 4.20963475 -8.38368155 2.59206142 -3.125 0.734375 C-1 0 -1 0 0 0 Z " fill="#B4A3EC" transform="translate(480,528)"/>
<path d="M0 0 C0.10022461 0.60360352 0.20044922 1.20720703 0.30371094 1.82910156 C2.96826062 18.22256265 2.96826062 18.22256265 8 34 C8.24621094 34.61536621 8.49242187 35.23073242 8.74609375 35.86474609 C19.27491809 61.94121834 38.25315309 84.54874601 64.1796875 96.4609375 C72.24858755 99.71611723 80.56816048 101.91244914 89 104 C79.4140104 114.40866781 65.36896809 118.59036467 51.59765625 119.34765625 C39.74273381 119.76287793 29.85059865 118.96329087 19 114 C18.04351563 113.5771875 17.08703125 113.154375 16.1015625 112.71875 C-0.53353129 104.52036567 -12.6483317 90.3627721 -19 73 C-19.25821533 72.2989917 -19.51643066 71.5979834 -19.7824707 70.87573242 C-22.07044039 64.09734225 -22.50588665 57.81002391 -22.4375 50.6875 C-22.42992676 49.58317627 -22.42235352 48.47885254 -22.41455078 47.34106445 C-22.24999049 39.19893353 -21.39248119 32.48031566 -18 25 C-17.34644531 23.47246094 -17.34644531 23.47246094 -16.6796875 21.9140625 C-14.43183924 17.03758294 -6.40744953 0 0 0 Z " fill="#A992E4" transform="translate(523,538)"/>
<path d="M0 0 C0.33 0 0.66 0 1 0 C1 53.46 1 106.92 1 162 C0.67 162 0.34 162 0 162 C-0.08636719 161.00226563 -0.17273438 160.00453125 -0.26171875 158.9765625 C-2.21140045 138.33936568 -5.7303935 118.09318704 -14 99 C-14.3187207 98.25927246 -14.63744141 97.51854492 -14.96582031 96.75537109 C-18.6497573 88.31684146 -22.79639936 80.39468179 -27.7421875 72.6171875 C-34.86628064 61.34652338 -41.2561964 49.55519094 -47.5625 37.8125 C-47.96774902 37.07177246 -48.37299805 36.33104492 -48.79052734 35.56787109 C-51.62009467 30.2244667 -53.44498477 24.83680925 -55 19 C-49.74057221 17.62376247 -44.47928829 16.25492542 -39.21630859 14.89233398 C-37.43357969 14.4297474 -35.65133481 13.96529056 -33.86962891 13.4987793 C-22.64025406 10.56016261 -11.4446593 7.95134256 0 6 C0 4.02 0 2.04 0 0 Z " fill="#CDC3FA" transform="translate(747,455)"/>
<path d="M0 0 C0.04659594 7.25914088 0.08200639 14.51824885 0.10362434 21.77750969 C0.11400638 25.14925339 0.12806184 28.52089383 0.15087891 31.89257812 C0.1752828 35.77997508 0.18651883 39.66722761 0.1953125 43.5546875 C0.20563507 44.74988007 0.21595764 45.94507263 0.22659302 47.17648315 C0.22785724 56.72063596 -0.56659361 65.10276196 -5.125 73.625 C-5.66382813 74.64851562 -6.20265625 75.67203125 -6.7578125 76.7265625 C-7.16773438 77.47679687 -7.57765625 78.22703125 -8 79 C-28.28520146 70.33942312 -42.92134681 38.07949439 -51.1472168 19.39404297 C-52 17 -52 17 -52 14 C-40.69478193 10.58324189 -29.32918378 7.43612103 -17.91259766 4.41186523 C-16.84444824 4.12770752 -15.77629883 3.8435498 -14.67578125 3.55078125 C-13.72614502 3.29981689 -12.77650879 3.04885254 -11.7980957 2.7902832 C-9.79103333 2.22341636 -7.80349605 1.58560917 -5.83276367 0.90307617 C-3 0 -3 0 0 0 Z " fill="#C8BEF9" transform="translate(370,558)"/>
<path d="M0 0 C-0.12117187 0.64396729 -0.24234375 1.28793457 -0.3671875 1.95141602 C-6.70711607 36.93989681 -5.89505471 71.85817285 3.58862305 106.15673828 C4 108 4 108 4 111 C2.90042969 111.25394531 1.80085937 111.50789063 0.66796875 111.76953125 C-6.90032987 113.528325 -14.43512805 115.31239021 -21.8984375 117.484375 C-24 118 -24 118 -27 118 C-27.09292776 106.82938776 -27.16388036 95.65886841 -27.20724869 84.48794746 C-27.2280697 79.30009371 -27.2562867 74.1125056 -27.30175781 68.92480469 C-27.34541174 63.91271246 -27.36917832 58.90087479 -27.37950897 53.88860703 C-27.38686537 51.98214591 -27.40123032 50.07569778 -27.42292023 48.16934586 C-27.63002372 29.20204388 -27.63002372 29.20204388 -23 21 C-22.31357422 19.57300781 -22.31357422 19.57300781 -21.61328125 18.1171875 C-17.38519478 10.82913455 -9.25664855 0 0 0 Z " fill="#9A7EDD" transform="translate(682,350)"/>
<path d="M0 0 C0 20.46 0 40.92 0 62 C-5.94 63.32 -11.88 64.64 -18 66 C-21.96 66.99 -21.96 66.99 -26 68 C-27.78174352 62.65476945 -27.26558656 56.87717258 -27.29516602 51.27880859 C-27.30661379 49.77382959 -27.32694978 48.26888884 -27.35668945 46.76416016 C-27.62248325 33.3022238 -25.3236136 21.96882979 -17 11 C-6.37003058 0 -6.37003058 0 0 0 Z " fill="#9C81DD" transform="translate(413,470)"/>
<path d="M0 0 C0 1.98 0 3.96 0 6 C-4.11167719 7.55589603 -8.22620041 9.08885517 -12.375 10.54296875 C-30.74568403 17.03057325 -52.35347226 24.72421472 -62 43 C-62.598125 44.093125 -63.19625 45.18625 -63.8125 46.3125 C-68.23033337 56.31075447 -67.54581925 70.30327101 -63.75 80.375 C-62.3107611 83.59381064 -60.7823917 86.48176821 -58.6875 89.3125 C-56.3258834 93.07359311 -56.69791368 95.6197483 -57 100 C-60.23490776 99.44225728 -61.97855006 98.62788492 -64 96 C-64 95.01 -64 94.02 -64 93 C-64.99 92.67 -65.98 92.34 -67 92 C-69.04386393 88.51047622 -70.46819717 84.7377972 -72 81 C-72.48919922 79.94425781 -72.48919922 79.94425781 -72.98828125 78.8671875 C-77.35085261 68.32258375 -76.0031891 54.44310201 -72 44 C-71.74476563 43.3090625 -71.48953125 42.618125 -71.2265625 41.90625 C-68.49686863 35.59539811 -63.76305468 30.85081616 -59 26 C-58.40574219 25.38125 -57.81148437 24.7625 -57.19921875 24.125 C-47.03399939 14.38802714 -33.03663583 8.72883483 -20 4 C-18.35451172 3.37931641 -18.35451172 3.37931641 -16.67578125 2.74609375 C-10.86844028 0.65486808 -6.1723141 -0.47479339 0 0 Z " fill="#CAC3F7" transform="translate(263,475)"/>
<path d="M0 0 C0 1.98 0 3.96 0 6 C-4.43678177 8.40751935 -8.80349589 9.91824338 -13.6796875 11.12109375 C-14.41011261 11.30712662 -15.14053772 11.49315948 -15.89309692 11.68482971 C-18.2188152 12.27553178 -20.54680125 12.8566609 -22.875 13.4375 C-24.39859657 13.82293945 -25.92203553 14.2090025 -27.4453125 14.59570312 C-30.46965635 15.36219087 -33.49539005 16.12277393 -36.52246094 16.87841797 C-39.50234413 17.62253756 -42.47922139 18.3772439 -45.45410156 19.14111328 C-46.16825226 19.32319839 -46.88240295 19.50528351 -47.61819458 19.69288635 C-49.56385659 20.18912836 -51.50876326 20.68832929 -53.45361328 21.18774414 C-56.97783897 21.99492429 -60.41726914 22.54217149 -64 23 C-64 24.65 -64 26.3 -64 28 C-64.66 27.34 -65.32 26.68 -66 26 C-73.56695578 25.51285692 -81.40960892 28.2444583 -88.65625 30.16015625 C-92 31 -92 31 -94 31 C-94 28.69 -94 26.38 -94 24 C-86.77370748 21.47653277 -79.48001574 19.50342105 -72.0625 17.625 C-64.52080403 15.69425331 -56.98794723 13.75520799 -49.5 11.625 C-41.06289549 9.2448506 -32.584207 7.02142572 -24.10009766 4.81585693 C-22.50107491 4.39939419 -20.90259548 3.98083931 -19.3046875 3.56011963 C-17.04188578 2.96503447 -14.77713238 2.37802088 -12.51171875 1.79296875 C-11.48778267 1.52148766 -11.48778267 1.52148766 -10.44316101 1.24452209 C-6.88412284 0.33535527 -3.67525383 -0.20283053 0 0 Z " fill="#9D81DD" transform="translate(480,522)"/>
<path d="M0 0 C0 2.31 0 4.62 0 7 C-6.47436654 9.57890437 -13.01123976 11.42940741 -19.75 13.1875 C-29.11512106 15.66708935 -38.44322259 18.24739375 -47.75 20.9375 C-58.01489632 23.89536689 -68.30538728 26.74046856 -78.625 29.5 C-79.28673218 29.67779999 -79.94846436 29.85559998 -80.63024902 30.03878784 C-82.49491972 30.5391429 -84.36071572 31.03529863 -86.2265625 31.53125 C-87.29471191 31.81548828 -88.36286133 32.09972656 -89.46337891 32.39257812 C-92 33 -92 33 -94 33 C-94 30.69 -94 28.38 -94 26 C-76.79202893 20.94991489 -59.55850887 16.0107561 -42.27017212 11.24279785 C-31.46847577 8.26335875 -20.69498953 5.21084859 -9.96508789 1.97998047 C-9.07813232 1.71588379 -8.19117676 1.45178711 -7.27734375 1.1796875 C-6.51671631 0.95007324 -5.75608887 0.72045898 -4.97241211 0.48388672 C-3 0 -3 0 0 0 Z " fill="#A18BE3" transform="translate(369,551)"/>
<path d="M0 0 C0.66 2.31 1.32 4.62 2 7 C-3.01597256 8.40985993 -8.03308227 9.81557263 -13.05126953 11.2175293 C-14.75666315 11.69459302 -16.46174591 12.17276948 -18.16650391 12.65209961 C-20.62320497 13.34264343 -23.08101252 14.02911917 -25.5390625 14.71484375 C-26.29555084 14.92842026 -27.05203918 15.14199677 -27.83145142 15.36204529 C-31.87043736 16.48426818 -35.84237245 17.39907043 -40 18 C-40 15.69 -40 13.38 -40 11 C-35.71335423 9.7546875 -31.4266497 8.50957757 -27.13989258 7.26464844 C-25.68414757 6.84185142 -24.22841813 6.4190008 -22.77270508 5.99609375 C-20.67012643 5.38527268 -18.5674903 4.77464979 -16.46484375 4.1640625 C-15.202771 3.79748535 -13.94069824 3.4309082 -12.64038086 3.05322266 C-11.43905518 2.70565918 -10.23772949 2.3580957 -9 2 C-8.03430588 1.71319366 -8.03430588 1.71319366 -7.04910278 1.42059326 C-2.21710463 0 -2.21710463 0 0 0 Z " fill="#957DDA" transform="translate(315,566)"/>
<path d="M0 0 C0.495 3.465 0.495 3.465 1 7 C-0.12535156 7.24234375 -1.25070312 7.4846875 -2.41015625 7.734375 C-11.36617492 9.68342427 -20.23281623 11.79021815 -29.05859375 14.265625 C-32 15 -32 15 -35 15 C-35 12.69 -35 10.38 -35 8 C-18.00871412 3.22356075 -18.00871412 3.22356075 -10.1875 1.1875 C-9.29417969 0.95417969 -8.40085937 0.72085937 -7.48046875 0.48046875 C-4.92619041 -0.01429698 -2.59508613 -0.08852179 0 0 Z " fill="#8764CC" transform="translate(690,468)"/>
<path d="M0 0 C0 2.31 0 4.62 0 7 C-3.33041464 7.98928125 -6.66478326 8.96454291 -10 9.9375 C-10.93457031 10.21529297 -11.86914062 10.49308594 -12.83203125 10.77929688 C-18.24019891 12.34880008 -23.39092274 13.47745625 -29 14 C-29 11.69 -29 9.38 -29 7 C-23.63846728 5.15119561 -18.24792016 3.43217451 -12.8125 1.8125 C-11.66394531 1.46832031 -10.51539063 1.12414062 -9.33203125 0.76953125 C-6.09057233 0.02091764 -3.31191717 -0.14574446 0 0 Z " fill="#815EC7" transform="translate(415,539)"/>
<path d="M0 0 C-0.33 1.98 -0.66 3.96 -1 6 C-1.66 5.34 -2.32 4.68 -3 4 C-6.0408618 6.28402508 -9.03453781 8.61886534 -12 11 C-12.56847656 11.45503906 -13.13695312 11.91007812 -13.72265625 12.37890625 C-18.76610218 16.88438461 -21.23339055 22.93700483 -24 29 C-25.05564637 26.3106152 -25.08703371 25.22600689 -24.03125 22.484375 C-19.27720437 13.9950078 -11.18026532 0 0 0 Z " fill="#8767C5" transform="translate(682,350)"/>
<path d="M0 0 C2.97 0.33 5.94 0.66 9 1 C0.57053634 10.15288778 -12.65669623 15.43174138 -25.02636719 16.11132812 C-29.35644548 16.23487385 -33.6707625 16.16167277 -38 16 C-38 15.67 -38 15.34 -38 15 C-36.69546875 14.90203125 -35.3909375 14.8040625 -34.046875 14.703125 C-17.87434691 14.04309338 -17.87434691 14.04309338 -4 7 C-2.824375 6.505 -1.64875 6.01 -0.4375 5.5 C3.06202674 4.41004413 3.06202674 4.41004413 4 2 C2.68 1.34 1.36 0.68 0 0 Z " fill="#A08DD5" transform="translate(603,641)"/>
<path d="M0 0 C-0.25692627 0.80836304 -0.25692627 0.80836304 -0.51904297 1.63305664 C-1.30540123 4.10920908 -2.09021038 6.58584997 -2.875 9.0625 C-3.27912109 10.33383789 -3.27912109 10.33383789 -3.69140625 11.63085938 C-5.20195954 16.40199721 -6.65279167 21.18013332 -8 26 C-8.33 26 -8.66 26 -9 26 C-9.36151145 21.30035109 -8.42342377 17.80708215 -6.8671875 13.45703125 C-5.41913961 9.35422891 -4.22832613 5.17282422 -3 1 C-5.31 1.66 -7.62 2.32 -10 3 C-9 1 -9 1 -6.6875 -0.1875 C-3.80924224 -1.05767095 -2.78618635 -0.83763812 0 0 Z " fill="#9F90DF" transform="translate(311,348)"/>
<path d="M0 0 C0.33 0 0.66 0 1 0 C1 2.64 1 5.28 1 8 C0.67 7.01 0.34 6.02 0 5 C-4.66906555 8.81438599 -4.66906555 8.81438599 -9 13 C-8.42993865 9.11645706 -6.61062485 7.10304001 -4 4.25 C-3.278125 3.45078125 -2.55625 2.6515625 -1.8125 1.828125 C-1.214375 1.22484375 -0.61625 0.6215625 0 0 Z " fill="#9781D1" transform="translate(522,538)"/>
<path d="M0 0 C-0.33 1.98 -0.66 3.96 -1 6 C-1.66 5.34 -2.32 4.68 -3 4 C-4.423125 4.99 -4.423125 4.99 -5.875 6 C-9 8 -9 8 -11 8 C-9.24437387 3.08424684 -5.22219793 0 0 0 Z " fill="#7656BC" transform="translate(682,350)"/>
<path d="M0 0 C0.66 0.33 1.32 0.66 2 1 C-3.94 6.445 -3.94 6.445 -10 12 C-10.33 11.01 -10.66 10.02 -11 9 C-9.73113036 7.87278564 -8.45982438 6.74831342 -7.1875 5.625 C-6.47980469 4.99851562 -5.77210938 4.37203125 -5.04296875 3.7265625 C-3 2 -3 2 0 0 Z " fill="#AC9FE5" transform="translate(298,351)"/>
<path d="M0 0 C0.66 0.33 1.32 0.66 2 1 C1.45730469 1.51949219 0.91460937 2.03898438 0.35546875 2.57421875 C-4.99529043 7.75654302 -4.99529043 7.75654302 -9 14 C-9.33 13.01 -9.66 12.02 -10 11 C-8.92578125 9.0625 -8.92578125 9.0625 -7.3125 7 C-6.79300781 6.319375 -6.27351562 5.63875 -5.73828125 4.9375 C-3.97697378 2.97433482 -2.15873637 1.50500139 0 0 Z " fill="#AC9FDE" transform="translate(220,553)"/>
<path d="M0 0 C1 3 1 3 -0.07421875 5.2265625 C-0.87279297 6.41378906 -0.87279297 6.41378906 -1.6875 7.625 C-2.20699219 8.42164063 -2.72648438 9.21828125 -3.26171875 10.0390625 C-5.17418516 12.19649652 -6.18771639 12.64463519 -9 13 C-8.60167969 12.48050781 -8.20335937 11.96101563 -7.79296875 11.42578125 C-4.97822677 7.72073158 -2.28614026 4.06424935 0 0 Z " fill="#B8AFE4" transform="translate(850,494)"/>
<path d="M0 0 C0.33 0 0.66 0 1 0 C1.35048466 4.20581591 0.61867025 5.77702123 -2 9 C-2.71162443 10.64797236 -3.39031953 12.31165408 -4 14 C-5.06528748 11.26980214 -5.07998186 10.20701188 -4.00390625 7.421875 C-3.52824219 6.54015625 -3.05257812 5.6584375 -2.5625 4.75 C-2.08941406 3.85796875 -1.61632812 2.9659375 -1.12890625 2.046875 C-0.75636719 1.37140625 -0.38382813 0.6959375 0 0 Z " fill="#9175C8" transform="translate(662,365)"/>
<path d="M0 0 C2.97 0.33 5.94 0.66 9 1 C7.35 2.65 5.7 4.3 4 6 C3.34 5.67 2.68 5.34 2 5 C2.66 4.01 3.32 3.02 4 2 C2.68 1.34 1.36 0.68 0 0 Z " fill="#957BCF" transform="translate(603,641)"/>
<path d="M0 0 C0.66 0.33 1.32 0.66 2 1 C1.21625 1.7425 0.4325 2.485 -0.375 3.25 C-2.56504531 5.54433318 -3.82731386 7.12158858 -5 10 C-5.75 8.3125 -5.75 8.3125 -6 6 C-4.21482174 3.35301155 -2.87978754 1.43989377 0 0 Z " fill="#B0A2E3" transform="translate(592,469)"/>
<path d="M0 0 C0.33 0.66 0.66 1.32 1 2 C-0.65909182 6.10406925 -2.21704034 8.65195608 -6 11 C-4.54955729 6.89041233 -2.48889248 3.56741255 0 0 Z " fill="#B8ACE9" transform="translate(286,361)"/>
<path d="M0 0 C-2.39763185 2.39763185 -3.33273498 2.34280586 -6.625 2.625 C-7.44226563 2.69976563 -8.25953125 2.77453125 -9.1015625 2.8515625 C-9.72804688 2.90054688 -10.35453125 2.94953125 -11 3 C-7.48550811 -0.37391222 -4.73940561 -0.27342725 0 0 Z " fill="#C8BDF7" transform="translate(397,542)"/>
<path d="M0 0 C0.66 0.33 1.32 0.66 2 1 C0.70700306 3.88437779 -0.65941363 5.87219421 -3 8 C-2.25 2.25 -2.25 2.25 0 0 Z " fill="#A68ED9" transform="translate(511,552)"/>
<path d="M0 0 C0.66 0.33 1.32 0.66 2 1 C-1.465 3.97 -1.465 3.97 -5 7 C-3.92643531 2.70574125 -3.4915227 2.25259529 0 0 Z " fill="#9173CD" transform="translate(404,474)"/>
</svg>